<?xml version="1.0" encoding="UTF-8" standalone="no"?>
<svg width="435px" height="896px" viewBox="0 0 435 896" version="1.1" xmlns="http://www.w3.org/2000/svg" xmlns:xlink="http://www.w3.org/1999/xlink" xmlns:sketch="http://www.bohemiancoding.com/sketch/ns">
    <!-- Generator: Sketch 3.2.1 (9971) - http://www.bohemiancoding.com/sketch -->
    <title>device_iphone6</title>
    <desc>Created with Sketch.</desc>
    <defs>
        <path id="path-1" d="M0.2,7.8 C0.2,3.8 3.5,0.5 7.5,0.5 L83.1,0.5 C87.1,0.5 90.4,3.8 90.4,7.8 L90.4,7.8 C90.4,11.8 87.1,15.1 83.1,15.1 L7.5,15.1 C3.5,15.1 0.2,11.8 0.2,7.8 L0.2,7.8 L0.2,7.8 Z"></path>
    </defs>
    <g id="Page-1" stroke="none" stroke-width="1" fill="none" fill-rule="evenodd" sketch:type="MSPage">
        <g id="device_iphone6" sketch:type="MSLayerGroup" transform="translate(1.000000, 1.000000)">
            <g id="Group">
                <path d="M360.4,894 L72.6,894 C32.7,894 0,861.3 0,821.4 L0,73 C0,33.1 32.7,0.4 72.6,0.4 L360.3,0.4 C400.3,0.4 433,33.1 433,73 L433,821.4 C433,861.3 400.3,894 360.4,894 L360.4,894 Z" id="Shape" stroke="#CCCCCC" stroke-width="2" sketch:type="MSShapeGroup"></path>
                <g transform="translate(147.000000, 57.000000)">
                    <path d="M7.4,15.1 C11.4,15.1 14.7,11.8 14.7,7.8 C14.7,3.8 11.4,0.5 7.4,0.5 C3.4,0.5 0.1,3.8 0.1,7.8 C0.1,11.8 3.4,15.1 7.4,15.1 L7.4,15.1 L7.4,15.1 Z" id="Shape" stroke="#CCCCCC" sketch:type="MSShapeGroup"></path>
                    <g transform="translate(45.000000, 0.000000)">
                        <g id="Clipped">
                            <mask id="mask-2" sketch:name="SVGID_1_" fill="white">
                                <use xlink:href="#path-1"></use>
                            </mask>
                            <g id="SVGID_1_"></g>
                            <path d="M0.2,7.8 C0.2,3.8 3.5,0.5 7.5,0.5 L83.1,0.5 C87.1,0.5 90.4,3.8 90.4,7.8 L90.4,7.8 C90.4,11.8 87.1,15.1 83.1,15.1 L7.5,15.1 C3.5,15.1 0.2,11.8 0.2,7.8 L0.2,7.8 L0.2,7.8 Z" id="Shape" stroke="#CCCCCC" sketch:type="MSShapeGroup" mask="url(#mask-2)"></path>
                        </g>
                        <g id="SVGID_1_-link" stroke="#CCCCCC" sketch:type="MSShapeGroup">
                            <path d="M0.2,7.8 C0.2,3.8 3.5,0.5 7.5,0.5 L83.1,0.5 C87.1,0.5 90.4,3.8 90.4,7.8 L90.4,7.8 C90.4,11.8 87.1,15.1 83.1,15.1 L7.5,15.1 C3.5,15.1 0.2,11.8 0.2,7.8 L0.2,7.8 L0.2,7.8 Z" id="SVGID_1_"></path>
                        </g>
                    </g>
                </g>
                <path d="M214.8,870.7 C235,870.7 251.4,854.3 251.4,834.1 C251.4,813.9 235,797.5 214.8,797.5 C194.6,797.5 178.2,813.9 178.2,834.1 C178.2,854.4 194.6,870.7 214.8,870.7 L214.8,870.7 L214.8,870.7 Z" id="Shape" stroke="#CCCCCC" sketch:type="MSShapeGroup"></path>
                <rect id="Rectangle-path" stroke="#CCCCCC" sketch:type="MSShapeGroup" x="27.3" y="111.1" width="375" height="667"></rect>
            </g>
        </g>
    </g>
</svg>