<?xml version="1.0" encoding="UTF-8" standalone="no"?>
<svg width="814px" height="1383px" viewBox="0 0 814 1383" version="1.1" xmlns="http://www.w3.org/2000/svg" xmlns:xlink="http://www.w3.org/1999/xlink" xmlns:sketch="http://www.bohemiancoding.com/sketch/ns">
    <!-- Generator: Sketch 3.3 (11970) - http://www.bohemiancoding.com/sketch -->
    <title>cssSprite</title>
    <desc>Created with Sketch.</desc>
    <defs></defs>
    <g id="Page-1" stroke="none" stroke-width="1" fill="none" fill-rule="evenodd" sketch:type="MSPage">
        <g id="cssSprite" sketch:type="MSArtboardGroup">
            <g id="logo" sketch:type="MSLayerGroup" transform="translate(14.000000, 11.000000)">
                <g id="Group" sketch:type="MSShapeGroup">
                    <path d="M75.5307692,16.5245902 C75.8076923,16.5245902 75.9461538,16.5934426 76.0846154,16.7311475 C76.2230769,16.8688525 76.2923077,17.0754098 76.2923077,17.3508197 C76.2923077,17.557377 76.2230769,17.7639344 76.0846154,17.9016393 C75.9461538,18.0393443 75.7384615,18.1081967 75.5307692,18.1081967 L70.2,18.1081967 C69.9230769,18.1081967 69.7846154,18.0393443 69.5769231,17.9016393 C69.4384615,17.7639344 69.3692308,17.557377 69.3692308,17.2819672 C69.3692308,17.0754098 69.4384615,16.8688525 69.5769231,16.7311475 C69.7153846,16.5934426 69.9230769,16.5245902 70.2,16.5245902 L75.5307692,16.5245902 L75.5307692,16.5245902 Z M75.3923077,13.495082 C75.6692308,13.495082 75.8076923,13.5639344 75.9461538,13.7016393 C76.0846154,13.8393443 76.1538462,14.0459016 76.1538462,14.3213115 C76.1538462,14.5278689 76.0846154,14.7344262 75.9461538,14.8721311 C75.8076923,15.0098361 75.6,15.0786885 75.3923077,15.0786885 L70.0615385,15.0786885 C69.7846154,15.0786885 69.6461538,15.0098361 69.4384615,14.8721311 C69.3,14.7344262 69.2307692,14.5278689 69.2307692,14.252459 C69.2307692,14.0459016 69.3,13.8393443 69.4384615,13.7016393 C69.5769231,13.5639344 69.7846154,13.495082 70.0615385,13.495082 L75.3923077,13.495082 L75.3923077,13.495082 Z M64.3153846,13.6327869 C64.5923077,13.6327869 64.7307692,13.7016393 64.8692308,13.8393443 C65.0076923,13.9770492 65.0769231,14.1836066 65.0769231,14.4590164 C65.0769231,14.6655738 65.0076923,14.8721311 64.8692308,15.0098361 C64.7307692,15.147541 64.5230769,15.2163934 64.3153846,15.2163934 L58.9846154,15.2163934 C58.7076923,15.2163934 58.5692308,15.147541 58.3615385,15.0098361 C58.2230769,14.8721311 58.1538462,14.6655738 58.1538462,14.3901639 C58.1538462,14.1836066 58.2230769,13.9770492 58.3615385,13.8393443 C58.5,13.7016393 58.7076923,13.6327869 58.9846154,13.6327869 L64.3153846,13.6327869 L64.3153846,13.6327869 Z M76.3615385,20.0360656 C76.6384615,20.0360656 76.7769231,20.104918 76.9153846,20.242623 C77.0538462,20.3803279 77.1230769,20.5868852 77.1230769,20.8622951 C77.1230769,21.0688525 77.0538462,21.2754098 76.9153846,21.4131148 C76.7769231,21.5508197 76.5692308,21.6196721 76.3615385,21.6196721 L58.7769231,21.6196721 C58.5,21.6196721 58.3615385,21.5508197 58.1538462,21.4131148 C58.0153846,21.2754098 57.9461538,21.0688525 57.9461538,20.7934426 C57.9461538,20.5868852 58.0153846,20.3803279 58.1538462,20.242623 C58.2923077,20.104918 58.5,20.0360656 58.7769231,20.0360656 L76.3615385,20.0360656 L76.3615385,20.0360656 Z M64.3153846,16.5245902 C64.5923077,16.5245902 64.7307692,16.5934426 64.8692308,16.7311475 C65.0076923,16.8688525 65.0769231,17.0754098 65.0769231,17.3508197 C65.0769231,17.557377 65.0076923,17.7639344 64.8692308,17.9016393 C64.7307692,18.0393443 64.5230769,18.1081967 64.3153846,18.1081967 L58.7076923,18.1081967 C58.4307692,18.1081967 58.2923077,18.0393443 58.0846154,17.9016393 C57.9461538,17.7639344 57.8769231,17.557377 57.8769231,17.2819672 C57.8769231,17.0754098 57.9461538,16.8688525 58.0846154,16.7311475 C58.2230769,16.5934426 58.4307692,16.5245902 58.7076923,16.5245902 L64.3153846,16.5245902 L64.3153846,16.5245902 Z M56.5615385,30.7081967 C56.2153846,30.7081967 56.0076923,30.6393443 55.8692308,30.5016393 C55.7307692,30.295082 55.6615385,30.0885246 55.5923077,29.8819672 C55.5923077,29.6065574 55.6615385,29.4 55.8,29.2622951 C55.9384615,29.1245902 56.2153846,28.9868852 56.4923077,28.9868852 L60.0230769,28.9180328 C61.1307692,27.6786885 62.1692308,26.3704918 63.2076923,24.9934426 L56.2846154,24.9934426 C56.0076923,24.9934426 55.8692308,24.9245902 55.6615385,24.7868852 C55.5230769,24.6491803 55.4538462,24.442623 55.4538462,24.1672131 C55.4538462,23.9606557 55.5230769,23.7540984 55.6615385,23.6163934 C55.8,23.4786885 56.0076923,23.4098361 56.2846154,23.4098361 L78.5769231,23.4098361 C78.8538462,23.4098361 78.9923077,23.4786885 79.1307692,23.6163934 C79.2692308,23.7540984 79.3384615,23.9606557 79.3384615,24.2360656 C79.3384615,24.442623 79.2692308,24.6491803 79.1307692,24.7868852 C78.9923077,24.9245902 78.7846154,24.9934426 78.5769231,24.9934426 L65.1461538,24.9934426 C64.3846154,26.0262295 63.4153846,27.3344262 62.0307692,28.8491803 L74.4923077,28.504918 L72.6923077,26.852459 C72.4846154,26.7147541 72.3461538,26.5081967 72.3461538,26.3016393 C72.2769231,26.095082 72.3461538,25.8885246 72.4846154,25.7508197 C72.6230769,25.5442623 72.8307692,25.4754098 73.0384615,25.4065574 C73.2461538,25.3377049 73.4538462,25.4065574 73.6615385,25.6131148 C77.1923077,28.642623 78.9230769,30.4327869 78.8538462,30.9836066 C78.8538462,31.1901639 78.7846154,31.3278689 78.6461538,31.5344262 C78.4384615,31.6721311 78.3,31.7409836 78.0923077,31.7409836 C77.8846154,31.6721311 77.6769231,31.6032787 77.4692308,31.3967213 L76.0846154,29.9508197 L56.5615385,30.7081967 L56.5615385,30.7081967 Z M58.5,12.1180328 C58.0153846,12.1180328 57.6692308,12.2557377 57.3923077,12.5311475 C57.1846154,12.8065574 57.0461538,13.1508197 57.0461538,13.5639344 L57.0461538,15.4229508 C57.0461538,15.6983607 56.9769231,15.904918 56.8384615,16.042623 L56.2846154,16.2491803 C56.0769231,16.1803279 55.8692308,16.1114754 55.7307692,16.042623 C55.5923077,15.8360656 55.5230769,15.6295082 55.5230769,15.4229508 L55.5230769,13.0819672 C55.5230769,12.3245902 55.7307692,11.704918 56.2153846,11.2229508 C56.7,10.7409836 57.3230769,10.5344262 58.0846154,10.5344262 L66.4615385,10.5344262 L66.4615385,8.81311475 L57.9461538,8.81311475 C57.6692308,8.81311475 57.5307692,8.7442623 57.3230769,8.60655738 C57.1846154,8.46885246 57.1153846,8.26229508 57.1153846,7.98688525 C57.1153846,7.78032787 57.1846154,7.57377049 57.3230769,7.43606557 C57.4615385,7.29836066 57.6692308,7.2295082 57.9461538,7.2295082 L76.9153846,7.2295082 C77.1923077,7.2295082 77.3307692,7.29836066 77.4692308,7.43606557 C77.6076923,7.57377049 77.6769231,7.78032787 77.6769231,8.0557377 C77.6769231,8.26229508 77.6076923,8.46885246 77.4692308,8.60655738 C77.3307692,8.7442623 77.1230769,8.81311475 76.9153846,8.81311475 L67.9846154,8.81311475 L67.9846154,10.5344262 L77.2615385,10.5344262 C77.8153846,10.5344262 78.2307692,10.6032787 78.5769231,10.8098361 C78.8538462,11.0163934 79.0615385,11.2229508 79.2692308,11.5672131 C79.6846154,12.2557377 79.6153846,13.6327869 78.9230769,15.5606557 C78.8538462,15.8360656 78.7153846,15.9737705 78.5076923,16.1114754 C78.3,16.1803279 78.1615385,16.1803279 77.8846154,16.1114754 C77.4,15.904918 77.2615385,15.5606557 77.4,15.0786885 C77.8846154,13.7704918 78.0230769,13.0131148 77.7461538,12.6 C77.4692308,12.2557377 77.0538462,12.0491803 76.5,12.0491803 L67.9846154,12.0491803 L67.9846154,17.9704918 C67.9846154,18.2459016 67.9153846,18.452459 67.7769231,18.5901639 C67.6384615,18.7278689 67.4307692,18.7967213 67.2230769,18.7967213 C67.0153846,18.7967213 66.8076923,18.7278689 66.6692308,18.5901639 C66.5307692,18.3836066 66.4615385,18.1770492 66.4615385,17.9704918 L66.4615385,12.0491803 L58.5,12.0491803 L58.5,12.1180328 L58.5,12.1180328 Z" id="Shape" fill="#3F76A5"></path>
                    <path d="M95.4692308,13.7704918 L101.838462,13.7704918 C102.253846,13.7704918 102.530769,13.6327869 102.669231,13.495082 C102.807692,13.2885246 102.876923,13.0131148 102.876923,12.7377049 L102.876923,12.3245902 L95.4692308,12.3245902 L95.4692308,13.7704918 L95.4692308,13.7704918 Z M95.4692308,10.7409836 L102.876923,10.7409836 L102.876923,10.3278689 C102.876923,10.1213115 102.807692,9.84590164 102.6,9.63934426 C102.392308,9.43278689 102.184615,9.29508197 101.769231,9.29508197 L95.4,9.29508197 L95.4,10.7409836 L95.4692308,10.7409836 L95.4692308,10.7409836 Z M87.5769231,27.6786885 L87.5769231,28.504918 C87.5769231,28.8491803 87.6461538,29.0557377 87.7846154,29.2622951 C87.9230769,29.4 88.1307692,29.4688525 88.4076923,29.4688525 L101.284615,29.4688525 C101.561538,29.4 101.838462,29.3311475 101.976923,29.1934426 C102.115385,28.9868852 102.253846,28.7803279 102.253846,28.4360656 L102.253846,27.6098361 L87.5769231,27.6098361 L87.5769231,27.6786885 L87.5769231,27.6786885 Z M102.253846,26.095082 L102.253846,25.1311475 C102.253846,24.9245902 102.184615,24.7180328 102.046154,24.5114754 C101.907692,24.3737705 101.630769,24.304918 101.284615,24.304918 L88.4076923,24.304918 C88.1307692,24.2360656 87.9230769,24.3737705 87.7846154,24.5114754 C87.6461538,24.6491803 87.5769231,24.8557377 87.5769231,25.1311475 L87.5769231,26.095082 L102.253846,26.095082 L102.253846,26.095082 Z M87.8538462,31.1213115 C87.1615385,31.052459 86.6769231,30.9147541 86.4,30.5016393 C86.1230769,30.0885246 85.9846154,29.6754098 85.9846154,29.1934426 L85.9846154,24.6491803 C85.9846154,24.0983607 86.1923077,23.6163934 86.5384615,23.2721311 C86.8846154,22.9278689 87.3692308,22.7213115 87.9230769,22.7213115 L101.976923,22.7213115 C102.6,22.7213115 103.015385,22.8590164 103.361538,23.2721311 C103.707692,23.6163934 103.846154,24.0983607 103.915385,24.6491803 L103.915385,29.1934426 C103.915385,29.7442623 103.707692,30.157377 103.361538,30.5704918 C103.015385,30.9147541 102.530769,31.1213115 101.976923,31.1213115 L87.8538462,31.1213115 L87.8538462,31.1213115 Z M93.9461538,18.2459016 L85.1538462,18.2459016 C84.9461538,18.2459016 84.7384615,18.1770492 84.6,18.0393443 C84.4615385,17.9016393 84.3923077,17.7639344 84.3923077,17.4885246 C84.3923077,17.2819672 84.4615385,17.0754098 84.6,17.0065574 C84.7384615,16.8688525 84.9461538,16.8 85.1538462,16.8 L93.9461538,16.8 L93.9461538,15.2852459 L85.6384615,15.2852459 C85.3615385,15.2852459 85.1538462,15.2163934 85.0153846,15.0786885 C84.8769231,14.9409836 84.8076923,14.7344262 84.8076923,14.5967213 C84.8076923,14.3901639 84.8769231,14.1836066 85.0153846,14.0459016 C85.1538462,13.9081967 85.3615385,13.8393443 85.6384615,13.8393443 L93.9461538,13.8393443 L93.9461538,12.3934426 L82.9384615,12.3934426 C82.6615385,12.3934426 82.5230769,12.3245902 82.3153846,12.1868852 C82.1769231,12.0491803 82.1076923,11.842623 82.1076923,11.5672131 C82.1076923,11.3606557 82.1769231,11.1540984 82.3153846,11.0163934 C82.4538462,10.8786885 82.6615385,10.8098361 82.9384615,10.8098361 L93.9461538,10.8098361 L93.9461538,9.36393443 L85.7076923,9.36393443 C85.4307692,9.36393443 85.2230769,9.29508197 85.0846154,9.15737705 C84.9461538,9.01967213 84.8769231,8.81311475 84.8769231,8.60655738 C84.8769231,8.4 84.9461538,8.19344262 85.0846154,8.12459016 C85.2923077,7.98688525 85.5,7.91803279 85.7076923,7.91803279 L93.9461538,7.91803279 L93.9461538,7.02295082 C93.9461538,6.74754098 94.0153846,6.54098361 94.1538462,6.40327869 C94.2923077,6.26557377 94.5,6.19672131 94.7769231,6.19672131 C95.0538462,6.19672131 95.1923077,6.26557377 95.3307692,6.40327869 C95.4692308,6.54098361 95.5384615,6.74754098 95.5384615,7.02295082 L95.5384615,7.91803279 L102.323077,7.91803279 C103.015385,7.91803279 103.569231,8.12459016 103.984615,8.53770492 C104.4,8.95081967 104.538462,9.50163934 104.538462,10.1213115 L104.538462,10.8098361 L106.615385,10.8098361 C106.892308,10.8098361 107.030769,10.8786885 107.169231,11.0163934 C107.307692,11.1540984 107.376923,11.3606557 107.376923,11.6360656 C107.376923,11.842623 107.307692,12.0491803 107.169231,12.1868852 C107.030769,12.3245902 106.823077,12.3934426 106.615385,12.3934426 L104.538462,12.3934426 L104.538462,13.357377 L104.538462,13.5639344 C104.469231,14.0459016 104.330769,14.3901639 104.053846,14.6655738 C103.707692,15.147541 103.153846,15.3540984 102.392308,15.3540984 L95.5384615,15.3540984 L95.5384615,16.8688525 L104.4,16.8688525 C104.607692,16.8688525 104.815385,16.9377049 104.953846,17.0754098 C105.092308,17.2131148 105.161538,17.3508197 105.161538,17.6262295 C105.161538,17.8327869 105.092308,17.9704918 104.953846,18.1081967 C104.815385,18.2459016 104.607692,18.3147541 104.4,18.3147541 L95.5384615,18.3147541 L95.5384615,19.8295082 L106.615385,19.8295082 C106.823077,19.8295082 107.030769,19.8983607 107.169231,20.0360656 C107.307692,20.1737705 107.376923,20.3114754 107.376923,20.5868852 C107.376923,20.7934426 107.307692,20.9311475 107.169231,21.0688525 C107.030769,21.2065574 106.823077,21.2754098 106.615385,21.2754098 L82.9384615,21.2754098 C82.7307692,21.2754098 82.5230769,21.2065574 82.3846154,21.0688525 C82.2461538,20.9311475 82.1769231,20.7934426 82.1769231,20.5180328 C82.1769231,20.3114754 82.2461538,20.104918 82.3846154,20.0360656 C82.5230769,19.8983607 82.7307692,19.8295082 82.9384615,19.8295082 L93.9461538,19.8295082 L93.9461538,18.2459016 L93.9461538,18.2459016 L93.9461538,18.2459016 Z" id="Shape" fill="#3F76A5"></path>
                    <path d="M58.2923077,36.904918 C58.4307692,36.6983607 58.5,36.4229508 58.5,36.0098361 C58.5,35.7344262 58.4307692,35.4590164 58.3615385,35.3213115 C58.2230769,34.9770492 57.9461538,34.7704918 57.6,34.7704918 C57.1846154,34.7704918 56.9769231,34.9770492 56.7692308,35.3213115 C56.7,35.5278689 56.6307692,35.7344262 56.6307692,36.0098361 C56.6307692,36.3540984 56.7,36.6295082 56.8384615,36.8360656 C56.9769231,37.042623 57.2538462,37.1803279 57.5307692,37.1803279 C57.9461538,37.2491803 58.1538462,37.1114754 58.2923077,36.904918 M59.1923077,34.4262295 C59.4692308,34.8393443 59.6769231,35.3213115 59.6769231,35.9409836 C59.6769231,36.5606557 59.5384615,37.1114754 59.2615385,37.5245902 C58.9846154,37.9377049 58.5692308,38.1442623 58.0153846,38.1442623 C57.6692308,38.1442623 57.3923077,38.0754098 57.1846154,37.9377049 C57.0461538,37.8688525 56.9076923,37.7311475 56.7692308,37.5245902 L56.7692308,38.0065574 L55.7307692,38.0065574 L55.7307692,32.5672131 L56.7692308,32.5672131 L56.7692308,34.495082 C56.9076923,34.2885246 57.0461538,34.1508197 57.1846154,34.0819672 C57.3923077,33.9442623 57.6,33.8754098 57.9461538,33.8754098 C58.4307692,33.8754098 58.9153846,34.0819672 59.1923077,34.4262295" id="Shape" fill="#F2254C"></path>
                    <path d="M61.4769231,34.9770492 C61.3384615,35.1147541 61.2,35.3213115 61.2,35.5967213 L63,35.5967213 C63,35.3213115 62.8615385,35.1147541 62.7230769,34.9770492 C62.5846154,34.8393443 62.3769231,34.7704918 62.1,34.7704918 C61.8230769,34.7016393 61.6153846,34.7704918 61.4769231,34.9770492 M63,34.0131148 C63.2769231,34.1508197 63.4846154,34.357377 63.6923077,34.6327869 C63.8307692,34.8393443 63.9692308,35.1836066 64.0384615,35.4590164 C64.0384615,35.6655738 64.1076923,35.9409836 64.1076923,36.2852459 L61.1307692,36.2852459 C61.1307692,36.6983607 61.2692308,36.9737705 61.5461538,37.1114754 C61.6846154,37.1803279 61.8923077,37.2491803 62.1,37.2491803 C62.3076923,37.2491803 62.5153846,37.1803279 62.7230769,37.042623 C62.7923077,36.9737705 62.8615385,36.904918 62.9307692,36.7672131 L64.0384615,36.7672131 C64.0384615,36.9737705 63.9,37.2491803 63.6230769,37.5245902 C63.2769231,37.9377049 62.7230769,38.1442623 62.1,38.1442623 C61.5461538,38.1442623 61.0615385,38.0065574 60.6461538,37.6622951 C60.2307692,37.3180328 60.0230769,36.7672131 60.0230769,36.0786885 C60.0230769,35.3901639 60.2307692,34.8393443 60.5769231,34.495082 C60.9230769,34.1508197 61.4076923,33.9442623 62.0307692,33.9442623 C62.4461538,33.8754098 62.7230769,33.9442623 63,34.0131148" id="Shape" fill="#F2254C"></path>
                    <path d="M65.4230769,36.6983607 C65.4230769,36.904918 65.4923077,37.042623 65.5615385,37.1114754 C65.7,37.2491803 65.9076923,37.3180328 66.3230769,37.3180328 C66.5307692,37.3180328 66.6692308,37.3180328 66.8076923,37.2491803 C66.9461538,37.1803279 67.0153846,37.1114754 67.0153846,36.9737705 C67.0153846,36.8360656 66.9461538,36.7672131 66.8769231,36.6983607 C66.8076923,36.6295082 66.3923077,36.5606557 65.7692308,36.3540984 C65.2846154,36.2163934 65.0076923,36.0786885 64.8,35.9409836 C64.5923077,35.8032787 64.5230769,35.5278689 64.5230769,35.1836066 C64.5230769,34.8393443 64.6615385,34.495082 64.9384615,34.2196721 C65.2153846,33.9442623 65.6307692,33.8065574 66.1846154,33.8065574 C66.6692308,33.8065574 67.0846154,33.8754098 67.4307692,34.0819672 C67.7769231,34.2885246 67.9153846,34.6327869 67.9846154,35.1147541 L66.9461538,35.1147541 C66.9461538,34.9770492 66.8769231,34.8393443 66.8076923,34.7704918 C66.6692308,34.6327869 66.4615385,34.5639344 66.1846154,34.5639344 C65.9769231,34.5639344 65.7692308,34.6327869 65.7,34.7016393 C65.6307692,34.7704918 65.5615385,34.8393443 65.5615385,34.9770492 C65.5615385,35.1147541 65.6307692,35.1836066 65.7,35.252459 C65.8384615,35.3213115 66.1846154,35.3901639 66.8076923,35.5278689 C67.2230769,35.5967213 67.5692308,35.8032787 67.7769231,36.0098361 C67.9846154,36.2163934 68.1230769,36.4918033 68.1230769,36.7672131 C68.1230769,37.1803279 67.9846154,37.5245902 67.6384615,37.7311475 C67.3615385,38.0065574 66.8769231,38.1442623 66.2538462,38.1442623 C65.6307692,38.1442623 65.1461538,38.0065574 64.8692308,37.7311475 C64.5923077,37.4557377 64.3846154,37.1114754 64.3846154,36.6983607 L65.4230769,36.6983607 L65.4230769,36.6983607 L65.4230769,36.6983607 Z" id="Shape" fill="#F2254C"></path>
                    <path d="M68.4692308,34.7704918 L68.4692308,34.0131148 L69.0230769,34.0131148 L69.0230769,32.9114754 L70.0615385,32.9114754 L70.0615385,34.0131148 L70.7538462,34.0131148 L70.7538462,34.7704918 L70.0615385,34.7704918 L70.0615385,36.904918 C70.0615385,37.042623 70.0615385,37.1803279 70.1307692,37.1803279 C70.2,37.2491803 70.2692308,37.2491803 70.5461538,37.2491803 L70.6153846,37.2491803 L70.7538462,37.2491803 L70.7538462,38.0065574 L70.2692308,38.0065574 C69.7846154,38.0065574 69.4384615,37.9377049 69.2307692,37.7311475 C69.0923077,37.5934426 69.0230769,37.4557377 69.0230769,37.1803279 L69.0230769,34.7016393 L68.4692308,34.7016393 L68.4692308,34.7704918 L68.4692308,34.7704918 Z" id="Shape" fill="#F2254C"></path>
                    <path d="M74.0076923,36.904918 C74.1461538,36.6983607 74.2153846,36.4229508 74.2153846,36.0098361 C74.2153846,35.7344262 74.1461538,35.4590164 74.0769231,35.3213115 C73.9384615,34.9770492 73.6615385,34.7704918 73.3153846,34.7704918 C72.9,34.7704918 72.6923077,34.9770492 72.4846154,35.3213115 C72.4153846,35.5278689 72.3461538,35.7344262 72.3461538,36.0098361 C72.3461538,36.3540984 72.4153846,36.6295082 72.5538462,36.8360656 C72.6923077,37.042623 72.9692308,37.1803279 73.2461538,37.1803279 C73.6615385,37.2491803 73.8692308,37.1114754 74.0076923,36.904918 M74.9076923,34.4262295 C75.1846154,34.8393443 75.3923077,35.3213115 75.3923077,35.9409836 C75.3923077,36.5606557 75.2538462,37.1114754 74.9769231,37.5245902 C74.7,37.9377049 74.2846154,38.1442623 73.7307692,38.1442623 C73.3846154,38.1442623 73.1076923,38.0754098 72.9,37.9377049 C72.7615385,37.8688525 72.6230769,37.7311475 72.4846154,37.5245902 L72.4846154,38.0065574 L71.4461538,38.0065574 L71.4461538,32.5672131 L72.4846154,32.5672131 L72.4846154,34.495082 C72.6230769,34.2885246 72.7615385,34.1508197 72.9,34.0819672 C73.1076923,33.9442623 73.3153846,33.8754098 73.6615385,33.8754098 C74.1461538,33.8754098 74.5615385,34.0819672 74.9076923,34.4262295" id="Shape" fill="#F2254C"></path>
                    <path d="M78.6461538,36.904918 C78.7846154,36.6983607 78.9230769,36.3540984 78.9230769,35.9409836 C78.9230769,35.5278689 78.8538462,35.252459 78.6461538,34.9770492 C78.5076923,34.7704918 78.2307692,34.6327869 77.9538462,34.6327869 C77.6769231,34.6327869 77.4,34.7704918 77.2615385,34.9770492 C77.1230769,35.1836066 76.9846154,35.5278689 76.9846154,35.9409836 C76.9846154,36.3540984 77.0538462,36.6295082 77.2615385,36.904918 C77.4,37.1114754 77.6769231,37.2491803 77.9538462,37.2491803 C78.2307692,37.2491803 78.4384615,37.1114754 78.6461538,36.904918 M79.4769231,37.5245902 C79.1307692,37.9377049 78.6461538,38.1442623 77.8846154,38.1442623 C77.1923077,38.1442623 76.6384615,37.9377049 76.2923077,37.5245902 C75.9461538,37.1114754 75.8076923,36.6295082 75.8076923,36.0098361 C75.8076923,35.4590164 75.9461538,34.9081967 76.2923077,34.495082 C76.6384615,34.0819672 77.1230769,33.8754098 77.8846154,33.8754098 C78.5769231,33.8754098 79.1307692,34.0819672 79.4769231,34.495082 C79.8230769,34.9081967 79.9615385,35.4590164 79.9615385,36.0098361 C79.9615385,36.5606557 79.8230769,37.1114754 79.4769231,37.5245902" id="Shape" fill="#F2254C"></path>
                    <path d="M83.2846154,36.904918 C83.4230769,36.6983607 83.5615385,36.3540984 83.5615385,35.9409836 C83.5615385,35.5278689 83.4923077,35.252459 83.2846154,34.9770492 C83.1461538,34.7704918 82.8692308,34.6327869 82.5923077,34.6327869 C82.3153846,34.6327869 82.0384615,34.7704918 81.9,34.9770492 C81.7615385,35.1836066 81.6230769,35.5278689 81.6230769,35.9409836 C81.6230769,36.3540984 81.6923077,36.6295082 81.9,36.904918 C82.0384615,37.1114754 82.3153846,37.2491803 82.5923077,37.2491803 C82.8692308,37.2491803 83.1461538,37.1114754 83.2846154,36.904918 M84.1153846,37.5245902 C83.7692308,37.9377049 83.2846154,38.1442623 82.5230769,38.1442623 C81.8307692,38.1442623 81.2769231,37.9377049 80.9307692,37.5245902 C80.5846154,37.1114754 80.4461538,36.6295082 80.4461538,36.0098361 C80.4461538,35.4590164 80.5846154,34.9081967 80.9307692,34.495082 C81.2769231,34.0819672 81.7615385,33.8754098 82.5230769,33.8754098 C83.2153846,33.8754098 83.7692308,34.0819672 84.1153846,34.495082 C84.4615385,34.9081967 84.6,35.4590164 84.6,36.0098361 C84.6692308,36.5606557 84.4615385,37.1114754 84.1153846,37.5245902" id="Shape" fill="#F2254C"></path>
                    <path d="M85.4307692,32.5672131 L86.4692308,32.5672131 L86.4692308,35.5278689 L87.7846154,34.0131148 L89.1,34.0131148 L87.6461538,35.4590164 L89.1692308,38.0065574 L87.8538462,38.0065574 L86.8846154,36.2852459 L86.4692308,36.6983607 L86.4692308,38.0065574 L85.4307692,38.0065574 L85.4307692,32.5672131 L85.4307692,32.5672131 Z" id="Shape" fill="#F2254C"></path>
                    <path d="M89.6538462,36.904918 L90.7615385,36.904918 L90.7615385,38.0065574 L89.6538462,38.0065574 L89.6538462,36.904918 L89.6538462,36.904918 Z" id="Shape" fill="#F2254C"></path>
                    <path d="M94.2230769,35.3901639 C94.2230769,35.252459 94.1538462,35.1147541 94.0846154,34.9770492 C93.9461538,34.8393443 93.8076923,34.7016393 93.5307692,34.7016393 C93.1846154,34.7016393 92.9076923,34.9081967 92.7692308,35.252459 C92.7,35.4590164 92.6307692,35.6655738 92.6307692,36.0098361 C92.6307692,36.2852459 92.7,36.5606557 92.7692308,36.6983607 C92.9076923,37.042623 93.1153846,37.1803279 93.4615385,37.1803279 C93.7384615,37.1803279 93.8769231,37.1114754 94.0153846,36.9737705 C94.1538462,36.8360656 94.1538462,36.6983607 94.2230769,36.4229508 L95.3307692,36.4229508 C95.3307692,36.7672131 95.1923077,37.042623 94.9846154,37.3180328 C94.6384615,37.8 94.1538462,38.0065574 93.5307692,38.0065574 C92.9076923,38.0065574 92.4230769,37.8 92.0769231,37.4557377 C91.8,37.042623 91.5923077,36.5606557 91.5923077,35.9409836 C91.5923077,35.252459 91.7307692,34.7016393 92.0769231,34.2885246 C92.4230769,33.8754098 92.9076923,33.7377049 93.4615385,33.7377049 C93.9461538,33.7377049 94.3615385,33.8754098 94.7076923,34.0819672 C95.0538462,34.2885246 95.1923077,34.7016393 95.2615385,35.252459 L94.2230769,35.252459 L94.2230769,35.3901639 L94.2230769,35.3901639 Z" id="Shape" fill="#F2254C"></path>
                    <path d="M98.5846154,36.904918 C98.7230769,36.6983607 98.8615385,36.3540984 98.8615385,35.9409836 C98.8615385,35.5278689 98.7923077,35.252459 98.5846154,34.9770492 C98.4461538,34.7704918 98.1692308,34.6327869 97.8923077,34.6327869 C97.6153846,34.6327869 97.3384615,34.7704918 97.2,34.9770492 C97.0615385,35.1836066 96.9230769,35.5278689 96.9230769,35.9409836 C96.9230769,36.3540984 96.9923077,36.6295082 97.2,36.904918 C97.3384615,37.1114754 97.6153846,37.2491803 97.8923077,37.2491803 C98.1692308,37.2491803 98.3769231,37.1114754 98.5846154,36.904918 M99.4153846,37.5245902 C99.0692308,37.9377049 98.5846154,38.1442623 97.8230769,38.1442623 C97.1307692,38.1442623 96.5769231,37.9377049 96.2307692,37.5245902 C95.8846154,37.1114754 95.7461538,36.6295082 95.7461538,36.0098361 C95.7461538,35.4590164 95.8846154,34.9081967 96.2307692,34.495082 C96.5769231,34.0819672 97.0615385,33.8754098 97.8230769,33.8754098 C98.5153846,33.8754098 99.0692308,34.0819672 99.4153846,34.495082 C99.7615385,34.9081967 99.9,35.4590164 99.9,36.0098361 C99.9,36.5606557 99.7615385,37.1114754 99.4153846,37.5245902" id="Shape" fill="#F2254C"></path>
                    <path d="M105.784615,33.9442623 C105.992308,34.0131148 106.130769,34.1508197 106.269231,34.2885246 C106.407692,34.4262295 106.476923,34.6327869 106.476923,34.8393443 C106.476923,34.9770492 106.546154,35.1836066 106.546154,35.4590164 L106.546154,38.0065574 L105.438462,38.0065574 L105.438462,35.4590164 C105.438462,35.3213115 105.438462,35.1836066 105.369231,35.1147541 C105.3,34.9081967 105.092308,34.8393443 104.815385,34.8393443 C104.538462,34.8393443 104.330769,34.9770492 104.192308,35.1836066 C104.123077,35.3213115 104.123077,35.4590164 104.123077,35.6655738 L104.123077,38.0754098 L103.084615,38.0754098 L103.084615,35.6655738 C103.084615,35.4590164 103.084615,35.252459 103.015385,35.1147541 C102.946154,34.9081967 102.738462,34.8393443 102.461538,34.8393443 C102.184615,34.8393443 101.976923,34.9081967 101.838462,35.1147541 C101.769231,35.252459 101.769231,35.3901639 101.769231,35.5967213 L101.769231,38.0065574 L100.661538,38.0065574 L100.661538,33.9442623 L101.7,33.9442623 L101.7,34.5639344 C101.838462,34.357377 101.976923,34.2196721 102.046154,34.0819672 C102.253846,33.9442623 102.530769,33.8754098 102.876923,33.8754098 C103.153846,33.8754098 103.430769,33.9442623 103.638462,34.0819672 C103.776923,34.2196721 103.915385,34.357377 103.984615,34.5639344 C104.123077,34.357377 104.330769,34.1508197 104.469231,34.0131148 C104.676923,33.8754098 104.953846,33.8754098 105.230769,33.8754098 C105.438462,33.8754098 105.576923,33.8754098 105.784615,33.9442623" id="Shape" fill="#F2254C"></path>
                    <path d="M49.5,6.74754098 L48.3923077,6.74754098 L48.3923077,8.81311475 L48.8769231,8.81311475 C49.6384615,8.81311475 50.1230769,9.43278689 50.1230769,10.1901639 L50.1230769,34.7016393 C50.1230769,35.4590164 49.6384615,36.147541 48.8769231,36.147541 L28.3153846,36.147541 C25.8230769,36.147541 23.4,37.042623 21.6,38.695082 C19.8,37.042623 17.3769231,36.147541 14.8846154,36.147541 L3.66923077,36.147541 C2.90769231,36.147541 2.42307692,35.3901639 2.42307692,34.7016393 L2.42307692,10.1901639 C2.42307692,9.43278689 2.90769231,8.81311475 3.66923077,8.81311475 L4.15384615,8.81311475 L4.15384615,6.74754098 L3.04615385,6.74754098 C1.66153846,6.74754098 0.276923077,7.78032787 0.276923077,9.22622951 L0.276923077,35.4590164 C0.276923077,36.8360656 1.66153846,37.9377049 3.04615385,37.9377049 L14.7461538,37.9377049 C17.5153846,37.9377049 20.0076923,39.3836066 21.4615385,41.5180328 C22.9153846,39.3836066 25.4076923,37.9377049 28.1769231,37.9377049 L49.3615385,37.9377049 C50.7461538,37.9377049 52.0615385,36.8360656 52.0615385,35.4590164 L52.0615385,9.15737705 C52.2,7.78032787 50.8846154,6.74754098 49.5,6.74754098" id="Shape" fill="#3F76A5"></path>
                    <path d="M19.1769231,30.9836066 L5.60769231,30.9836066 L5.60769231,6.05901639 L19.1769231,6.05901639 L19.1769231,30.9836066 L19.1769231,30.9836066 Z M11.9769231,34.0131148 C11.3538462,34.0131148 10.8692308,33.5311475 10.8692308,32.9114754 C10.8692308,32.2918033 11.3538462,31.8098361 11.9769231,31.8098361 C12.6,31.8098361 13.0846154,32.2918033 13.0846154,32.9114754 C13.0846154,33.5311475 12.6,34.0131148 11.9769231,34.0131148 L11.9769231,34.0131148 Z M10.8,4.33770492 L14.2615385,4.33770492 L14.2615385,4.68196721 L10.8,4.68196721 L10.8,4.33770492 L10.8,4.33770492 Z M20.9076923,4.2 C20.9076923,3.51147541 20.3538462,2.89180328 19.5923077,2.89180328 L5.46923077,2.89180328 C4.77692308,2.89180328 4.15384615,3.44262295 4.15384615,4.2 L4.15384615,33.8065574 C4.15384615,34.495082 4.70769231,35.1147541 5.46923077,35.1147541 L19.5923077,35.1147541 C20.2846154,35.1147541 20.9076923,34.5639344 20.9076923,33.8065574 L20.9076923,4.2 L20.9076923,4.2 L20.9076923,4.2 Z" id="Shape" fill="#F2254C"></path>
                    <path d="M47.3538462,31.3278689 L23.3307692,31.3278689 L23.3307692,4.33770492 L47.3538462,4.33770492 L47.3538462,31.3278689 L47.3538462,31.3278689 Z M34.8923077,33.8754098 C34.2692308,33.8754098 33.7846154,33.3934426 33.7846154,32.7737705 C33.7846154,32.1540984 34.2692308,31.6721311 34.8923077,31.6721311 C35.5153846,31.6721311 36,32.1540984 36,32.7737705 C36,33.3934426 35.5153846,33.8754098 34.8923077,33.8754098 L34.8923077,33.8754098 Z M34.9615385,1.65245902 C35.1692308,1.65245902 35.3769231,1.85901639 35.3769231,2.06557377 C35.3769231,2.27213115 35.1692308,2.47868852 34.9615385,2.47868852 C34.7538462,2.47868852 34.5461538,2.27213115 34.5461538,2.06557377 C34.4769231,1.79016393 34.6846154,1.65245902 34.9615385,1.65245902 L34.9615385,1.65245902 Z M49.0846154,1.44590164 C49.0846154,0.757377049 48.5307692,0.206557377 47.8384615,0.206557377 L23.1923077,0.206557377 C22.5,0.206557377 21.9461538,0.757377049 21.9461538,1.44590164 L21.9461538,33.8754098 C21.9461538,34.5639344 22.5,35.1147541 23.1923077,35.1147541 L47.8384615,35.1147541 C48.5307692,35.1147541 49.0846154,34.5639344 49.0846154,33.8754098 L49.0846154,1.44590164 L49.0846154,1.44590164 L49.0846154,1.44590164 Z" id="Shape" fill="#F2254C"></path>
                </g>
            </g>
            <g id="icon_notices" sketch:type="MSLayerGroup" transform="translate(74.000000, 128.000000)">
                <g id="base-3"></g>
                <path d="M20.3980892,18.6138889 C20.4283439,18.4 20.4283439,18.1861111 20.4283439,17.9722222 L20.4283439,12.6555556 C20.4283439,9.63055556 18.522293,7.03333333 15.8296178,6.08611111 C15.8901274,5.87222222 15.9203822,5.65833333 15.9203822,5.41388889 C15.9203822,4.06944444 14.861465,3 13.5302548,3 C12.1990446,3 11.1401274,4.06944444 11.1401274,5.41388889 C11.1401274,5.65833333 11.1703822,5.87222222 11.2308917,6.08611111 C8.56847134,7.03333333 6.63216561,9.63055556 6.63216561,12.6555556 L6.63216561,17.9722222 C6.63216561,18.1861111 6.63216561,18.4 6.66242038,18.6138889 L4,21.2111111 C4,21.7916667 4.45382166,22.25 5.02866242,22.25 L11.1401274,22.25 C11.1401274,22.3722222 11.1098726,22.4638889 11.1098726,22.5861111 C11.1098726,23.9305556 12.1687898,25 13.5,25 C14.8312102,25 15.8901274,23.9305556 15.8901274,22.5861111 C15.8901274,22.4638889 15.8901274,22.3722222 15.8598726,22.25 L21.9713376,22.25 C22.5461783,22.25 23,21.7916667 23,21.2111111 L20.3980892,18.6138889 L20.3980892,18.6138889 Z M12,5.57142857 C12,4.71428571 12.6818182,4 13.5,4 C14.3181818,4 15,4.71428571 15,5.57142857 C15,5.71428571 14.9659091,5.85714286 14.9318182,6 C14.4545455,5.89285714 14.0113636,5.85714286 13.5,5.85714286 C13.0227273,5.85714286 12.5454545,5.89285714 12.0681818,6 C12.0340909,5.85714286 12,5.71428571 12,5.57142857 L12,5.57142857 Z" id="Shape" fill="#D1D1D1" sketch:type="MSShapeGroup"></path>
            </g>
            <g id="icon_22_bokksList" sketch:type="MSLayerGroup" transform="translate(110.000000, 128.000000)">
                <g id="base-3"></g>
                <g id="Shape-+-Shape-+-Shape" transform="translate(3.815789, 1.035714)" fill="#D1D1D1" sketch:type="MSShapeGroup">
                    <path d="M17.8097586,4.94113252 L5.30968695,0.299335614 C5.06527214,0.195414788 2.72587325,-0.635951822 0.910220381,1.0267814 C0.316641558,1.5810258 -0.0325224557,2.41239241 0.00239394568,3.24375902 C0.00239394568,3.38232013 0.037310347,3.52088123 0.037310347,3.65944233 L0.037310347,19.1090052 C0.037310347,19.4554079 0.246808755,19.7671704 0.561056367,19.8710912 L13.3404593,24.8592909 C13.4452085,24.8939312 13.5499577,24.9285714 13.6547069,24.9285714 C13.8292889,24.9285714 13.9689545,24.8939312 14.1086201,24.7900103 C14.3530349,24.6514492 14.4577841,24.374327 14.4577841,24.0972048 L14.4577841,23.7161618 L17.0066814,21.3606231 C17.146347,21.4645439 17.320929,21.5338244 17.5304274,21.5338244 C17.9843406,21.5338244 18.3684211,21.1527814 18.3684211,20.7024578 L18.3684211,5.70321858 C18.3335047,5.35681582 18.1240062,5.07969362 17.8097586,4.94113252 L17.8097586,4.94113252 Z M2.02754522,2.27383131 C3.14487007,1.26926333 4.61135892,1.82350773 4.68119173,1.85814801 L4.71610813,1.85814801 L16.273437,6.11890188 L13.7594561,8.47444061 L1.78313041,3.62480205 C1.71329761,3.52088123 1.67838121,3.38232013 1.64346481,3.20911875 C1.60854841,2.86271599 1.74821401,2.48167296 2.02754522,2.27383131 L2.02754522,2.27383131 Z M12.8167132,22.9540757 L1.67838121,18.589401 L1.67838121,5.3914561 L12.8167132,9.8946919 L12.8167132,22.9540757 L12.8167132,22.9540757 Z M14.4577841,9.30580722 L16.6924338,7.2273907 L16.6924338,20.1135731 L14.4577841,22.1919897 L14.4577841,9.30580722 C14.4577841,9.3404475 14.4577841,9.3404475 14.4577841,9.30580722 L14.4577841,9.30580722 Z" id="Shape"></path>
                    <path d="M4.41920607,12.1225923 L9.42429121,14.361262 C9.52243014,14.3967964 9.62056906,14.4323308 9.71870799,14.4323308 C10.0131248,14.4323308 10.3075415,14.2191242 10.4383934,13.8993143 C10.6019583,13.472901 10.4056805,12.9754188 10.0131248,12.7977467 L5.00803961,10.559077 C4.61548392,10.3814048 4.15750227,10.5946115 3.99393739,11.0210247 C3.83037252,11.447438 4.02665037,11.9449201 4.41920607,12.1225923 L4.41920607,12.1225923 Z" id="Shape"></path>
                    <path d="M4.41920607,16.0586826 L9.42429121,18.2973522 C9.52243014,18.3328866 9.62056906,18.3684211 9.71870799,18.3684211 C10.0131248,18.3684211 10.3075415,18.1552144 10.4383934,17.8354045 C10.6019583,17.4089912 10.4056805,16.9115091 10.0131248,16.7338369 L5.00803961,14.4951673 C4.61548392,14.3174951 4.15750227,14.5307017 3.99393739,14.957115 C3.83037252,15.3835282 4.02665037,15.8810104 4.41920607,16.0586826 L4.41920607,16.0586826 Z" id="Shape"></path>
                </g>
            </g>
            <g id="icon_22_FAQ" sketch:type="MSLayerGroup" transform="translate(151.000000, 128.000000)">
                <g id="base-3" fill="#FFFFFF" sketch:type="MSShapeGroup" fill-opacity="0">
                    <rect id="Rectangle-1" x="0" y="0" width="26" height="27"></rect>
                </g>
                <path d="M13,3.5 C7.47222222,3.5 3,7.97222222 3,13.5 C3,19.0277778 7.47222222,23.5 13,23.5 C18.5277778,23.5 23,19.0277778 23,13.5 C23,8 18.5277778,3.5 13,3.5 L13,3.5 Z M13.6666667,19.5 C13.3611111,19.7777778 12.9722222,19.9166667 12.5,19.9166667 L12.5,19.9166667 C12.0555556,19.9166667 11.6666667,19.7777778 11.3888889,19.5 C11.0833333,19.2222222 10.9444444,18.8333333 10.9444444,18.3888889 C10.9444444,17.9444444 11.0833333,17.5555556 11.3888889,17.2777778 C11.6944444,17 12.0833333,16.8611111 12.5277778,16.8611111 C13,16.8611111 13.3888889,17 13.6944444,17.2777778 C14,17.5555556 14.1388889,17.9444444 14.1388889,18.3888889 C14.1111111,18.8055556 13.9722222,19.2222222 13.6666667,19.5 L13.6666667,19.5 Z M16.3333333,11.8333333 C16.1666667,12.2222222 15.9722222,12.5555556 15.75,12.8333333 C15.5277778,13.1111111 15.2777778,13.3333333 15,13.5555556 C14.75,13.75 14.5277778,13.9444444 14.3055556,14.1388889 C14.1111111,14.3333333 13.9444444,14.5833333 13.8055556,14.8611111 C13.6666667,15.1111111 13.6111111,15.4166667 13.6111111,15.8611111 L13.6111111,16.1388889 L11.5277778,16.1388889 L11.2777778,16.1388889 L11.25,15.8888889 C11.2222222,15.6944444 11.2222222,15.5 11.2222222,15.3333333 C11.2222222,14.9722222 11.25,14.6388889 11.3333333,14.3611111 C11.4444444,13.9444444 11.6111111,13.5833333 11.8055556,13.25 C12,12.9444444 12.25,12.6666667 12.5,12.4444444 C12.75,12.2222222 12.9722222,12.0277778 13.1666667,11.8333333 C13.3611111,11.6388889 13.5277778,11.4722222 13.6666667,11.2777778 C13.7777778,11.1111111 13.8333333,10.9166667 13.8333333,10.6666667 C13.8333333,10.3333333 13.75,10.1111111 13.5833333,9.94444444 C13.4722222,9.80555556 13.1666667,9.69444444 12.6666667,9.69444444 C12.5,9.69444444 12.3333333,9.72222222 12.1666667,9.75 C11.9722222,9.77777778 11.8055556,9.83333333 11.6111111,9.88888889 C11.4166667,9.94444444 11.25,10.0277778 11.0833333,10.1111111 C10.9166667,10.1944444 10.75,10.2777778 10.6388889,10.3888889 L10.3888889,10.5555556 L9.30555556,8.5 L9.5,8.36111111 C9.94444444,8.05555556 10.4444444,7.80555556 11,7.63888889 C11.5833333,7.44444444 12.25,7.36111111 13.0277778,7.36111111 C14.0833333,7.36111111 14.9722222,7.61111111 15.6111111,8.16666667 C16.25,8.72222222 16.5833333,9.47222222 16.5833333,10.3611111 C16.5833333,10.9444444 16.5,11.4444444 16.3333333,11.8333333 L16.3333333,11.8333333 Z" id="Shape" fill="#F2254C" sketch:type="MSShapeGroup"></path>
            </g>
            <g id="icon_editor" sketch:type="MSLayerGroup" transform="translate(5.000000, 128.000000)">
                <g id="base"></g>
                <g id="Shape-+-Shape" transform="translate(0.000000, 2.000000)" fill="#D1D1D1" sketch:type="MSShapeGroup">
                    <path d="M19.5890411,19.1419355 C19.5890411,19.6612903 19.1616438,20.1064516 18.6630137,20.1064516 L3.95342466,20.1064516 C3.45479452,20.1064516 3.02739726,19.6612903 3.02739726,19.1419355 L3.02739726,3.82096774 C3.02739726,3.3016129 3.45479452,2.85645161 3.95342466,2.85645161 L16.7041096,2.85645161 L19.3753425,0.0741935484 C19.1260274,0.0370967742 18.9123288,0 18.6630137,0 L3.95342466,0 C1.92328767,0 0.284931507,1.70645161 0.284931507,3.82096774 L0.284931507,19.1419355 C0.284931507,21.2564516 1.92328767,22.9629032 3.95342466,22.9629032 L18.6630137,22.9629032 C20.6931507,22.9629032 22.3315068,21.2564516 22.3315068,19.1419355 L22.3315068,10.6467742 L19.5890411,13.5032258 L19.5890411,19.1419355 L19.5890411,19.1419355 Z" id="Shape"></path>
                    <path d="M11.4328767,11.0548387 L11.4328767,11.0548387 L9.54520548,17.1387097 L15.3863014,15.1725806 L25.9643836,4.15483871 L22.0109589,0.0370967742 L11.4328767,11.0548387 L11.4328767,11.0548387 Z M14.8876712,14.3193548 L10.9342466,15.6548387 L12.2164384,11.5370968 L14.8876712,14.3193548 L14.8876712,14.3193548 Z" id="Shape"></path>
                </g>
            </g>
            <g id="icon_selling" sketch:type="MSLayerGroup" transform="translate(39.000000, 128.000000)">
                <g id="base-2"></g>
                <g id="Group" transform="translate(0.000000, 2.000000)" fill="#D1D1D1" sketch:type="MSShapeGroup">
                    <ellipse id="Oval" cx="12.0383562" cy="19.7627119" rx="1.81643836" ry="1.90169492"></ellipse>
                    <path d="M20.7643836,17.8610169 C19.7671233,17.8610169 18.9479452,18.7186441 18.9479452,19.7627119 C18.9479452,20.8067797 19.7671233,21.6644068 20.7643836,21.6644068 C21.7616438,21.6644068 22.5808219,20.8067797 22.5808219,19.7627119 C22.5808219,18.6813559 21.7616438,17.8610169 20.7643836,17.8610169 L20.7643836,17.8610169 Z" id="Shape"></path>
                    <path d="M22.9013699,14.3932203 L10.2219178,14.3932203 L5.84109589,0.820338983 C5.69863014,0.410169492 5.37808219,0.149152542 4.95068493,0.149152542 L1.10410959,0.149152542 C0.605479452,0.149152542 0.178082192,0.596610169 0.178082192,1.11864407 C0.178082192,1.64067797 0.605479452,2.08813559 1.10410959,2.08813559 L4.30958904,2.08813559 L8.69041096,15.6610169 C8.83287671,16.0711864 9.15342466,16.3322034 9.58082192,16.3322034 L22.9369863,16.3322034 C23.4356164,16.3322034 23.8630137,15.8847458 23.8630137,15.3627119 C23.8273973,14.840678 23.4,14.3932203 22.9013699,14.3932203 L22.9013699,14.3932203 Z" id="Shape"></path>
                    <path d="M24.8958904,3.80338983 L9.1890411,2.38644068 L9.11780822,2.38644068 C8.65479452,2.38644068 8.40547945,2.75932203 8.58356164,3.20677966 L11.3260274,11.7457627 C11.5041096,12.2677966 12.0383562,12.6779661 12.5369863,12.6779661 L24.0054795,12.6779661 C24.5041096,12.6779661 24.9671233,12.2305085 25.0383562,11.7084746 L25.7506849,4.88474576 C25.7506849,4.32542373 25.3945205,3.84067797 24.8958904,3.80338983 L24.8958904,3.80338983 Z M23.2575342,10.7389831 L12.9287671,10.7389831 L10.9342466,4.51186441 L23.7917808,5.66779661 L23.2575342,10.7389831 L23.2575342,10.7389831 Z" id="Shape"></path>
                </g>
            </g>
            <g id="icon_w_prompt" sketch:type="MSLayerGroup" transform="translate(5.000000, 753.000000)" fill="#FFFFFF">
                <path d="M10,0 C4.47222222,0 0,4.47222222 0,10 C0,15.5277778 4.47222222,20 10,20 C15.5277778,20 20,15.5277778 20,10 C20,4.47222222 15.5277778,0 10,0 L10,0 Z M9.91666667,3.30555556 C10.7222222,3.30555556 11.3333333,3.91666667 11.3333333,4.72222222 C11.3333333,5.47222222 10.7222222,6.13888889 9.88888889,6.13888889 C9.13888889,6.13888889 8.47222222,5.5 8.47222222,4.72222222 C8.47222222,3.91666667 9.13888889,3.30555556 9.91666667,3.30555556 L9.91666667,3.30555556 Z M12.6388889,16.7777778 L7.5,16.7777778 L7.5,15.8611111 C8.66666667,15.7222222 8.77777778,15.6388889 8.77777778,14.2222222 L8.77777778,10.25 C8.77777778,8.91666667 8.63888889,8.86111111 7.66666667,8.69444444 L7.66666667,7.83333333 C8.86111111,7.69444444 10.1944444,7.44444444 11.3333333,7.11111111 L11.3333333,14.2222222 C11.3333333,15.6111111 11.4444444,15.6944444 12.6388889,15.8611111 L12.6388889,16.7777778 L12.6388889,16.7777778 Z" id="Shape" sketch:type="MSShapeGroup"></path>
            </g>
            <g id="icon_22_user" sketch:type="MSLayerGroup" transform="translate(99.000000, 465.000000)">
                <g id="base22-3" fill="#FFFFFF" sketch:type="MSShapeGroup" fill-opacity="0">
                    <rect id="Rectangle-4" x="0" y="0" width="22" height="22"></rect>
                </g>
                <path d="M18.6471896,15.4524144 C17.5127535,14.951152 15.7979083,13.6320403 13.2652139,13.1835423 C13.8983875,12.4976042 14.3996499,11.4159326 14.9009124,10.1232031 C15.1911169,9.3845006 15.1383525,8.75132699 15.1383525,7.85433104 C15.1383525,7.19477519 15.2702636,6.1131036 15.085588,5.53269445 C14.5315611,3.55402691 13.1333027,3 11.471222,3 C9.83552346,3 8.41088283,3.55402691 7.85685592,5.53269445 C7.69856252,6.1131036 7.83047369,7.16839295 7.83047369,7.85433104 C7.83047369,8.75132699 7.77770922,9.3845006 8.06791379,10.1232031 C8.56917624,11.4159326 9.04405645,12.4976042 9.7036123,13.1835423 C7.19730008,13.6320403 5.50883711,14.951152 4.37440105,15.4524144 C2.02638223,16.5077038 2,17.668522 2,17.668522 L2,19.6208073 L20.9952084,19.6208073 L20.9952084,17.668522 C21.0215906,17.668522 21.0215906,16.5077038 18.6471896,15.4524144 L18.6471896,15.4524144 Z" id="Shape" fill="#D1D1D1" sketch:type="MSShapeGroup"></path>
            </g>
            <g id="icon_22_unsale" sketch:type="MSLayerGroup" transform="translate(65.000000, 465.000000)">
                <g id="base22-3" fill="#FFFFFF" sketch:type="MSShapeGroup" fill-opacity="0">
                    <rect id="Rectangle-4" x="0" y="0" width="22" height="22"></rect>
                </g>
                <path d="M11,2 C6.025,2 2,6.025 2,11 C2,15.975 6.025,20 11,20 C15.975,20 20,15.975 20,11 C20,6.025 15.975,2 11,2 L11,2 Z M16,11.4 C16,11.95 15.55,12.4 15,12.4 L6.95,12.4 C6.4,12.4 5.95,11.95 5.95,11.4 L5.95,10.55 C5.95,10 6.4,9.55 6.95,9.55 L15,9.55 C15.55,9.55 16,10 16,10.55 L16,11.4 L16,11.4 Z" id="Shape" fill="#D1D1D1" sketch:type="MSShapeGroup"></path>
            </g>
            <g id="icon_22_delete" sketch:type="MSLayerGroup" transform="translate(35.000000, 465.000000)">
                <g id="base22-2" fill="#FFFFFF" sketch:type="MSShapeGroup" fill-opacity="0">
                    <rect id="Rectangle-4" x="0" y="0" width="22" height="22"></rect>
                </g>
                <g id="Group" transform="translate(2.000000, 2.000000)" fill="#D1D1D1" sketch:type="MSShapeGroup">
                    <path d="M17.88,4.93150685 L17.07,3.94520548 C16.92,3.77260274 16.59,3.62465753 16.35,3.62465753 L14.46,3.62465753 L14.46,2.26849315 C14.46,2.04657534 14.31,1.77534247 14.13,1.62739726 L12.75,0.493150685 C12.57,0.345205479 12.21,0.221917808 11.97,0.221917808 L6.27,0.221917808 C6,0.221917808 5.67,0.345205479 5.49,0.493150685 L4.2,1.55342466 C4.02,1.70136986 3.87,1.99726027 3.87,2.19452055 L3.87,3.62465753 L1.89,3.62465753 C1.62,3.62465753 1.32,3.77260274 1.17,3.94520548 L0.36,4.93150685 C0.21,5.10410959 0.3,5.25205479 0.57,5.25205479 L1.95,5.25205479 L1.95,17.5808219 C1.95,17.7780822 2.16,17.9506849 2.4,17.9506849 L15.96,17.9506849 C16.23,17.9506849 16.41,17.7780822 16.41,17.5808219 L16.41,5.25205479 L17.67,5.25205479 C17.91,5.25205479 18,5.10410959 17.88,4.93150685 L17.88,4.93150685 Z M5.76,3.5260274 L5.76,2.83561644 C5.76,2.63835616 5.91,2.34246575 6.09,2.19452055 L6.24,2.07123288 C6.42,1.92328767 6.78,1.8 7.02,1.8 L11.13,1.8 C11.4,1.8 11.73,1.92328767 11.91,2.07123288 L12.15,2.26849315 C12.33,2.41643836 12.48,2.71232877 12.48,2.90958904 L12.48,3.5260274 L12.48,3.6 L5.76,3.6 C5.76,3.6 5.76,3.55068493 5.76,3.5260274 L5.76,3.5260274 Z M14.46,5.62191781 L14.46,15.9780822 C14.46,16.1753425 14.25,16.3479452 14.01,16.3479452 L4.32,16.3479452 C4.05,16.3479452 3.87,16.1753425 3.87,15.9780822 L3.87,5.62191781 C3.87,5.42465753 4.08,5.25205479 4.32,5.25205479 L6.69,5.25205479 L14.07,5.25205479 C14.28,5.25205479 14.46,5.42465753 14.46,5.62191781 L14.46,5.62191781 Z" id="Shape"></path>
                    <path d="M6.18,6.31232877 L5.61,6.31232877 C5.34,6.31232877 5.16,6.48493151 5.16,6.68219178 L5.16,14.9178082 C5.16,15.1150685 5.37,15.2876712 5.61,15.2876712 L6.18,15.2876712 C6.45,15.2876712 6.63,15.1150685 6.63,14.9178082 L6.63,6.68219178 C6.63,6.48493151 6.42,6.31232877 6.18,6.31232877 L6.18,6.31232877 Z" id="Shape"></path>
                    <path d="M8.82,15.3123288 L9.39,15.3123288 C9.66,15.3123288 9.84,15.139726 9.84,14.9424658 L9.84,6.70684932 C9.84,6.50958904 9.63,6.3369863 9.39,6.3369863 L8.82,6.3369863 C8.55,6.3369863 8.37,6.50958904 8.37,6.70684932 L8.37,14.9424658 C8.37,15.139726 8.58,15.3123288 8.82,15.3123288 L8.82,15.3123288 Z" id="Shape"></path>
                    <path d="M12.06,15.3123288 L12.63,15.3123288 C12.9,15.3123288 13.08,15.139726 13.08,14.9424658 L13.08,6.70684932 C13.08,6.50958904 12.87,6.3369863 12.63,6.3369863 L12.06,6.3369863 C11.79,6.3369863 11.61,6.50958904 11.61,6.70684932 L11.61,14.9424658 C11.58,15.139726 11.79,15.3123288 12.06,15.3123288 L12.06,15.3123288 Z" id="Shape"></path>
                </g>
            </g>
            <g id="icon_22_export" sketch:type="MSLayerGroup" transform="translate(5.000000, 465.000000)">
                <g id="base22" fill="#FFFFFF" sketch:type="MSShapeGroup" fill-opacity="0">
                    <rect id="Rectangle-4" x="0" y="0" width="22" height="22"></rect>
                </g>
                <g id="Shape-+-Shape" transform="translate(0.000000, 1.000000)" fill="#D1D1D1" sketch:type="MSShapeGroup">
                    <path d="M22,11.4285714 L17.875,0 L14.1777778,0 L14.1777778,2.6031746 L16.5,2.6031746 L19.25,11.4285714 L14.0555556,11.4285714 L12.65,14.031746 L9.22777778,14.031746 L7.94444444,11.4285714 L2.75,11.4285714 L5.5,2.6031746 L7.82222222,2.6031746 L7.82222222,0 L4.125,0 L0,11.4285714 L0,20 L22,20 L22,11.4285714 Z" id="Shape"></path>
                    <path d="M9.56388889,5.96825397 L5.5,5.96825397 L10.9083333,12.4444444 L16.3166667,5.96825397 L12.2527778,5.96825397 L12.2527778,0 L9.56388889,0 L9.56388889,5.96825397 Z" id="Shape"></path>
                </g>
            </g>
            <g id="icon_14_cArrow" sketch:type="MSLayerGroup" transform="translate(5.000000, 924.000000)" fill="#FFFFFF">
                <path d="M7,0 C3.13055556,0 0,3.13055556 0,7 C0,10.8694444 3.13055556,14 7,14 C10.8694444,14 14,10.8694444 14,7 C14,3.13055556 10.8694444,0 7,0 L7,0 Z M7.56388889,9.68333333 L7.56388889,7.73888889 C6.59166667,7.73888889 5.96944444,7.77777778 5.56111111,7.83611111 C3.07222222,8.12777778 2.43055556,9.68333333 2.43055556,9.68333333 C2.43055556,5.89166667 7.56388889,5.48333333 7.56388889,5.48333333 L7.56388889,3.675 L12.0166667,6.66944444 L7.56388889,9.68333333 L7.56388889,9.68333333 Z" id="Shape" sketch:type="MSShapeGroup"></path>
            </g>
            <g id="icon_14_tips" sketch:type="MSLayerGroup" transform="translate(5.000000, 948.000000)" fill="#D1D1D1">
                <path d="M7,0 C3.13055556,0 0,3.13055556 0,7 C0,10.8694444 3.13055556,14 7,14 C10.8694444,14 14,10.8694444 14,7 C14,3.13055556 10.8694444,0 7,0 L7,0 Z M6.94166667,2.31388889 C7.50555556,2.31388889 7.93333333,2.74166667 7.93333333,3.30555556 C7.93333333,3.83055556 7.50555556,4.29722222 6.92222222,4.29722222 C6.39722222,4.29722222 5.93055556,3.85 5.93055556,3.30555556 C5.93055556,2.74166667 6.39722222,2.31388889 6.94166667,2.31388889 L6.94166667,2.31388889 Z M8.84722222,11.7444444 L5.25,11.7444444 L5.25,11.1027778 C6.06666667,11.0055556 6.14444444,10.9472222 6.14444444,9.95555556 L6.14444444,7.175 C6.14444444,6.24166667 6.04722222,6.20277778 5.36666667,6.08611111 L5.36666667,5.48333333 C6.20277778,5.38611111 7.13611111,5.21111111 7.93333333,4.97777778 L7.93333333,9.95555556 C7.93333333,10.9277778 8.01111111,10.9861111 8.84722222,11.1027778 L8.84722222,11.7444444 L8.84722222,11.7444444 Z" id="Shape" sketch:type="MSShapeGroup"></path>
            </g>
            <g id="icon_14_cancel" sketch:type="MSLayerGroup" transform="translate(29.000000, 948.000000)" fill="#D1D1D1">
                <path d="M7,0 C3.13055556,0 0,3.13055556 0,7 C0,10.8694444 3.13055556,14 7,14 C10.8694444,14 14,10.8694444 14,7 C14,3.13055556 10.8694444,0 7,0 L7,0 Z M8.90830235,7.46261875 L10.70095,9.25526642 C10.9515352,9.50585158 10.9515352,9.92991877 10.70095,10.1805039 L10.1805039,10.70095 C9.92991877,10.9515352 9.50585158,10.9515352 9.25526642,10.70095 L7.46261875,8.90830235 C7.21203359,8.6577172 6.78796641,8.6577172 6.53738125,8.90830235 L4.74473358,10.70095 C4.49414842,10.9515352 4.07008123,10.9515352 3.81949608,10.70095 L3.29904998,10.1805039 C3.04846482,9.92991877 3.04846482,9.50585158 3.29904998,9.25526642 L5.09169765,7.46261875 C5.3422828,7.21203359 5.3422828,6.78796641 5.09169765,6.53738125 L3.29904998,4.74473358 C3.04846482,4.49414842 3.04846482,4.07008123 3.29904998,3.81949608 L3.81949608,3.29904998 C4.07008123,3.04846482 4.49414842,3.04846482 4.74473358,3.29904998 L6.53738125,5.09169765 C6.78796641,5.3422828 7.21203359,5.3422828 7.46261875,5.09169765 L9.25526642,3.29904998 C9.50585158,3.04846482 9.92991877,3.04846482 10.1805039,3.29904998 L10.70095,3.81949608 C10.9515352,4.07008123 10.9515352,4.49414842 10.70095,4.74473358 L8.90830235,6.53738125 C8.6577172,6.78796641 8.6577172,7.21203359 8.90830235,7.46261875 L8.90830235,7.46261875 Z" id="Shape" sketch:type="MSShapeGroup"></path>
            </g>
            <g id="icon_14_close" sketch:type="MSLayerGroup" transform="translate(50.000000, 948.000000)">
                <rect id="Rectangle-10-Copy" opacity="0" fill="#FFFFFF" sketch:type="MSShapeGroup" x="0" y="0" width="14" height="14"></rect>
                <path d="M10.8076655,4.6641115 C11.0641115,4.40766551 11.0641115,3.9728223 10.8076655,3.71637631 L10.2836237,3.19233449 C10.0271777,2.9358885 9.59233449,2.9358885 9.3358885,3.19233449 L7.4738676,5.0543554 C7.2174216,5.31080139 6.7825784,5.31080139 6.5261324,5.0543554 L4.6641115,3.19233449 C4.40766551,2.9358885 3.9728223,2.9358885 3.71637631,3.19233449 L3.19233449,3.71637631 C2.9358885,3.9728223 2.9358885,4.40766551 3.19233449,4.6641115 L5.0543554,6.5261324 C5.31080139,6.7825784 5.31080139,7.2174216 5.0543554,7.4738676 L3.19233449,9.3358885 C2.9358885,9.59233449 2.9358885,10.0271777 3.19233449,10.2836237 L3.71637631,10.8076655 C3.9728223,11.0641115 4.40766551,11.0641115 4.6641115,10.8076655 L6.5261324,8.9456446 C6.7825784,8.68919861 7.2174216,8.68919861 7.4738676,8.9456446 L9.3358885,10.8076655 C9.59233449,11.0641115 10.0271777,11.0641115 10.2836237,10.8076655 L10.8076655,10.2836237 C11.0641115,10.0271777 11.0641115,9.59233449 10.8076655,9.3358885 L8.9456446,7.4738676 C8.68919861,7.2174216 8.68919861,6.7825784 8.9456446,6.5261324 L10.8076655,4.6641115 L10.8076655,4.6641115 Z" id="Shape" fill="#D1D1D1" sketch:type="MSShapeGroup"></path>
            </g>
            <g id="icon_42_phone" sketch:type="MSLayerGroup" transform="translate(2.000000, 1064.000000)">
                <rect id="Rectangle-10" fill="#FFFFFF" sketch:type="MSShapeGroup" x="0" y="0" width="42" height="42"></rect>
                <g id="Shape-+-Shape" transform="translate(12.000000, 3.000000)" sketch:type="MSShapeGroup">
                    <path d="M9,0 L10,0" id="Shape" fill="#D40F5A"></path>
                    <path d="M16.3430079,0 L2.65699208,0 C1.20316623,0 0,1.2299169 0,2.71606648 L0,34.2839335 C0,35.7700831 1.20316623,37 2.65699208,37 L16.3430079,37 C17.7968338,37 19,35.7700831 19,34.2839335 L19,2.71606648 C19,1.2299169 17.8469657,0 16.3430079,0 L16.3430079,0 Z M9.5,36 C8.69642857,36 8,35.3571429 8,34.5 C8,33.6964286 8.69642857,33 9.5,33 C10.3035714,33 11,33.6964286 11,34.5 C11,35.3571429 10.3571429,36 9.5,36 L9.5,36 Z M17,32 L2,32 L2,5 L17,5 L17,32 L17,32 Z" id="Shape" fill="#888888"></path>
                </g>
            </g>
            <g id="icon_42_phone_h" sketch:type="MSLayerGroup" transform="translate(94.000000, 1064.000000)">
                <rect id="Rectangle-10" fill="#FFFFFF" sketch:type="MSShapeGroup" x="0" y="0" width="42" height="42"></rect>
                <g id="Group-2-+-Group-+-Shape" transform="translate(0.000000, 2.000000)" sketch:type="MSShapeGroup">
                    <g id="Group-2">
                        <path d="M9,0 L10,0" id="Shape" fill="#D40F5A"></path>
                        <path d="M16.3430079,0 L2.65699208,0 C1.20316623,0 0,1.2299169 0,2.71606648 L0,34.2839335 C0,35.7700831 1.20316623,37 2.65699208,37 L16.3430079,37 C17.7968338,37 19,35.7700831 19,34.2839335 L19,2.71606648 C19,1.2299169 17.8469657,0 16.3430079,0 L16.3430079,0 Z M9.5,36 C8.69642857,36 8,35.3571429 8,34.5 C8,33.6964286 8.69642857,33 9.5,33 C10.3035714,33 11,33.6964286 11,34.5 C11,35.3571429 10.3571429,36 9.5,36 L9.5,36 Z M17,32 L2,32 L2,5 L17,5 L17,32 L17,32 Z" id="Shape" fill="#E1E1E1"></path>
                    </g>
                    <g id="Group" transform="translate(23.500000, 28.500000) rotate(-270.000000) translate(-23.500000, -28.500000) translate(14.000000, 10.000000)">
                        <path d="M9,-7.10542736e-15 L10,-7.10542736e-15" id="Shape" fill="#D40F5A"></path>
                        <rect id="Rectangle-8" fill="#FFFFFF" x="1" y="2" width="16" height="34"></rect>
                        <path d="M16.3430079,0 L2.65699208,0 C1.20316623,0 -3.55271368e-15,1.2299169 -3.55271368e-15,2.71606648 L-3.55271368e-15,34.2839335 C-3.55271368e-15,35.7700831 1.20316623,37 2.65699208,37 L16.3430079,37 C17.7968338,37 19,35.7700831 19,34.2839335 L19,2.71606648 C19,1.2299169 17.8469657,0 16.3430079,0 L16.3430079,0 Z M9.5,36 C8.69642857,36 8,35.3571429 8,34.5 C8,33.6964286 8.69642857,33 9.5,33 C10.3035714,33 11,33.6964286 11,34.5 C11,35.3571429 10.3571429,36 9.5,36 L9.5,36 Z M17,32 L2,32 L2,5 L17,5 L17,32 L17,32 Z" id="Shape" fill="#888888"></path>
                    </g>
                    <path d="M20.0198915,9.49294756 L20.079566,9.49294756 C23.6003617,9.49294756 26.4647378,12.3573237 26.4647378,15.8781193 L26.4647378,15.8980108 L26.3056058,15.8980108 L26.2459313,15.8980108 L24.3761302,15.8980108 L27.6980108,19.2 L31,15.8980108 L29.1301989,15.8980108 L29.0705244,15.8980108 L28.9113924,15.8980108 L28.9113924,15.8781193 C28.9113924,10.9848101 24.9529837,7.02640145 20.0596745,7.02640145 L20,7.02640145 L20,9.49294756 L20.0198915,9.49294756 Z" id="Shape" fill="#888888"></path>
                </g>
            </g>
            <g id="icon_42_pad" sketch:type="MSLayerGroup" transform="translate(186.000000, 1064.000000)">
                <rect id="Rectangle-11" fill="#FFFFFF" sketch:type="MSShapeGroup" x="0" y="0" width="42" height="42"></rect>
                <path d="M32.5972222,2 L9.79722222,2 C8.26666667,2 7,3.26666667 7,4.79722222 L7,37.2027778 C7,38.7333333 8.26666667,40 9.79722222,40 L32.5972222,40 C34.1277778,40 35.3944444,38.7333333 35.3944444,37.2027778 L35.3944444,4.79722222 C35.3944444,3.26666667 34.1277778,2 32.5972222,2 L32.5972222,2 Z M21.25,38.8916667 C20.7222222,38.8916667 20.3,38.4694444 20.3,37.9416667 C20.3,37.4138889 20.7222222,36.9916667 21.25,36.9916667 C21.7777778,36.9916667 22.2,37.4138889 22.2,37.9416667 C22.2,38.4694444 21.7777778,38.8916667 21.25,38.8916667 L21.25,38.8916667 Z M32.7555556,35.7777778 L9.58611111,35.7777778 L9.58611111,6.22222222 L32.7555556,6.22222222 L32.7555556,35.7777778 L32.7555556,35.7777778 Z" id="Shape" fill="#888888" sketch:type="MSShapeGroup"></path>
            </g>
            <g id="icon_42_pad_h" sketch:type="MSLayerGroup" transform="translate(278.000000, 1064.000000)">
                <rect id="Rectangle-12" fill="#FFFFFF" sketch:type="MSShapeGroup" x="0" y="0" width="42" height="42"></rect>
                <g id="Shape-+-Shape-+-Rectangle-9-+-Shape-2" sketch:type="MSShapeGroup">
                    <path d="M25.5972222,0 L2.79722222,0 C1.26666667,0 0,1.26666667 0,2.79722222 L0,35.2027778 C0,36.7333333 1.26666667,38 2.79722222,38 L25.5972222,38 C27.1277778,38 28.3944444,36.7333333 28.3944444,35.2027778 L28.3944444,2.79722222 C28.3944444,1.26666667 27.1277778,0 25.5972222,0 L25.5972222,0 Z M14.25,36.8916667 C13.7222222,36.8916667 13.3,36.4694444 13.3,35.9416667 C13.3,35.4138889 13.7222222,34.9916667 14.25,34.9916667 C14.7777778,34.9916667 15.2,35.4138889 15.2,35.9416667 C15.2,36.4694444 14.7777778,36.8916667 14.25,36.8916667 L14.25,36.8916667 Z M25.7555556,33.7777778 L2.58611111,33.7777778 L2.58611111,4.22222222 L25.7555556,4.22222222 L25.7555556,33.7777778 L25.7555556,33.7777778 Z" id="Shape" fill="#E1E1E1"></path>
                    <path d="M29.0162967,5.04719592 L29.0651869,5.04719592 C31.9497081,5.04719592 34.2964371,7.393925 34.2964371,10.2784461 L34.2964371,10.2947429 L34.1660633,10.2947429 L34.1171731,10.2947429 L32.5852805,10.2947429 L35.3068344,13 L38.0120915,10.2947429 L36.4801989,10.2947429 L36.4313087,10.2947429 L36.3009349,10.2947429 L36.3009349,10.2784461 C36.3009349,6.26945065 33.0578857,3.02640145 29.0488902,3.02640145 L29,3.02640145 L29,5.04719592 L29.0162967,5.04719592 Z" id="Shape" fill="#888888"></path>
                    <g id="Rectangle-9-+-Shape-2" transform="translate(4.000000, 13.000000)">
                        <rect id="Rectangle-9" fill="#FFFFFF" x="1" y="2" width="36" height="26"></rect>
                        <path d="M30.419429,-4 L7.77779327,-4 C6.25786865,-4 5,-2.73990741 5,-1.21729552 L5,31.0200733 C5,32.5426852 6.25786865,33.8027778 7.77779327,33.8027778 L30.419429,33.8027778 C31.9393536,33.8027778 33.1972222,32.5426852 33.1972222,31.0200733 L33.1972222,-1.21729552 C33.1972222,-2.73990741 31.9393536,-4 30.419429,-4 L30.419429,-4 Z M19.1510223,32.7001968 C18.6269104,32.7001968 18.2076208,32.2801659 18.2076208,31.7551273 C18.2076208,31.2300887 18.6269104,30.8100579 19.1510223,30.8100579 C19.6751342,30.8100579 20.0944238,31.2300887 20.0944238,31.7551273 C20.0944238,32.2801659 19.6751342,32.7001968 19.1510223,32.7001968 L19.1510223,32.7001968 Z M30.5766625,29.6024691 L7.56814849,29.6024691 L7.56814849,0.200308642 L30.5766625,0.200308642 L30.5766625,29.6024691 L30.5766625,29.6024691 Z" id="Shape-2" fill="#888888" transform="translate(19.098611, 14.901389) rotate(-270.000000) translate(-19.098611, -14.901389) "></path>
                    </g>
                </g>
            </g>
            <g id="icon_42_pc" sketch:type="MSLayerGroup" transform="translate(370.000000, 1064.000000)">
                <rect id="Rectangle-13" fill="#FFFFFF" sketch:type="MSShapeGroup" x="0" y="0" width="42" height="42"></rect>
                <path d="M38.9285714,5 L2.73333333,5 C2.31428571,5 2,5.31428571 2,5.73333333 L2,32.552381 C2,32.9714286 2.31428571,33.2857143 2.73333333,33.2857143 L17.5047619,33.2857143 L17.5047619,35.4857143 L14.2047619,37.5809524 C13.8380952,37.7904762 13.8904762,38 14.3095238,38 L27.4571429,38 C27.8761905,38 27.9285714,37.8428571 27.5619048,37.5809524 L24.1571429,35.4333333 L24.1571429,33.2857143 L38.9285714,33.2857143 C39.347619,33.2857143 39.6619048,32.9714286 39.6619048,32.552381 L39.6619048,5.73333333 C39.6619048,5.31428571 39.347619,5 38.9285714,5 L38.9285714,5 Z M36.5190476,25.7428571 C36.5190476,26.1619048 36.2047619,26.4761905 35.7857143,26.4761905 L5.87619048,26.4761905 C5.45714286,26.4761905 5.14285714,26.1619048 5.14285714,25.7428571 L5.14285714,8.92857143 C5.14285714,8.50952381 5.45714286,8.1952381 5.87619048,8.1952381 L35.7857143,8.1952381 C36.2047619,8.1952381 36.5190476,8.50952381 36.5190476,8.92857143 L36.5190476,25.7428571 L36.5190476,25.7428571 Z" fill="#888888" sketch:type="MSShapeGroup"></path>
            </g>
            <g id="icon_40_ok" sketch:type="MSLayerGroup" transform="translate(4.000000, 829.000000)" fill="#47AC94">
                <path d="M32.8,5.68434189e-14 L7.2,5.68434189e-14 C3.2,5.68434189e-14 0,3.2 0,7.2 L0,32.8 C0,36.8 3.2,40 7.2,40 L32.8,40 C36.8,40 40,36.8 40,32.8 L40,7.2 C40,3.2 36.7,5.68434189e-14 32.8,5.68434189e-14 L32.8,5.68434189e-14 Z M32.6,14.9 L18.8,28.8 C18.4,29.2 17.6,29.5 17,29.5 L15.8,29.5 C15.2,29.5 14.4,29.2 14,28.8 L7.5,22.2 C7.1,21.8 7.1,21.1 7.5,20.7 L10.1,18.1 C10.5,17.7 11.2,17.7 11.6,18.1 L15.8,22.3 C16.2,22.7 16.9,22.7 17.3,22.3 L28.7,10.9 C29.1,10.5 29.8,10.5 30.2,10.9 L32.8,13.4 C33,13.8 33,14.5 32.6,14.9 L32.6,14.9 Z" id="XMLID_8_" sketch:type="MSShapeGroup"></path>
            </g>
            <g id="icon_40_notyet" sketch:type="MSLayerGroup" transform="translate(66.000000, 829.000000)" fill="#F2254C">
                <path d="M7.2,0 C3.2,0 0,3.2 0,7.2 L0,32.8 C0,36.8 3.2,40 7.2,40 L32.8,40 C36.8,40 40,36.8 40,32.8 L40,7.2 C40,3.3 36.7,0 32.8,0 L7.2,0 Z M21.4,31.7 C20.8,32.3 20,32.5 19.1,32.5 L19.1,32.5 C18.2,32.5 17.4,32.2 16.9,31.7 C16.3,31.1 16,30.3 16,29.5 C16,28.6 16.3,27.8 16.9,27.3 C17.5,26.7 18.3,26.5 19.2,26.5 C20.1,26.5 20.9,26.8 21.5,27.3 C22.1,27.9 22.4,28.6 22.4,29.5 C22.3,30.4 22,31.2 21.4,31.7 L21.4,31.7 Z M26.8,16.5 C26.5,17.3 26.1,17.9 25.6,18.5 C25.1,19 24.6,19.5 24.1,19.9 C23.6,20.3 23.1,20.7 22.7,21.1 C22.3,21.5 22,22 21.7,22.5 C21.4,23 21.3,23.6 21.3,24.5 L21.3,25.1 L17.1,25.1 L16.6,25.1 L16.6,24.6 C16.6,24.2 16.5,23.8 16.5,23.5 C16.5,22.8 16.6,22.1 16.7,21.5 C16.9,20.7 17.2,19.9 17.7,19.3 C18.1,18.7 18.6,18.1 19.1,17.7 C19.6,17.3 20,16.9 20.5,16.5 C20.9,16.1 21.2,15.8 21.5,15.4 C21.7,15.1 21.8,14.7 21.8,14.2 C21.8,13.5 21.6,13.1 21.3,12.8 C21.1,12.5 20.5,12.3 19.4,12.3 C19.1,12.3 18.8,12.3 18.4,12.4 C18,12.5 17.7,12.6 17.3,12.7 C16.9,12.8 16.6,13 16.2,13.2 C15.9,13.4 15.6,13.6 15.3,13.7 L14.8,14.1 L12.7,10 L13.1,9.7 C14,9.1 15,8.6 16.1,8.2 C17.2,7.8 18.6,7.6 20.2,7.6 C22.3,7.6 24.1,8.1 25.3,9.2 C26.6,10.3 27.2,11.8 27.2,13.6 C27.2,14.7 27.1,15.6 26.8,16.5 L26.8,16.5 Z" id="Shape" sketch:type="MSShapeGroup"></path>
            </g>
            <g id="booksUpLoadFinger" sketch:type="MSLayerGroup" transform="translate(713.000000, 1060.000000)">
                <g id="Group" sketch:type="MSShapeGroup">
                    <path d="M32.9,23 L32.9,20.5 L30.4,20.5 L30.4,23 L27.9,23 L27.9,20.5 L27.9,18 L22.9,18 L22.9,23 L20.4,23 L20.4,17.9 L15.4,17.9 L15.4,23 L12.9,23 L12.9,2.7 L7.9,2.7 L7.9,17.9 L7.9,35.7 L5.4,35.7 L5.4,28.1 L2.9,28.1 L2.9,38.2 L5.4,38.2 L5.4,43.3 L7.9,43.3 L7.9,48.3 L10.4,48.3 L10.4,53.4 L30.4,53.4 L30.4,48.3 L32.9,48.3 L32.9,40.7 L35.4,40.7 L35.4,23 L32.9,23 Z" id="Shape" fill="#FFFFFF"></path>
                    <path d="M12.9,0.2 L7.9,0.2 L7.9,2.7 L12.9,2.7 L12.9,0.2 L12.9,0.2 Z M15.4,23 L15.4,17.9 L20.4,17.9 L20.4,15.4 L15.4,15.4 L15.4,2.7 L12.9,2.7 L12.9,23 L15.4,23 L15.4,23 Z M0.4,28.1 L0.4,38.2 L2.9,38.2 L2.9,28.1 L0.4,28.1 L0.4,28.1 Z M27.9,18 L27.9,20.5 L27.9,23 L30.4,23 L30.4,20.5 L32.9,20.5 L32.9,18 L27.9,18 L27.9,18 Z M22.8,15.5 L22.8,18 L20.4,18 L20.4,23.1 L22.9,23.1 L22.9,18.1 L27.9,18.1 L27.9,15.6 L22.8,15.6 L22.8,15.5 Z M32.9,20.5 L32.9,23 L35.4,23 L35.4,20.5 L32.9,20.5 L32.9,20.5 Z M35.4,23 L35.4,40.7 L37.9,40.7 L37.9,23 L35.4,23 L35.4,23 Z M32.9,48.3 L35.4,48.3 L35.4,40.7 L32.9,40.7 L32.9,48.3 L32.9,48.3 Z M30.4,53.4 L10.4,53.4 L10.4,48.3 L7.9,48.3 L7.9,55.9 L33,55.9 L33,48.3 L30.5,48.3 L30.5,53.4 L30.4,53.4 Z M2.9,38.2 L2.9,43.3 L5.4,43.3 L5.4,38.2 L2.9,38.2 L2.9,38.2 Z M5.4,43.3 L5.4,48.4 L7.9,48.4 L7.9,43.3 L5.4,43.3 L5.4,43.3 Z M5.4,35.7 L7.9,35.7 L7.9,2.7 L5.4,2.7 L5.4,25.5 L2.9,25.5 L2.9,28 L5.4,28 L5.4,35.7 L5.4,35.7 Z" id="Shape" fill="#221F20"></path>
                </g>
            </g>
            <g id="booksUpLoadIcon_2" sketch:type="MSLayerGroup" transform="translate(600.000000, 1060.000000)" fill="#FFFFFF">
                <rect id="Rectangle-path" sketch:type="MSShapeGroup" x="11" y="14" width="26" height="4"></rect>
                <rect id="Rectangle-path" sketch:type="MSShapeGroup" x="11" y="24" width="26" height="4"></rect>
                <rect id="Rectangle-path" sketch:type="MSShapeGroup" x="11" y="34" width="26" height="4"></rect>
                <rect id="Rectangle-path" sketch:type="MSShapeGroup" x="11" y="44" width="26" height="4"></rect>
                <path d="M43.2713755,0 L4.72862454,0 C2.14126394,0 0,2.1 0,4.6375 L0,58.3625 C0,60.9 2.14126394,63 4.72862454,63 L43.2713755,63 C45.8587361,63 48,60.9 48,58.3625 L48,4.6375 C48,2.1 45.8587361,0 43.2713755,0 L43.2713755,0 Z M24.0892193,61.1625 C23.197026,61.1625 22.4832714,60.4625 22.4832714,59.5875 C22.4832714,58.7125 23.197026,58.0125 24.0892193,58.0125 C24.9814126,58.0125 25.6951673,58.7125 25.6951673,59.5875 C25.6951673,60.4625 24.9814126,61.1625 24.0892193,61.1625 L24.0892193,61.1625 Z M40.8624535,56 L7.04832714,56 L7.04832714,7 L40.8624535,7 L40.8624535,56 L40.8624535,56 Z" id="Shape-3" sketch:type="MSShapeGroup"></path>
            </g>
            <g id="booksUpLoadIcon_1" sketch:type="MSLayerGroup" transform="translate(497.000000, 1060.000000)" fill="#FFFFFF">
                <path d="M12.9310345,0 L12.9310345,0 L12.9310345,9.1875 L12.9310345,13.2125 L8.96551724,13.2125 L0,13.2125 L0,63 L45,63 L45,0 L12.9310345,0 L12.9310345,0 Z M34.6706876,36.53125 L28.3831032,36.53125 L25.9190499,36.53125 L25.9190499,50.4322917 C25.9190499,51.8489583 24.8144743,53 23.4549966,53 L20.5661065,53 C19.2066288,53 18.1020532,51.8489583 18.1020532,50.4322917 L18.1020532,36.53125 L15.6379999,36.53125 L9.35041557,36.53125 C7.99093788,36.53125 7.5661011,35.6458333 8.50074201,34.5833333 L20.3961718,19.796875 C21.2458454,18.734375 22.6902904,18.734375 23.539964,19.796875 L35.4353938,34.5833333 C36.455002,35.6458333 36.0301653,36.53125 34.6706876,36.53125 L34.6706876,36.53125 Z" id="Shape" sketch:type="MSShapeGroup"></path>
                <path d="M9,0 L0,9 L9,9 L9,0 Z" id="Shape" sketch:type="MSShapeGroup"></path>
            </g>
            <g id="userPassword" sketch:type="MSLayerGroup" transform="translate(16.000000, 1190.000000)" fill="#D1D1D1">
                <path d="M100.748148,67.5972222 L100.748148,42.1944444 C100.748148,18.9444444 81.8444444,0 58.6444444,0 L57.7851852,0 L56.9259259,0 C33.7259259,0 14.8222222,18.9444444 14.8222222,42.1944444 L14.8222222,67.5972222 L0,67.5972222 L0,155 L116,155 L116,67.5972222 L100.748148,67.5972222 L100.748148,67.5972222 Z M71,139 L45,139 L51.3414634,110.661224 C47.5365854,108.281633 45,104.171429 45,99.1959184 C45,91.8408163 50.7073171,86 57.8943089,86 C65.0813008,86 70.7886179,91.8408163 70.7886179,99.1959184 C70.7886179,103.955102 68.2520325,108.281633 64.4471545,110.661224 L71,139 L71,139 Z M80,68 L36,68 L36,42.3240741 C36,30.5740741 45.5369458,21 57.2413793,21 L58.3251232,21 L58.7586207,21 C70.4630542,21 80,30.5740741 80,42.3240741 L80,68 L80,68 Z" id="Shape" sketch:type="MSShapeGroup"></path>
            </g>
            <g id="userInfo" sketch:type="MSLayerGroup" transform="translate(211.000000, 1191.000000)" fill="#D1D1D1">
                <path d="M152.45321,114.826296 C142.064164,110.235787 126.359792,98.1555014 103.165643,94.0482041 C108.96418,87.7664554 113.554689,77.8606208 118.145198,66.0219405 C120.80286,59.2569803 120.319649,53.458443 120.319649,45.2438485 C120.319649,39.2037055 121.527678,29.2978709 119.836438,23.9825451 C114.762717,5.86211599 101.957614,0.788395855 86.7364538,0.788395855 C71.7568991,0.788395855 58.7101902,5.86211599 53.63647,23.9825451 C52.1868357,29.2978709 53.3948643,38.9620998 53.3948643,45.2438485 C53.3948643,53.458443 52.9116529,59.2569803 55.5693158,66.0219405 C60.1598245,77.8606208 64.5087275,87.7664554 70.5488705,94.0482041 C47.596327,98.1555014 32.1335609,110.235787 21.7445149,114.826296 C0.241605721,124.490525 0,135.121177 0,135.121177 L0,153 L173.956119,153 L173.956119,135.121177 C174.197725,135.121177 174.197725,124.490525 152.45321,114.826296 L152.45321,114.826296 Z" id="Shape" sketch:type="MSShapeGroup"></path>
            </g>
            <text id="20x20" sketch:type="MSTextLayer" font-family="Helvetica" font-size="9" font-weight="normal" fill="#A8B1BB">
                <tspan x="5" y="740">20x20</tspan>
            </text>
            <text id="40x40" sketch:type="MSTextLayer" font-family="Helvetica" font-size="9" font-weight="normal" fill="#A8B1BB">
                <tspan x="5" y="808">40x40</tspan>
            </text>
            <text id="14x14" sketch:type="MSTextLayer" font-family="Helvetica" font-size="9" font-weight="normal" fill="#A8B1BB">
                <tspan x="5" y="902">14x14</tspan>
            </text>
            <text id="42x42" sketch:type="MSTextLayer" font-family="Helvetica" font-size="9" font-weight="normal" fill="#A8B1BB">
                <tspan x="5" y="1046">42x42</tspan>
            </text>
            <text id="26x26" sketch:type="MSTextLayer" font-family="Helvetica" font-size="9" font-weight="normal" fill="#A8B1BB">
                <tspan x="5" y="121">26x26</tspan>
            </text>
            <text id="22x22" sketch:type="MSTextLayer" font-family="Helvetica" font-size="9" font-weight="normal" fill="#A8B1BB">
                <tspan x="5" y="441">22x22</tspan>
            </text>
        </g>
    </g>
</svg>