<?xml version="1.0" encoding="UTF-8" standalone="no"?>
<svg width="866px" height="1280px" viewBox="0 0 866 1280" version="1.1" xmlns="http://www.w3.org/2000/svg" xmlns:xlink="http://www.w3.org/1999/xlink" xmlns:sketch="http://www.bohemiancoding.com/sketch/ns">
    <!-- Generator: Sketch 3.0.4 (8054) - http://www.bohemiancoding.com/sketch -->
    <title>device_ipad</title>
    <desc>Created with Sketch.</desc>
    <defs>
        <linearGradient x1="49.9982533%" y1="100%" x2="49.9982533%" y2="-0.00280210158%" id="linearGradient-1">
            <stop stop-color="#FFFFFF" offset="0%"></stop>
            <stop stop-color="#EDEDEB" offset="100%"></stop>
        </linearGradient>
        <linearGradient x1="92.0186769%" y1="92.0065935%" x2="7.43236167%" y2="7.44284649%" id="linearGradient-2">
            <stop stop-color="#D4D4D4" offset="0%"></stop>
            <stop stop-color="#FFFFFF" offset="70.45%"></stop>
        </linearGradient>
        <linearGradient x1="14.657924%" y1="14.6678173%" x2="85.3519733%" y2="85.3309461%" id="linearGradient-3">
            <stop stop-color="#D4D4D4" offset="0%"></stop>
            <stop stop-color="#666666" offset="100%"></stop>
        </linearGradient>
    </defs>
    <g id="Page-1" stroke="none" stroke-width="1" fill="none" fill-rule="evenodd" sketch:type="MSPage">
        <g id="device_ipad" sketch:type="MSLayerGroup">
            <g id="Page-1" sketch:type="MSShapeGroup">
                <g id="device_ipad">
                    <g id="Group">
                        <path d="M865.645099,1220.26667 C865.645099,1253.12 838.769155,1280 805.92078,1280 L60.0792199,1280 C27.2308445,1280 0.354901087,1253.12 0.354901087,1220.26667 L0.354901087,59.7333333 C0.354901087,26.88 27.2308445,0 60.0792199,0 L805.922913,0 C838.771289,0 865.647232,26.88 865.647232,59.7333333 L865.647232,1220.26667 L865.645099,1220.26667 L865.645099,1220.26667 Z" id="Shape" fill="#E6E6E6"></path>
                        <path d="M6.75393525,1220.26667 L6.75393525,59.7333333 C6.75393525,30.3253333 30.675658,6.4 60.0792199,6.4 L805.922913,6.4 C835.326475,6.4 859.248197,30.3253333 859.248197,59.7333333 L859.248197,1220.26667 C859.248197,1249.67466 835.326475,1273.6 805.922913,1273.6 L60.0792199,1273.6 C30.675658,1273.6 6.75393525,1249.67466 6.75393525,1220.26667 Z" id="Shape" fill="#FFFFFF"></path>
                        <path d="M819.785354,1150.5024 C819.785354,1153.15627 817.635279,1155.30667 814.981813,1155.30667 L48.7017373,1155.30667 C46.0482711,1155.30667 43.8981955,1153.15627 43.8981955,1150.5024 L43.8981955,128.533333 C43.8981955,125.8816 46.0482711,123.7312 48.7017373,123.7312 L814.981813,123.7312 C817.635279,123.7312 819.785354,125.8816 819.785354,128.533333 L819.785354,1150.5024 L819.785354,1150.5024 Z" id="Shape" fill="#FFFFFF"></path>
                        <g transform="translate(399.938324, 1186.133333)">
                            <ellipse id="Oval" fill="#F0F0F0" cx="32.6670694" cy="32.672" rx="32.6670694" ry="32.672"></ellipse>
                            <path d="M32.3001914,63.8186667 C15.4664656,63.8165333 1.77253246,50.1141333 1.77253246,33.2736 C1.77253246,16.4330667 15.4685986,2.7328 32.3001914,2.7328 C49.1403164,2.7328 62.8385155,16.4330667 62.8385155,33.2736 C62.8385155,50.1162667 49.1403164,63.8186667 32.3001914,63.8186667 L32.3001914,63.8186667 L32.3001914,63.8186667 Z" id="Shape" fill="#E6E6E6"></path>
                        </g>
                        <path d="M432.084938,1221.76639 C421.436945,1221.76639 411.251816,1220.95574 401.717255,1219.5456 C401.794043,1236.32213 415.453848,1249.94987 432.240648,1249.95199 C449.048778,1249.95199 462.725646,1236.3008 462.774706,1219.49867 C453.146293,1220.93866 442.852379,1221.76639 432.084938,1221.76639 L432.084938,1221.76639 L432.084938,1221.76639 Z" id="Shape" fill="url(#linearGradient-1)"></path>
                        <path d="M438.944702,1231.77813 L425.18038,1231.77813 C422.238958,1231.77813 419.841452,1229.38453 419.841452,1226.44053 L419.841452,1212.67414 C419.841452,1209.73227 422.238958,1207.33867 425.18038,1207.33867 L438.944702,1207.33867 C441.886125,1207.33867 444.281497,1209.73227 444.281497,1212.67414 L444.281497,1226.44053 C444.281497,1229.38241 441.886125,1231.77813 438.944702,1231.77813 L438.944702,1231.77813 L438.944702,1231.77813 Z M425.178247,1208.93867 C423.119891,1208.93867 421.439078,1210.61547 421.439078,1212.672 L421.439078,1226.43841 C421.439078,1228.49921 423.119891,1230.17387 425.178247,1230.17387 L438.94257,1230.17387 C441.000926,1230.17387 442.673206,1228.49921 442.673206,1226.43841 L442.673206,1212.672 C442.673206,1210.61547 441.000926,1208.93867 438.94257,1208.93867 L425.178247,1208.93867 L425.178247,1208.93867 Z" id="Shape" fill="url(#linearGradient-2)"></path>
                        <g transform="translate(425.534461, 58.667556)" id="Shape">
                            <path d="M-0.422336255,8.19537703 C-0.422336255,12.9527104 3.43841436,16.816177 8.19716277,16.816177 C12.9516452,16.816177 16.8187948,12.9527104 16.8187948,8.19537703 C16.8187948,3.4316437 12.9537781,-0.425422964 8.19716277,-0.425422964 C3.43841436,-0.425422964 -0.422336255,3.4316437 -0.422336255,8.19537703" fill-opacity="0.4" fill="url(#linearGradient-3)" transform="translate(8.120204, 8.115027) rotate(-90.000000) translate(-8.120204, -8.115027) "></path>
                            <g transform="translate(5.331217, 8.398220)" fill="#5E99D2">
                                <path d="M0.496621219,2.14988058 C0.521860641,2.14988058 0.542426096,2.16476071 0.542426096,2.18305372 C0.542426096,2.2015515 0.521767162,2.21636337 0.496621219,2.21636337 C0.471662235,2.21643163 0.451377218,2.2015515 0.451377218,2.18305372 L2.52893031,0.138489627"></path>
                            </g>
                        </g>
                        <path d="M819.785354,1150.5024 C819.785354,1153.15627 817.635279,1155.30667 814.981813,1155.30667 L48.7017373,1155.30667 C46.0482711,1155.30667 43.8981955,1153.15627 43.8981955,1150.5024 L43.8981955,128.533333 C43.8981955,125.8816 46.0482711,123.7312 48.7017373,123.7312 L814.981813,123.7312 C817.635279,123.7312 819.785354,125.8816 819.785354,128.533333 L819.785354,1150.5024 L819.785354,1150.5024 Z M814.983945,1151.04 C815.280434,1151.04 815.521464,1150.79894 815.521464,1150.5024 L815.521464,128.533333 C815.521464,128.238933 815.280434,127.997867 814.983945,127.997867 L48.7017373,127.997867 C48.4052486,127.997867 48.1642183,128.238933 48.1642183,128.533333 L48.1642183,1150.5024 C48.1642183,1150.79894 48.4052486,1151.04 48.7017373,1151.04 L814.983945,1151.04 L814.983945,1151.04 Z" id="Shape" fill="#E0E0E0"></path>
                    </g>
                </g>
            </g>
        </g>
    </g>
</svg>