<?xml version="1.0" encoding="UTF-8" standalone="no"?>
<svg width="874px" height="1236px" viewBox="0 0 874 1236" version="1.1" xmlns="http://www.w3.org/2000/svg" xmlns:xlink="http://www.w3.org/1999/xlink" xmlns:sketch="http://www.bohemiancoding.com/sketch/ns">
    <!-- Generator: Sketch 3.2.1 (9971) - http://www.bohemiancoding.com/sketch -->
    <title>device_ipad</title>
    <desc>Created with Sketch.</desc>
    <defs>
        <path id="path-1" d="M0.2,0.6 L768.2,0.6 L768.2,1024.6 L0.2,1024.6 L0.2,0.6 L0.2,0.6 Z"></path>
    </defs>
    <g id="Page-1" stroke="none" stroke-width="1" fill="none" fill-rule="evenodd" sketch:type="MSPage">
        <g id="device_ipad" sketch:type="MSLayerGroup" transform="translate(2.000000, 1.000000)">
            <g id="Group">
                <g transform="translate(51.000000, 106.000000)">
                    <g id="Clipped">
                        <mask id="mask-2" sketch:name="SVGID_1_" fill="white">
                            <use xlink:href="#path-1"></use>
                        </mask>
                        <g id="SVGID_1_"></g>
                    </g>
                    <g id="SVGID_1_-link" stroke="#CCCCCC" sketch:type="MSShapeGroup">
                        <path d="M0.2,0.6 L768.2,0.6 L768.2,1024.6 L0.2,1024.6 L0.2,0.6 L0.2,0.6 Z" id="SVGID_1_"></path>
                    </g>
                </g>
                <path d="M435.2,1210.9 C450.7,1210.9 463.3,1198.3 463.3,1182.8 C463.3,1167.3 450.7,1154.7 435.2,1154.7 C419.7,1154.7 407.1,1167.3 407.1,1182.8 C407.1,1198.4 419.7,1210.9 435.2,1210.9 L435.2,1210.9 L435.2,1210.9 Z" id="Shape" stroke="#CCCCCC" sketch:type="MSShapeGroup"></path>
                <path d="M435.2,60.3 C439,60.3 442.1,57.2 442.1,53.4 C442.1,49.6 439,46.5 435.2,46.5 C431.4,46.5 428.3,49.6 428.3,53.4 C428.3,57.2 431.4,60.3 435.2,60.3 L435.2,60.3 L435.2,60.3 Z" id="Shape" stroke="#CCCCCC" sketch:type="MSShapeGroup"></path>
                <path d="M821.3,1233.5 L49.1,1233.5 C22.2,1233.5 0.2,1211.5 0.2,1184.6 L0.2,49.8 C0.2,22.9 22.2,0.9 49.1,0.9 L821.3,0.9 C848.2,0.9 870.2,22.9 870.2,49.8 L870.2,1184.6 C870.2,1211.5 848.2,1233.5 821.3,1233.5 L821.3,1233.5 Z" id="Shape" stroke="#CCCCCC" stroke-width="3" sketch:type="MSShapeGroup"></path>
            </g>
        </g>
    </g>
</svg>