<?xml version="1.0" encoding="UTF-8" standalone="no"?>
<svg width="1200px" height="800px" viewBox="0 0 1200 800" version="1.1" xmlns="http://www.w3.org/2000/svg" xmlns:xlink="http://www.w3.org/1999/xlink" xmlns:sketch="http://www.bohemiancoding.com/sketch/ns">
    <!-- Generator: Sketch 3.2.1 (9971) - http://www.bohemiancoding.com/sketch -->
    <title>bestbook</title>
    <desc>Created with Sketch.</desc>
    <defs>
        <path d="M2.8,5 C2.8,3.8 3.9,2.9 5.2,2.9 L27.7,2.9 C29.1,2.9 30.1,3.9 30.1,5 L30.1,17.3 C30.1,18.5 29,19.4 27.7,19.4 L5.2,19.4 C3.8,19.4 2.8,18.4 2.8,17.3 L2.8,5 L2.8,5 Z M3.4,22.1 L13.9,22.1 L13.9,25.3 C9.6,25.7 7.5,25.3 6.3,27.1 L26.8,27.1 C25.7,25.3 23.5,25.7 19.2,25.3 L19.2,22.1 L29.7,22.1 C31.3,22.1 32.6,20.8 32.6,19.2 L32.6,3.1 C32.6,1.5 31.3,0.2 29.7,0.2 L3.4,0.2 C1.8,0.2 0.5,1.5 0.5,3.1 L0.5,19.2 C0.5,20.8 1.8,22.1 3.4,22.1 L3.4,22.1 Z" id="path-1"></path>
    </defs>
    <g id="Page-1" stroke="none" stroke-width="1" fill="none" fill-rule="evenodd" sketch:type="MSPage">
        <g id="bestbook" sketch:type="MSArtboardGroup">
            <g id="logo_l" sketch:type="MSLayerGroup" transform="translate(22.000000, 12.000000)">
                <path d="M145.5,31.6 C146,31.6 146.3,31.7 146.6,32 C146.9,32.3 147,32.7 147,33.1 C147,33.5 146.9,33.9 146.6,34.2 C146.4,34.5 146,34.7 145.5,34.7 L135.2,34.7 C134.7,34.7 134.3,34.5 134.1,34.3 C133.8,34 133.7,33.6 133.7,33.2 C133.7,32.8 133.9,32.4 134.1,32.1 C134.4,31.8 134.8,31.7 135.2,31.7 L145.5,31.7 L145.5,31.6 L145.5,31.6 Z M145.2,25.9 C145.7,25.9 146,26 146.3,26.3 C146.6,26.6 146.7,27 146.7,27.4 C146.7,27.8 146.6,28.2 146.3,28.5 C146.1,28.8 145.7,29 145.2,29 L134.9,29 C134.4,29 134,28.8 133.8,28.6 C133.5,28.3 133.4,27.9 133.4,27.5 C133.4,27.1 133.6,26.7 133.8,26.4 C134.1,26.1 134.5,26 134.9,26 L145.2,26 L145.2,25.9 L145.2,25.9 Z M124,26.1 C124.5,26.1 124.8,26.2 125.1,26.5 C125.4,26.8 125.5,27.2 125.5,27.6 C125.5,28 125.4,28.4 125.1,28.7 C124.9,29 124.5,29.2 124,29.2 L113.7,29.2 C113.2,29.2 112.8,29 112.6,28.8 C112.3,28.5 112.2,28.1 112.2,27.7 C112.2,27.3 112.4,26.9 112.6,26.6 C112.9,26.3 113.3,26.2 113.7,26.2 L124,26.2 L124,26.1 L124,26.1 Z M147.1,38.5 C147.6,38.5 147.9,38.6 148.2,38.9 C148.5,39.2 148.6,39.6 148.6,40 C148.6,40.4 148.5,40.8 148.2,41.1 C148,41.4 147.6,41.6 147.1,41.6 L113.2,41.6 C112.7,41.6 112.3,41.4 112.1,41.2 C111.8,40.9 111.7,40.5 111.7,40.1 C111.7,39.7 111.9,39.3 112.1,39 C112.4,38.7 112.8,38.6 113.2,38.6 L147.1,38.6 L147.1,38.5 L147.1,38.5 Z M124,31.6 C124.5,31.6 124.8,31.7 125.1,32 C125.4,32.3 125.5,32.7 125.5,33.1 C125.5,33.5 125.4,33.9 125.1,34.2 C124.9,34.5 124.5,34.7 124,34.7 L113.3,34.7 C112.8,34.7 112.4,34.5 112.2,34.3 C111.9,34 111.8,33.6 111.8,33.2 C111.8,32.8 112,32.4 112.2,32.1 C112.5,31.8 112.9,31.7 113.3,31.7 L124,31.7 L124,31.6 L124,31.6 Z M109,59.1 C108.4,59.1 107.9,59 107.7,58.7 C107.4,58.4 107.3,58 107.2,57.5 C107.2,57 107.4,56.6 107.6,56.3 C107.9,56 108.3,55.8 108.9,55.8 L115.8,55.6 C117.9,53.3 120,50.7 122,48 L108.6,48 C108.1,48 107.7,47.8 107.5,47.6 C107.2,47.3 107.1,46.9 107.1,46.5 C107.1,46.1 107.3,45.7 107.5,45.4 C107.8,45.1 108.2,45 108.6,45 L151.6,45 C152.1,45 152.4,45.1 152.7,45.4 C153,45.7 153.1,46.1 153.1,46.5 C153.1,46.9 153,47.3 152.7,47.6 C152.5,47.9 152.1,48.1 151.6,48.1 L125.8,48.1 C124.4,50.2 122.4,52.6 119.9,55.5 L143.9,54.8 L140.3,51.6 C139.9,51.3 139.7,50.9 139.6,50.6 C139.5,50.2 139.6,49.8 139.9,49.5 C140.2,49.1 140.6,48.9 140.9,48.9 C141.3,48.8 141.7,49 142.1,49.3 C148.8,55.2 152.2,58.6 152.1,59.7 C152.1,60.1 151.9,60.4 151.6,60.7 C151.3,61 150.9,61.1 150.5,61.1 C150.1,61 149.7,60.8 149.4,60.5 L146.8,57.7 L109,59.1 L109,59.1 Z M112.7,23.1 C111.8,23.1 111,23.3 110.5,23.9 C110.1,24.4 109.8,25.1 109.8,26 L109.8,29.6 C109.8,30.1 109.6,30.5 109.3,30.8 L108.2,31.2 C107.8,31.1 107.4,31 107.1,30.7 C106.8,30.4 106.7,30 106.7,29.5 L106.7,25 C106.7,23.5 107.1,22.3 108.1,21.4 C109,20.5 110.2,20.1 111.7,20.1 L127.8,20.1 L127.8,16.7 L111.5,16.7 C111,16.7 110.6,16.5 110.4,16.3 C110.1,16 110,15.6 110,15.2 C110,14.8 110.2,14.4 110.4,14.1 C110.7,13.8 111.1,13.7 111.5,13.7 L148,13.7 C148.5,13.7 148.8,13.8 149.1,14.1 C149.4,14.4 149.5,14.8 149.5,15.2 C149.5,15.6 149.4,16 149.1,16.3 C148.9,16.6 148.5,16.8 148,16.8 L130.8,16.8 L130.8,20.2 L148.6,20.2 C149.7,20.2 150.5,20.4 151.1,20.8 C151.6,21.1 152.1,21.6 152.4,22.2 C153.3,23.6 153,26.2 151.7,30 C151.5,30.5 151.3,30.9 150.9,31 C150.6,31.2 150.2,31.2 149.8,31.1 C148.9,30.7 148.6,30 148.9,29 C149.9,26.5 150.1,24.9 149.6,24.3 C149.1,23.6 148.3,23.3 147.2,23.3 L130.8,23.3 L130.8,34.8 C130.8,35.3 130.6,35.7 130.3,36 C130.1,36.2 129.7,36.4 129.2,36.5 C128.8,36.5 128.4,36.3 128.1,36.1 C127.8,35.8 127.7,35.3 127.7,34.9 L127.7,23.1 L112.7,23.1 L112.7,23.1 Z" id="Shape" fill="#3F76A5" sketch:type="MSShapeGroup"></path>
                <path d="M184,26.4 L196.3,26.4 C197.1,26.4 197.6,26.2 197.8,25.8 C198.1,25.4 198.3,24.9 198.3,24.4 L198.3,23.6 L184,23.6 L184,26.4 L184,26.4 Z M184,20.5 L198.3,20.5 L198.3,19.7 C198.3,19.3 198.2,18.8 197.8,18.4 C197.5,18 196.9,17.7 196.3,17.7 L184,17.7 L184,20.5 L184,20.5 Z M168.7,53.3 L168.7,54.9 C168.7,55.5 168.9,56 169.1,56.4 C169.3,56.7 169.8,56.9 170.3,56.9 L195.1,56.9 C195.7,56.8 196.1,56.7 196.5,56.4 C196.8,56 197,55.5 197,55 L197,53.4 L168.7,53.4 L168.7,53.3 L168.7,53.3 Z M197,50.2 L197,48.3 C197,47.9 196.8,47.5 196.5,47.1 C196.2,46.8 195.7,46.6 195.1,46.6 L170.3,46.6 C169.7,46.5 169.3,46.7 169.1,47.1 C168.8,47.4 168.7,47.8 168.7,48.3 L168.7,50.2 L197,50.2 L197,50.2 Z M169.3,59.9 C168,59.8 167,59.5 166.5,58.8 C165.9,58 165.6,57.2 165.7,56.2 L165.7,47.4 C165.7,46.3 166,45.4 166.7,44.8 C167.4,44.1 168.3,43.7 169.3,43.7 L196.4,43.7 C197.5,43.7 198.4,44 199.1,44.7 C199.8,45.4 200.1,46.3 200.1,47.4 L200.1,56.2 C200.1,57.2 199.8,58.1 199.1,58.8 C198.4,59.5 197.5,59.9 196.4,59.9 L169.3,59.9 L169.3,59.9 Z M180.9,35 L164,35 C163.6,35 163.2,34.8 162.9,34.6 C162.7,34.4 162.5,34 162.5,33.6 C162.5,33.2 162.6,32.9 162.9,32.6 C163.2,32.3 163.5,32.2 164,32.2 L180.9,32.2 L180.9,29.3 L164.8,29.3 C164.3,29.3 163.9,29.1 163.6,28.8 C163.4,28.5 163.3,28.2 163.2,27.8 C163.2,27.4 163.4,27 163.6,26.8 C163.9,26.6 164.3,26.4 164.8,26.4 L180.9,26.4 L180.9,23.6 L159.7,23.6 C159.2,23.6 158.8,23.4 158.6,23.2 C158.3,22.9 158.2,22.5 158.2,22.1 C158.2,21.7 158.4,21.3 158.6,21 C158.9,20.7 159.3,20.6 159.7,20.6 L180.9,20.6 L180.9,17.8 L165.1,17.8 C164.6,17.8 164.2,17.6 163.9,17.4 C163.7,17.1 163.6,16.7 163.5,16.4 C163.5,16 163.7,15.7 163.9,15.4 C164.2,15.1 164.6,15 165.1,15 L180.9,15 L180.9,13.3 C180.9,12.8 181,12.4 181.3,12.2 C181.6,11.9 182,11.8 182.4,11.8 C182.8,11.8 183.2,11.9 183.5,12.2 C183.8,12.5 184,12.9 184,13.3 L184,15 L197,15 C198.3,15 199.4,15.4 200.1,16.2 C200.9,17 201.2,18.1 201.2,19.3 L201.2,20.7 L205.2,20.7 C205.7,20.7 206,20.8 206.3,21.1 C206.6,21.4 206.7,21.8 206.7,22.2 C206.7,22.6 206.6,23 206.3,23.3 C206.1,23.6 205.7,23.8 205.2,23.8 L201.2,23.8 L201.2,25.6 L201.2,26 C201,26.9 200.7,27.6 200.3,28.1 C199.6,29 198.6,29.4 197,29.4 L184,29.4 L184,32.3 L201,32.3 C201.4,32.3 201.8,32.4 202,32.7 C202.2,32.9 202.4,33.3 202.4,33.7 C202.4,34.1 202.3,34.4 202,34.7 C201.7,35 201.4,35.2 201,35.2 L184,35.2 L184,38.1 L205.4,38.1 C205.8,38.1 206.2,38.2 206.4,38.5 C206.6,38.7 206.8,39.1 206.8,39.5 C206.8,39.9 206.7,40.2 206.4,40.5 C206.1,40.8 205.8,41 205.4,41 L159.8,41 C159.4,41 159,40.8 158.7,40.6 C158.5,40.4 158.3,40 158.3,39.6 C158.3,39.2 158.4,38.9 158.7,38.6 C159,38.3 159.3,38.2 159.8,38.2 L181,38.2 L181,35 L180.9,35 L180.9,35 Z" id="Shape" fill="#3F76A5" sketch:type="MSShapeGroup"></path>
                <path d="M112.3,71.2 C112.6,70.8 112.7,70.2 112.7,69.5 C112.7,68.9 112.6,68.5 112.5,68.1 C112.2,67.4 111.7,67.1 111,67.1 C110.3,67.1 109.7,67.4 109.5,68.1 C109.4,68.5 109.3,68.9 109.3,69.5 C109.3,70.2 109.5,70.7 109.7,71.2 C110,71.6 110.5,71.9 111.1,71.9 C111.6,71.8 112,71.6 112.3,71.2 M114,66.4 C114.6,67.1 114.9,68.1 114.9,69.3 C114.9,70.5 114.6,71.5 114,72.3 C113.4,73.1 112.6,73.5 111.6,73.5 C111,73.5 110.4,73.4 110,73.1 C109.8,72.9 109.5,72.7 109.2,72.3 L109.2,73.3 L107.2,73.3 L107.2,62.7 L109.2,62.7 L109.2,66.5 C109.5,66.1 109.7,65.9 110.1,65.7 C110.5,65.5 110.9,65.3 111.5,65.3 C112.6,65.3 113.5,65.6 114,66.4" id="Shape" fill="#F2254C" sketch:type="MSShapeGroup"></path>
                <path d="M118.4,67.4 C118.1,67.7 117.9,68.1 117.9,68.6 L121.4,68.6 C121.4,68.1 121.2,67.6 120.9,67.4 C120.6,67.1 120.2,67 119.7,67 C119.1,66.9 118.7,67.1 118.4,67.4 M121.4,65.6 C121.9,65.8 122.4,66.2 122.8,66.8 C123.1,67.3 123.3,67.8 123.4,68.4 C123.5,68.8 123.5,69.3 123.5,70 L117.8,70 C117.8,70.8 118.1,71.3 118.6,71.7 C118.9,71.9 119.3,72 119.7,72 C120.2,72 120.5,71.9 120.8,71.6 C121,71.5 121.1,71.3 121.2,71.1 L123.3,71.1 C123.2,71.6 123,72 122.5,72.5 C121.8,73.3 120.8,73.6 119.6,73.6 C118.6,73.6 117.6,73.3 116.8,72.6 C116,72 115.6,70.9 115.6,69.5 C115.6,68.1 116,67.1 116.7,66.4 C117.4,65.7 118.4,65.3 119.5,65.3 C120.3,65.2 120.9,65.4 121.4,65.6" id="Shape" fill="#F2254C" sketch:type="MSShapeGroup"></path>
                <path d="M126.1,70.8 C126.1,71.2 126.2,71.4 126.4,71.6 C126.7,71.9 127.1,72 127.8,72 C128.2,72 128.5,71.9 128.8,71.8 C129,71.7 129.2,71.5 129.2,71.3 C129.2,71.1 129.1,70.9 128.9,70.8 C128.7,70.7 128,70.5 126.8,70.2 C125.9,70 125.3,69.7 124.9,69.4 C124.5,69.1 124.4,68.6 124.4,68 C124.4,67.3 124.7,66.7 125.3,66.1 C125.9,65.6 126.7,65.3 127.7,65.3 C128.7,65.3 129.5,65.5 130.1,65.9 C130.7,66.3 131.1,67 131.2,67.9 L129.2,67.9 C129.2,67.6 129.1,67.4 129,67.3 C128.8,67 128.4,66.9 127.8,66.9 C127.4,66.9 127,67 126.8,67.1 C126.6,67.2 126.5,67.4 126.5,67.6 C126.5,67.8 126.6,68 126.8,68.1 C127,68.2 127.7,68.4 128.9,68.7 C129.7,68.9 130.3,69.2 130.7,69.6 C131.1,70 131.3,70.5 131.3,71.1 C131.3,71.9 131,72.5 130.4,73 C129.8,73.5 128.9,73.7 127.7,73.7 C126.5,73.7 125.6,73.4 125,72.9 C124.4,72.4 124.1,71.7 124.1,70.9 L126.1,70.9 L126.1,70.8 L126.1,70.8 Z" id="Shape" fill="#F2254C" sketch:type="MSShapeGroup"></path>
                <path d="M131.9,67 L131.9,65.5 L133,65.5 L133,63.3 L135,63.3 L135,65.5 L136.3,65.5 L136.3,67 L135,67 L135,71.1 C135,71.4 135,71.6 135.1,71.7 C135.2,71.8 135.4,71.8 135.8,71.8 L136,71.8 L136.2,71.8 L136.2,73.3 L135.2,73.3 C134.2,73.3 133.6,73.2 133.2,72.8 C133,72.6 132.9,72.2 132.9,71.7 L132.9,67 L131.9,67 L131.9,67 Z" id="Shape" fill="#F2254C" sketch:type="MSShapeGroup"></path>
                <path d="M142.6,71.2 C142.9,70.8 143,70.2 143,69.5 C143,68.9 142.9,68.5 142.8,68.1 C142.5,67.4 142,67.1 141.3,67.1 C140.6,67.1 140,67.4 139.8,68.1 C139.7,68.5 139.6,68.9 139.6,69.5 C139.6,70.2 139.8,70.7 140,71.2 C140.3,71.6 140.8,71.9 141.4,71.9 C141.9,71.8 142.3,71.6 142.6,71.2 M144.3,66.4 C144.9,67.1 145.2,68.1 145.2,69.3 C145.2,70.5 144.9,71.5 144.3,72.3 C143.7,73.1 142.9,73.5 141.9,73.5 C141.3,73.5 140.7,73.4 140.3,73.1 C140.1,72.9 139.8,72.7 139.5,72.3 L139.5,73.3 L137.5,73.3 L137.5,62.7 L139.5,62.7 L139.5,66.5 C139.8,66.1 140,65.9 140.4,65.7 C140.8,65.5 141.2,65.3 141.8,65.3 C142.9,65.3 143.7,65.6 144.3,66.4" id="Shape" fill="#F2254C" sketch:type="MSShapeGroup"></path>
                <path d="M151.5,71.2 C151.8,70.8 152,70.2 152,69.4 C152,68.6 151.8,68 151.5,67.6 C151.2,67.2 150.7,67 150.1,67 C149.5,67 149,67.2 148.7,67.6 C148.4,68 148.2,68.6 148.2,69.4 C148.2,70.2 148.4,70.8 148.7,71.2 C149,71.6 149.5,71.8 150.1,71.8 C150.7,71.8 151.1,71.6 151.5,71.2 M153.1,72.3 C152.4,73.1 151.4,73.5 150.1,73.5 C148.8,73.5 147.8,73.1 147.1,72.3 C146.4,71.5 146.1,70.5 146.1,69.4 C146.1,68.3 146.4,67.3 147.1,66.5 C147.8,65.7 148.8,65.3 150.1,65.3 C151.4,65.3 152.4,65.7 153.1,66.5 C153.8,67.3 154.1,68.3 154.1,69.4 C154.1,70.5 153.8,71.5 153.1,72.3" id="Shape" fill="#F2254C" sketch:type="MSShapeGroup"></path>
                <path d="M160.4,71.2 C160.7,70.8 160.9,70.2 160.9,69.4 C160.9,68.6 160.7,68 160.4,67.6 C160.1,67.2 159.6,67 159,67 C158.4,67 157.9,67.2 157.6,67.6 C157.3,68 157.1,68.6 157.1,69.4 C157.1,70.2 157.3,70.8 157.6,71.2 C157.9,71.6 158.4,71.8 159,71.8 C159.7,71.8 160.1,71.6 160.4,71.2 M162.1,72.3 C161.4,73.1 160.4,73.5 159.1,73.5 C157.8,73.5 156.8,73.1 156.1,72.3 C155.4,71.5 155.1,70.5 155.1,69.4 C155.1,68.3 155.4,67.3 156.1,66.5 C156.8,65.7 157.8,65.3 159.1,65.3 C160.4,65.3 161.4,65.7 162.1,66.5 C162.8,67.3 163.1,68.3 163.1,69.4 C163.1,70.5 162.7,71.5 162.1,72.3" id="Shape" fill="#F2254C" sketch:type="MSShapeGroup"></path>
                <path d="M164.5,62.7 L166.5,62.7 L166.5,68.4 L169.1,65.5 L171.7,65.5 L168.8,68.4 L171.8,73.3 L169.3,73.3 L167.4,69.9 L166.5,70.8 L166.5,73.3 L164.5,73.3 L164.5,62.7 L164.5,62.7 Z" id="Shape" fill="#F2254C" sketch:type="MSShapeGroup"></path>
                <path d="M172.7,71.1 L174.9,71.1 L174.9,73.3 L172.7,73.3 L172.7,71.1 L172.7,71.1 Z" id="Shape" fill="#F2254C" sketch:type="MSShapeGroup"></path>
                <path d="M181.5,68.3 C181.5,68 181.4,67.7 181.2,67.5 C181,67.2 180.6,67 180.1,67 C179.4,67 178.9,67.3 178.7,68 C178.6,68.4 178.5,68.8 178.5,69.4 C178.5,70 178.6,70.4 178.7,70.8 C178.9,71.5 179.4,71.8 180.1,71.8 C180.6,71.8 180.9,71.7 181.1,71.4 C181.3,71.1 181.4,70.8 181.5,70.4 L183.6,70.4 C183.6,71 183.3,71.6 182.9,72.2 C182.3,73.1 181.3,73.5 180,73.5 C178.7,73.5 177.8,73.1 177.2,72.4 C176.6,71.7 176.3,70.7 176.3,69.5 C176.3,68.2 176.6,67.1 177.3,66.4 C178,65.7 178.9,65.3 180,65.3 C181,65.3 181.8,65.5 182.4,66 C183,66.4 183.4,67.2 183.5,68.3 L181.5,68.3 L181.5,68.3 L181.5,68.3 Z" id="Shape" fill="#F2254C" sketch:type="MSShapeGroup"></path>
                <path d="M189.9,71.2 C190.2,70.8 190.4,70.2 190.4,69.4 C190.4,68.6 190.2,68 189.9,67.6 C189.6,67.2 189.1,67 188.5,67 C187.9,67 187.4,67.2 187.1,67.6 C186.8,68 186.6,68.6 186.6,69.4 C186.6,70.2 186.8,70.8 187.1,71.2 C187.4,71.6 187.9,71.8 188.5,71.8 C189.1,71.8 189.5,71.6 189.9,71.2 M191.5,72.3 C190.8,73.1 189.8,73.5 188.5,73.5 C187.2,73.5 186.2,73.1 185.5,72.3 C184.8,71.5 184.5,70.5 184.5,69.4 C184.5,68.3 184.8,67.3 185.5,66.5 C186.2,65.7 187.2,65.3 188.5,65.3 C189.8,65.3 190.8,65.7 191.5,66.5 C192.2,67.3 192.5,68.3 192.5,69.4 C192.5,70.5 192.2,71.5 191.5,72.3" id="Shape" fill="#F2254C" sketch:type="MSShapeGroup"></path>
                <path d="M203.7,65.5 C204,65.6 204.3,65.9 204.6,66.2 C204.8,66.5 205,66.8 205,67.2 C205,67.5 205.1,67.8 205.1,68.4 L205.1,73.3 L203,73.3 L203,68.3 C203,68 203,67.8 202.9,67.6 C202.7,67.2 202.4,67.1 201.9,67.1 C201.3,67.1 200.9,67.3 200.7,67.8 C200.6,68 200.5,68.3 200.5,68.7 L200.5,73.4 L198.4,73.4 L198.4,68.7 C198.4,68.2 198.4,67.9 198.3,67.7 C198.1,67.3 197.8,67.1 197.3,67.1 C196.7,67.1 196.3,67.3 196.1,67.7 C196,67.9 195.9,68.2 195.9,68.7 L195.9,73.4 L193.8,73.4 L193.8,65.6 L195.8,65.6 L195.8,66.7 C196.1,66.3 196.3,66 196.5,65.8 C196.9,65.5 197.4,65.3 198,65.3 C198.6,65.3 199.1,65.4 199.5,65.7 C199.8,65.9 200,66.3 200.2,66.6 C200.5,66.1 200.8,65.8 201.2,65.6 C201.6,65.4 202.1,65.3 202.6,65.3 C203.1,65.3 203.4,65.3 203.7,65.5" id="Shape" fill="#F2254C" sketch:type="MSShapeGroup"></path>
                <path d="M95.3,12.7 L93.2,12.7 L93.2,16.7 L94.2,16.7 C95.6,16.7 96.6,17.9 96.6,19.4 L96.6,66.8 C96.6,68.2 95.7,69.7 94.2,69.7 L54.5,69.7 C49.7,69.7 45.1,71.5 41.5,74.7 C38,71.5 33.4,69.7 28.5,69.7 L7.2,69.7 C5.8,69.7 4.8,68.3 4.8,66.8 L4.8,19.4 C4.8,18 5.8,16.7 7.2,16.7 L8.2,16.7 L8.2,12.7 L6,12.7 C3.3,12.7 0.7,14.8 0.7,17.4 L0.7,68.2 C0.7,70.9 3.3,73 6,73 L28.6,73 C34,73 38.8,75.8 41.6,80 C44.4,75.8 49.2,73 54.6,73 L95.4,73 C98.1,73 100.7,70.9 100.7,68.2 L100.7,17.5 C100.6,14.8 98,12.7 95.3,12.7" id="Shape" fill="#3F76A5" sketch:type="MSShapeGroup"></path>
                <path d="M36.9,59.6 L10.8,59.6 L10.8,11.4 L36.9,11.4 L36.9,59.6 L36.9,59.6 L36.9,59.6 Z M23.1,65.5 C21.9,65.5 21,64.6 21,63.4 C21,62.2 21.9,61.3 23.1,61.3 C24.3,61.3 25.2,62.2 25.2,63.4 C25.2,64.6 24.3,65.5 23.1,65.5 L23.1,65.5 Z M20.9,8 L27.6,8 L27.6,8.7 L20.9,8.7 L20.9,8 L20.9,8 L20.9,8 Z M40.3,7.9 C40.3,6.5 39.2,5.4 37.8,5.4 L10.6,5.4 C9.2,5.4 8.1,6.5 8.1,7.9 L8.1,65.2 C8.1,66.6 9.2,67.7 10.6,67.7 L37.8,67.7 C39.2,67.7 40.3,66.6 40.3,65.2 L40.3,7.9 L40.3,7.9 Z" id="Shape" fill="#F2254C" sketch:type="MSShapeGroup"></path>
                <path d="M91.2,60.3 L45,60.3 L45,8 L91.2,8 L91.2,60.3 L91.2,60.3 Z M67.2,65.3 C66,65.3 65.1,64.4 65.1,63.2 C65.1,62 66,61.1 67.2,61.1 C68.4,61.1 69.3,62 69.3,63.2 C69.3,64.3 68.4,65.3 67.2,65.3 L67.2,65.3 Z M67.3,2.8 C67.8,2.8 68.1,3.2 68.1,3.6 C68.1,4.1 67.7,4.4 67.3,4.4 C66.8,4.4 66.5,4 66.5,3.6 C66.5,3.2 66.9,2.8 67.3,2.8 L67.3,2.8 Z M94.6,2.4 C94.6,1.1 93.5,0 92.2,0 L44.7,0 C43.4,0 42.3,1.1 42.3,2.4 L42.3,65.2 C42.3,66.5 43.4,67.6 44.7,67.6 L92.1,67.6 C93.4,67.6 94.5,66.5 94.5,65.2 L94.5,2.4 L94.6,2.4 L94.6,2.4 Z" id="Shape" fill="#F2254C" sketch:type="MSShapeGroup"></path>
            </g>
            <g id="logo_m" sketch:type="MSLayerGroup" transform="translate(22.000000, 117.000000)">
                <path d="M73.1,15.804878 C73.3,15.804878 73.5,15.804878 73.6,16 C73.7,16.097561 73.8,16.2926829 73.8,16.5853659 C73.8,16.7804878 73.7,16.9756098 73.6,17.0731707 C73.5,17.2682927 73.3,17.2682927 73.1,17.2682927 L67.9,17.2682927 C67.7,17.2682927 67.5,17.1707317 67.3,17.0731707 C67.2,16.8780488 67.1,16.7804878 67.1,16.4878049 C67.1,16.2926829 67.2,16.097561 67.3,16 C67.5,15.902439 67.6,15.804878 67.9,15.804878 L73.1,15.804878 L73.1,15.804878 Z M73,12.9756098 C73.2,12.9756098 73.4,12.9756098 73.5,13.1707317 C73.6,13.2682927 73.7,13.4634146 73.7,13.7560976 C73.7,13.9512195 73.6,14.1463415 73.5,14.2439024 C73.4,14.4390244 73.2,14.4390244 73,14.4390244 L67.8,14.4390244 C67.6,14.4390244 67.4,14.3414634 67.2,14.2439024 C67.1,14.0487805 67,13.9512195 67,13.6585366 C67,13.4634146 67.1,13.2682927 67.2,13.1707317 C67.4,13.0731707 67.5,12.9756098 67.8,12.9756098 L73,12.9756098 L73,12.9756098 Z M62.4,13.0731707 C62.6,13.0731707 62.8,13.0731707 62.9,13.2682927 C63,13.3658537 63.1,13.5609756 63.1,13.8536585 C63.1,14.0487805 63,14.2439024 62.9,14.3414634 C62.8,14.5365854 62.6,14.5365854 62.4,14.5365854 L57.2,14.5365854 C57,14.5365854 56.8,14.4390244 56.6,14.3414634 C56.5,14.1463415 56.4,14.0487805 56.4,13.7560976 C56.4,13.5609756 56.5,13.3658537 56.6,13.2682927 C56.8,13.1707317 56.9,13.0731707 57.2,13.0731707 L62.4,13.0731707 L62.4,13.0731707 Z M73.9,19.1219512 C74.1,19.1219512 74.3,19.1219512 74.4,19.3170732 C74.5,19.4146341 74.6,19.6097561 74.6,19.902439 C74.6,20.097561 74.5,20.2926829 74.4,20.3902439 C74.3,20.5853659 74.1,20.5853659 73.9,20.5853659 L57,20.5853659 C56.8,20.5853659 56.6,20.4878049 56.4,20.3902439 C56.3,20.195122 56.2,20.097561 56.2,19.804878 C56.2,19.6097561 56.3,19.4146341 56.4,19.3170732 C56.6,19.2195122 56.7,19.1219512 57,19.1219512 L73.9,19.1219512 L73.9,19.1219512 Z M62.4,15.804878 C62.6,15.804878 62.8,15.804878 62.9,16 C63,16.097561 63.1,16.2926829 63.1,16.5853659 C63.1,16.7804878 63,16.9756098 62.9,17.0731707 C62.8,17.2682927 62.6,17.2682927 62.4,17.2682927 L57,17.2682927 C56.8,17.2682927 56.6,17.1707317 56.4,17.0731707 C56.3,16.8780488 56.2,16.7804878 56.2,16.4878049 C56.2,16.2926829 56.3,16.097561 56.4,16 C56.6,15.902439 56.7,15.804878 57,15.804878 L62.4,15.804878 L62.4,15.804878 Z M54.9,29.1707317 C54.6,29.1707317 54.4,29.0731707 54.2,28.9756098 C54.1,28.7804878 54,28.5853659 53.9,28.3902439 C53.9,28.097561 54,27.902439 54.1,27.804878 C54.3,27.6097561 54.5,27.6097561 54.7,27.5121951 L58.1,27.4146341 C59.2,26.2439024 60.2,25.0731707 61.2,23.7073171 L54.5,23.7073171 C54.3,23.7073171 54.1,23.6097561 53.9,23.5121951 C53.8,23.3170732 53.7,23.2195122 53.7,22.9268293 C53.7,22.7317073 53.8,22.5365854 53.9,22.4390244 C54.1,22.3414634 54.2,22.2439024 54.5,22.2439024 L76,22.2439024 C76.2,22.2439024 76.4,22.2439024 76.5,22.4390244 C76.6,22.5365854 76.7,22.7317073 76.7,23.0243902 C76.7,23.2195122 76.6,23.4146341 76.5,23.5121951 C76.4,23.7073171 76.2,23.7073171 76,23.7073171 L63.2,23.7073171 C62.5,24.6829268 61.5,25.9512195 60.2,27.3170732 L72.2,27.0243902 L70.4,25.4634146 C70.2,25.2682927 70.1,25.1707317 70.1,24.9756098 C70.1,24.7804878 70.1,24.5853659 70.2,24.4878049 C70.4,24.2926829 70.5,24.195122 70.7,24.195122 C70.9,24.195122 71.1,24.195122 71.3,24.3902439 C74.7,27.2195122 76.3,28.9756098 76.3,29.4634146 C76.3,29.6585366 76.2,29.8536585 76.1,29.9512195 C75.9,30.0487805 75.7,30.1463415 75.6,30.1463415 C75.4,30.1463415 75.2,30.0487805 75,29.8536585 L73.7,28.4878049 L54.9,29.1707317 L54.9,29.1707317 Z M56.7,11.6097561 C56.2,11.6097561 55.9,11.7073171 55.6,12 C55.4,12.195122 55.3,12.5853659 55.3,12.9756098 L55.3,14.7317073 C55.3,15.0243902 55.2,15.2195122 55.1,15.3170732 L54.6,15.5121951 C54.4,15.5121951 54.2,15.4146341 54.1,15.3170732 C54,15.1219512 53.9,14.9268293 53.9,14.7317073 L53.9,12.4878049 C53.9,11.7073171 54.1,11.1219512 54.6,10.7317073 C55,10.3414634 55.6,10.0487805 56.4,10.0487805 L64.5,10.0487805 L64.5,8.3902439 L56.4,8.3902439 C56.2,8.3902439 56,8.29268293 55.8,8.19512195 C55.7,8 55.6,7.90243902 55.6,7.6097561 C55.6,7.41463415 55.7,7.2195122 55.8,7.12195122 C56,7.02439024 56.1,6.92682927 56.4,6.92682927 L74.7,6.92682927 C74.9,6.92682927 75.1,6.92682927 75.2,7.12195122 C75.3,7.2195122 75.4,7.41463415 75.4,7.70731707 C75.4,7.90243902 75.3,8.09756098 75.2,8.19512195 C75.1,8.3902439 74.9,8.3902439 74.7,8.3902439 L66.1,8.3902439 L66.1,10.0487805 L75,10.0487805 C75.5,10.0487805 75.9,10.1463415 76.2,10.3414634 C76.5,10.5365854 76.7,10.7317073 76.9,11.0243902 C77.3,11.7073171 77.2,12.9756098 76.5,14.8292683 C76.4,15.1219512 76.3,15.2195122 76.1,15.3170732 C75.9,15.4146341 75.7,15.4146341 75.5,15.3170732 C75,15.1219512 74.9,14.8292683 75.1,14.3414634 C75.6,13.1707317 75.7,12.3902439 75.5,12 C75.3,11.7073171 74.9,11.5121951 74.3,11.5121951 L66.1,11.5121951 L66.1,17.0731707 C66.1,17.2682927 66,17.4634146 65.9,17.6585366 C65.8,17.7560976 65.6,17.8536585 65.4,17.8536585 C65.2,17.8536585 65,17.7560976 64.9,17.6585366 C64.8,17.4634146 64.7,17.2682927 64.7,17.0731707 L64.7,11.5121951 L56.7,11.5121951 L56.7,11.6097561 L56.7,11.6097561 Z" id="Shape" fill="#3F76A5" sketch:type="MSShapeGroup"></path>
                <path d="M92.4,13.1707317 L98.5,13.1707317 C98.9,13.1707317 99.1,13.0731707 99.3,12.8780488 C99.5,12.6829268 99.5,12.4878049 99.5,12.195122 L99.5,11.804878 L92.4,11.804878 L92.4,13.1707317 L92.4,13.1707317 Z M92.4,10.3414634 L99.5,10.3414634 L99.5,9.95121951 C99.5,9.75609756 99.4,9.56097561 99.2,9.26829268 C99,9.07317073 98.8,8.97560976 98.4,8.97560976 L92.3,8.97560976 L92.3,10.3414634 L92.4,10.3414634 L92.4,10.3414634 Z M84.7,26.3414634 L84.7,27.1219512 C84.7,27.4146341 84.8,27.7073171 84.9,27.804878 C85,28 85.2,28 85.5,28 L97.9,28 C98.2,28 98.4,27.902439 98.6,27.7073171 C98.8,27.5121951 98.8,27.3170732 98.9,27.0243902 L98.9,26.3414634 L84.7,26.3414634 L84.7,26.3414634 Z M98.9,24.8780488 L98.9,23.902439 C98.9,23.7073171 98.8,23.5121951 98.7,23.3170732 C98.6,23.1219512 98.3,23.1219512 98,23.1219512 L85.5,23.1219512 C85.2,23.1219512 85,23.1219512 84.9,23.3170732 C84.8,23.4146341 84.7,23.6097561 84.7,23.902439 L84.7,24.8780488 L98.9,24.8780488 L98.9,24.8780488 Z M85,29.5609756 C84.3,29.5609756 83.9,29.3658537 83.6,28.9756098 C83.3,28.5853659 83.2,28.195122 83.2,27.7073171 L83.2,23.4146341 C83.2,22.8292683 83.4,22.4390244 83.7,22.1463415 C84,21.7560976 84.5,21.6585366 85,21.6585366 L98.5,21.6585366 C99.1,21.6585366 99.5,21.8536585 99.8,22.1463415 C100.1,22.4390244 100.3,22.9268293 100.3,23.4146341 L100.3,27.7073171 C100.3,28.195122 100.1,28.6829268 99.8,28.9756098 C99.5,29.3658537 99,29.4634146 98.5,29.4634146 L85,29.4634146 L85,29.5609756 L85,29.5609756 Z M90.8,17.3658537 L82.4,17.3658537 C82.2,17.3658537 82,17.2682927 81.9,17.1707317 C81.8,17.0731707 81.7,16.8780488 81.7,16.6829268 C81.7,16.4878049 81.8,16.2926829 81.9,16.195122 C82,16.097561 82.2,16 82.4,16 L90.8,16 L90.8,14.6341463 L82.8,14.6341463 C82.6,14.6341463 82.4,14.5365854 82.2,14.4390244 C82.1,14.3414634 82,14.1463415 82,13.9512195 C82,13.7560976 82.1,13.5609756 82.2,13.4634146 C82.4,13.3658537 82.6,13.2682927 82.8,13.2682927 L90.8,13.2682927 L90.8,11.902439 L80.2,11.902439 C80,11.902439 79.8,11.804878 79.6,11.7073171 C79.5,11.5121951 79.4,11.4146341 79.4,11.1219512 C79.4,10.9268293 79.5,10.7317073 79.6,10.6341463 C79.8,10.5365854 79.9,10.4390244 80.2,10.4390244 L90.8,10.4390244 L90.8,9.07317073 L82.9,9.07317073 C82.6,9.07317073 82.4,8.97560976 82.3,8.87804878 C82.2,8.68292683 82.1,8.58536585 82.1,8.3902439 C82.1,8.19512195 82.2,8 82.3,7.90243902 C82.5,7.80487805 82.7,7.70731707 82.9,7.70731707 L90.8,7.70731707 L90.8,6.82926829 C90.8,6.53658537 90.9,6.43902439 91,6.24390244 C91.2,6.14634146 91.3,6.04878049 91.6,6.04878049 C91.8,6.04878049 92,6.14634146 92.1,6.24390244 C92.3,6.34146341 92.3,6.53658537 92.3,6.82926829 L92.3,7.70731707 L98.8,7.70731707 C99.5,7.70731707 100,7.90243902 100.4,8.29268293 C100.8,8.68292683 101,9.17073171 101,9.75609756 L101,10.4390244 L103,10.4390244 C103.2,10.4390244 103.4,10.4390244 103.5,10.6341463 C103.6,10.7317073 103.7,10.9268293 103.7,11.2195122 C103.7,11.4146341 103.6,11.6097561 103.5,11.7073171 C103.4,11.902439 103.2,11.902439 103,11.902439 L101,11.902439 L101,12.7804878 L101,12.9756098 C100.9,13.3658537 100.8,13.7560976 100.6,14.0487805 C100.3,14.4390244 99.7,14.7317073 99,14.7317073 L92.4,14.7317073 L92.4,16.195122 L100.9,16.195122 C101.1,16.195122 101.3,16.195122 101.4,16.3902439 C101.5,16.4878049 101.6,16.6829268 101.6,16.8780488 C101.6,17.0731707 101.6,17.2682927 101.4,17.3658537 C101.3,17.5609756 101.1,17.5609756 100.9,17.5609756 L92.4,17.5609756 L92.4,19.0243902 L103,19.0243902 C103.2,19.0243902 103.4,19.0243902 103.5,19.2195122 C103.6,19.3170732 103.7,19.5121951 103.7,19.7073171 C103.7,19.902439 103.7,20.097561 103.5,20.195122 C103.4,20.3902439 103.2,20.3902439 103,20.3902439 L80.2,20.3902439 C80,20.3902439 79.8,20.2926829 79.7,20.195122 C79.6,20.097561 79.5,19.902439 79.5,19.7073171 C79.5,19.5121951 79.6,19.3170732 79.7,19.2195122 C79.8,19.1219512 80,19.0243902 80.2,19.0243902 L90.8,19.0243902 L90.8,17.3658537 L90.8,17.3658537 Z" id="Shape" fill="#3F76A5" sketch:type="MSShapeGroup"></path>
                <path d="M56.5,35.0243902 C56.6,34.8292683 56.7,34.5365854 56.7,34.2439024 C56.7,33.9512195 56.7,33.7560976 56.6,33.5609756 C56.5,33.2682927 56.2,33.0731707 55.8,33.0731707 C55.4,33.0731707 55.2,33.2682927 55,33.5609756 C54.9,33.7560976 54.9,33.9512195 54.9,34.2439024 C54.9,34.5365854 55,34.8292683 55.1,35.0243902 C55.2,35.2195122 55.5,35.3170732 55.8,35.3170732 C56.2,35.3170732 56.4,35.2195122 56.5,35.0243902 M57.4,32.6829268 C57.7,33.0731707 57.8,33.4634146 57.8,34.0487805 C57.8,34.6341463 57.7,35.1219512 57.4,35.5121951 C57.1,35.902439 56.7,36.097561 56.2,36.097561 C55.9,36.097561 55.6,36 55.4,35.902439 C55.3,35.804878 55.2,35.7073171 55,35.5121951 L55,36 L54,36 L54,30.8292683 L55,30.8292683 L55,32.6829268 C55.1,32.4878049 55.3,32.3902439 55.4,32.2926829 C55.6,32.195122 55.8,32.097561 56.1,32.097561 C56.7,32.195122 57.1,32.3902439 57.4,32.6829268" id="Shape" fill="#F2254C" sketch:type="MSShapeGroup"></path>
                <path d="M59.6,33.1707317 C59.5,33.2682927 59.4,33.5609756 59.3,33.7560976 L61.1,33.7560976 C61.1,33.4634146 61,33.2682927 60.8,33.1707317 C60.6,33.0731707 60.4,32.9756098 60.2,32.9756098 C59.9,32.9756098 59.7,33.0731707 59.6,33.1707317 M61.1,32.2926829 C61.4,32.3902439 61.6,32.5853659 61.8,32.8780488 C62,33.0731707 62.1,33.3658537 62.1,33.6585366 L62.1,34.4390244 L59.2,34.4390244 C59.2,34.8292683 59.4,35.1219512 59.6,35.2195122 C59.8,35.3170732 59.9,35.3170732 60.2,35.3170732 C60.4,35.3170732 60.6,35.2195122 60.8,35.1219512 C60.9,35.0243902 60.9,34.9268293 61,34.8292683 L62,34.8292683 C62,35.0243902 61.8,35.3170732 61.6,35.5121951 C61.2,35.902439 60.8,36.097561 60.1,36.097561 C59.6,36.097561 59.1,35.902439 58.7,35.6097561 C58.3,35.3170732 58.1,34.8292683 58.1,34.0487805 C58.1,33.3658537 58.3,32.8780488 58.6,32.4878049 C59,32.097561 59.4,32 60,32 C60.5,32.195122 60.8,32.195122 61.1,32.2926829" id="Shape" fill="#F2254C" sketch:type="MSShapeGroup"></path>
                <path d="M63.4,34.8292683 C63.4,35.0243902 63.5,35.1219512 63.5,35.2195122 C63.6,35.3170732 63.9,35.4146341 64.2,35.4146341 C64.4,35.4146341 64.6,35.4146341 64.7,35.3170732 C64.8,35.2195122 64.9,35.2195122 64.9,35.0243902 C64.9,34.9268293 64.9,34.8292683 64.8,34.7317073 C64.7,34.6341463 64.3,34.5365854 63.7,34.4390244 C63.3,34.3414634 62.9,34.2439024 62.8,34.0487805 C62.6,33.8536585 62.5,33.6585366 62.5,33.3658537 C62.5,32.9756098 62.6,32.6829268 62.9,32.4878049 C63.2,32.195122 63.6,32.097561 64.1,32.097561 C64.6,32.097561 65,32.195122 65.3,32.3902439 C65.6,32.5853659 65.8,32.8780488 65.8,33.3658537 L64.8,33.3658537 C64.8,33.2682927 64.7,33.1707317 64.7,33.0731707 C64.6,32.9756098 64.4,32.8780488 64.1,32.8780488 C63.9,32.8780488 63.7,32.8780488 63.6,32.9756098 C63.5,33.0731707 63.5,33.1707317 63.5,33.1707317 C63.5,33.2682927 63.5,33.3658537 63.7,33.4634146 C63.8,33.5609756 64.2,33.5609756 64.8,33.7560976 C65.2,33.8536585 65.5,33.9512195 65.7,34.1463415 C65.9,34.3414634 66,34.5365854 66,34.8292683 C66,35.2195122 65.9,35.5121951 65.6,35.7073171 C65.3,35.902439 64.9,36.097561 64.3,36.097561 C63.7,36.097561 63.2,36 62.9,35.7073171 C62.6,35.4146341 62.5,35.1219512 62.5,34.7317073 L63.4,34.7317073 L63.4,34.8292683 L63.4,34.8292683 Z" id="Shape" fill="#F2254C" sketch:type="MSShapeGroup"></path>
                <path d="M66.3,32.9756098 L66.3,32.2926829 L66.8,32.2926829 L66.8,31.2195122 L67.8,31.2195122 L67.8,32.2926829 L68.4,32.2926829 L68.4,32.9756098 L67.8,32.9756098 L67.8,35.0243902 C67.8,35.2195122 67.8,35.3170732 67.9,35.3170732 C67.9,35.3170732 68.1,35.4146341 68.3,35.4146341 L68.4,35.4146341 L68.5,35.4146341 L68.5,36.195122 L68,36.195122 C67.5,36.195122 67.2,36.097561 67,35.902439 C66.9,35.804878 66.8,35.6097561 66.8,35.4146341 L66.8,33.0731707 L66.3,33.0731707 L66.3,32.9756098 L66.3,32.9756098 Z" id="Shape" fill="#F2254C" sketch:type="MSShapeGroup"></path>
                <path d="M71.7,35.0243902 C71.8,34.8292683 71.9,34.5365854 71.9,34.2439024 C71.9,33.9512195 71.9,33.7560976 71.8,33.5609756 C71.7,33.2682927 71.4,33.0731707 71,33.0731707 C70.6,33.0731707 70.4,33.2682927 70.2,33.5609756 C70.1,33.7560976 70.1,33.9512195 70.1,34.2439024 C70.1,34.5365854 70.2,34.8292683 70.3,35.0243902 C70.4,35.2195122 70.7,35.3170732 71,35.3170732 C71.3,35.3170732 71.5,35.2195122 71.7,35.0243902 M72.5,32.6829268 C72.8,33.0731707 72.9,33.4634146 72.9,34.0487805 C72.9,34.6341463 72.8,35.1219512 72.5,35.5121951 C72.2,35.902439 71.8,36.097561 71.3,36.097561 C71,36.097561 70.7,36 70.5,35.902439 C70.4,35.804878 70.3,35.7073171 70.1,35.5121951 L70.1,36 L69.1,36 L69.1,30.8292683 L70.1,30.8292683 L70.1,32.6829268 C70.2,32.4878049 70.4,32.3902439 70.5,32.2926829 C70.7,32.195122 70.9,32.097561 71.2,32.097561 C71.8,32.195122 72.2,32.3902439 72.5,32.6829268" id="Shape" fill="#F2254C" sketch:type="MSShapeGroup"></path>
                <path d="M76.1,35.0243902 C76.3,34.8292683 76.3,34.5365854 76.3,34.1463415 C76.3,33.7560976 76.2,33.4634146 76.1,33.2682927 C75.9,33.0731707 75.7,32.9756098 75.4,32.9756098 C75.1,32.9756098 74.9,33.0731707 74.7,33.2682927 C74.5,33.4634146 74.5,33.7560976 74.5,34.1463415 C74.5,34.5365854 74.6,34.8292683 74.7,35.0243902 C74.9,35.2195122 75.1,35.3170732 75.4,35.3170732 C75.7,35.3170732 75.9,35.2195122 76.1,35.0243902 M76.9,35.6097561 C76.6,36 76.1,36.195122 75.4,36.195122 C74.7,36.195122 74.2,36 73.9,35.6097561 C73.6,35.2195122 73.4,34.7317073 73.4,34.1463415 C73.4,33.5609756 73.6,33.0731707 73.9,32.6829268 C74.2,32.2926829 74.7,32.097561 75.4,32.097561 C76.1,32.097561 76.6,32.2926829 76.9,32.6829268 C77.2,33.0731707 77.4,33.5609756 77.4,34.1463415 C77.4,34.7317073 77.3,35.2195122 76.9,35.6097561" id="Shape" fill="#F2254C" sketch:type="MSShapeGroup"></path>
                <path d="M80.6,35.0243902 C80.8,34.8292683 80.8,34.5365854 80.8,34.1463415 C80.8,33.7560976 80.7,33.4634146 80.6,33.2682927 C80.4,33.0731707 80.2,32.9756098 79.9,32.9756098 C79.6,32.9756098 79.4,33.0731707 79.2,33.2682927 C79,33.4634146 79,33.7560976 79,34.1463415 C79,34.5365854 79.1,34.8292683 79.2,35.0243902 C79.4,35.2195122 79.6,35.3170732 79.9,35.3170732 C80.2,35.4146341 80.4,35.2195122 80.6,35.0243902 M81.4,35.6097561 C81.1,36 80.6,36.195122 79.9,36.195122 C79.2,36.195122 78.7,36 78.4,35.6097561 C78.1,35.2195122 77.9,34.7317073 77.9,34.1463415 C77.9,33.5609756 78.1,33.0731707 78.4,32.6829268 C78.7,32.2926829 79.2,32.097561 79.9,32.097561 C80.6,32.097561 81.1,32.2926829 81.4,32.6829268 C81.7,33.0731707 81.9,33.5609756 81.9,34.1463415 C81.9,34.7317073 81.7,35.2195122 81.4,35.6097561" id="Shape" fill="#F2254C" sketch:type="MSShapeGroup"></path>
                <path d="M82.6,30.9268293 L83.6,30.9268293 L83.6,33.7560976 L84.9,32.2926829 L86.2,32.2926829 L84.8,33.6585366 L86.3,36.097561 L85,36.097561 L84.1,34.4390244 L83.6,34.8292683 L83.6,36.097561 L82.6,36.097561 L82.6,30.9268293 L82.6,30.9268293 Z" id="Shape" fill="#F2254C" sketch:type="MSShapeGroup"></path>
                <path d="M86.7,35.0243902 L87.8,35.0243902 L87.8,36.097561 L86.7,36.097561 L86.7,35.0243902 L86.7,35.0243902 Z" id="Shape" fill="#F2254C" sketch:type="MSShapeGroup"></path>
                <path d="M91.1,33.6585366 C91.1,33.5609756 91,33.3658537 91,33.2682927 C90.9,33.0731707 90.7,33.0731707 90.5,33.0731707 C90.2,33.0731707 89.9,33.2682927 89.8,33.5609756 C89.7,33.7560976 89.7,33.9512195 89.7,34.2439024 C89.7,34.5365854 89.7,34.7317073 89.8,34.9268293 C89.9,35.2195122 90.2,35.4146341 90.5,35.4146341 C90.7,35.4146341 90.9,35.3170732 91,35.2195122 C91.1,35.1219512 91.2,34.9268293 91.2,34.7317073 L92.2,34.7317073 C92.2,35.0243902 92.1,35.3170732 91.9,35.6097561 C91.6,36 91.1,36.2926829 90.5,36.2926829 C89.9,36.2926829 89.4,36.097561 89.1,35.7073171 C88.8,35.3170732 88.7,34.8292683 88.7,34.2439024 C88.7,33.5609756 88.9,33.0731707 89.2,32.6829268 C89.5,32.2926829 90,32.097561 90.6,32.097561 C91.1,32.097561 91.5,32.195122 91.8,32.3902439 C92.1,32.5853659 92.3,32.9756098 92.4,33.5609756 L91.1,33.5609756 L91.1,33.6585366 L91.1,33.6585366 Z" id="Shape" fill="#F2254C" sketch:type="MSShapeGroup"></path>
                <path d="M95.3,35.0243902 C95.5,34.8292683 95.5,34.5365854 95.5,34.1463415 C95.5,33.7560976 95.4,33.4634146 95.3,33.2682927 C95.1,33.0731707 94.9,32.9756098 94.6,32.9756098 C94.3,32.9756098 94.1,33.0731707 93.9,33.2682927 C93.7,33.4634146 93.7,33.7560976 93.7,34.1463415 C93.7,34.5365854 93.8,34.8292683 93.9,35.0243902 C94.1,35.2195122 94.3,35.3170732 94.6,35.3170732 C94.9,35.4146341 95.2,35.2195122 95.3,35.0243902 M96.1,35.6097561 C95.8,36 95.3,36.195122 94.6,36.195122 C93.9,36.195122 93.4,36 93.1,35.6097561 C92.8,35.2195122 92.6,34.7317073 92.6,34.1463415 C92.6,33.5609756 92.8,33.0731707 93.1,32.6829268 C93.4,32.2926829 93.9,32.097561 94.6,32.097561 C95.3,32.097561 95.8,32.2926829 96.1,32.6829268 C96.4,33.0731707 96.6,33.5609756 96.6,34.1463415 C96.6,34.7317073 96.5,35.2195122 96.1,35.6097561" id="Shape" fill="#F2254C" sketch:type="MSShapeGroup"></path>
                <path d="M102.2,32.2926829 C102.4,32.3902439 102.5,32.4878049 102.7,32.6829268 C102.8,32.7804878 102.9,32.9756098 102.9,33.1707317 L102.9,33.7560976 L102.9,36.195122 L101.9,36.195122 L101.9,33.7560976 C101.9,33.6585366 101.9,33.4634146 101.8,33.3658537 C101.7,33.1707317 101.5,33.0731707 101.3,33.0731707 C101,33.0731707 100.8,33.1707317 100.7,33.4634146 C100.6,33.5609756 100.6,33.7560976 100.6,33.8536585 L100.6,36.097561 L99.6,36.097561 L99.6,33.8536585 C99.6,33.6585366 99.6,33.4634146 99.5,33.3658537 C99.4,33.1707317 99.2,33.0731707 99,33.0731707 C98.7,33.0731707 98.5,33.1707317 98.4,33.3658537 C98.3,33.4634146 98.3,33.6585366 98.3,33.8536585 L98.3,36.195122 L97.3,36.195122 L97.3,32.3902439 L98.3,32.3902439 L98.3,32.9756098 C98.4,32.7804878 98.5,32.6829268 98.7,32.5853659 C98.9,32.3902439 99.2,32.3902439 99.5,32.3902439 C99.8,32.3902439 100,32.4878049 100.2,32.5853659 C100.3,32.6829268 100.5,32.8780488 100.5,33.0731707 C100.6,32.8780488 100.8,32.6829268 101,32.5853659 C101.2,32.4878049 101.4,32.3902439 101.7,32.3902439 C101.9,32.195122 102.1,32.195122 102.2,32.2926829" id="Shape" fill="#F2254C" sketch:type="MSShapeGroup"></path>
                <path d="M48,6.53658537 L47,6.53658537 L47,8.48780488 L47.5,8.48780488 C48.2,8.48780488 48.7,9.07317073 48.7,9.75609756 L48.7,32.8780488 C48.7,33.5609756 48.2,34.2439024 47.5,34.2439024 L27.6,34.2439024 C25.2,34.2439024 22.9,35.1219512 21.1,36.6829268 C19.3,35.1219512 17,34.2439024 14.6,34.2439024 L4,34.2439024 C3.3,34.2439024 2.8,33.5609756 2.8,32.8780488 L2.8,9.75609756 C2.8,9.07317073 3.3,8.48780488 4,8.48780488 L4.5,8.48780488 L4.5,6.53658537 L3.5,6.53658537 C2.2,6.53658537 0.9,7.51219512 0.9,8.87804878 L0.9,33.6585366 C0.9,34.9268293 2.2,36 3.5,36 L14.8,36 C17.5,36 19.9,37.3658537 21.3,39.4146341 C22.7,37.3658537 25.1,36 27.8,36 L48,36 C49.3,36 50.6,34.9268293 50.6,33.6585366 L50.6,8.87804878 C50.7,7.51219512 49.4,6.53658537 48,6.53658537" id="Shape" fill="#3F76A5" sketch:type="MSShapeGroup"></path>
                <path d="M18.8,29.4634146 L5.8,29.4634146 L5.8,5.85365854 L18.9,5.85365854 L18.9,29.4634146 L18.8,29.4634146 L18.8,29.4634146 Z M11.9,32.2926829 C11.3,32.2926829 10.8,31.804878 10.8,31.2195122 C10.8,30.6341463 11.3,30.1463415 11.9,30.1463415 C12.5,30.1463415 13,30.6341463 13,31.2195122 C13,31.804878 12.5,32.2926829 11.9,32.2926829 L11.9,32.2926829 Z M10.8,4.29268293 L14.2,4.29268293 L14.2,4.58536585 L10.8,4.58536585 L10.8,4.29268293 L10.8,4.29268293 L10.8,4.29268293 Z M20.5,4.19512195 C20.5,3.51219512 19.9,3.02439024 19.3,3.02439024 L5.7,3.02439024 C5,3.02439024 4.5,3.6097561 4.5,4.19512195 L4.5,32.195122 C4.5,32.8780488 5.1,33.3658537 5.7,33.3658537 L19.3,33.3658537 C20,33.3658537 20.5,32.7804878 20.5,32.195122 L20.5,4.19512195 L20.5,4.19512195 L20.5,4.19512195 Z" id="Shape" fill="#F2254C" sketch:type="MSShapeGroup"></path>
                <path d="M46,29.7560976 L22.9,29.7560976 L22.9,4.29268293 L46,4.29268293 L46,29.7560976 L46,29.7560976 Z M34,32.195122 C33.4,32.195122 32.9,31.7073171 32.9,31.1219512 C32.9,30.5365854 33.4,30.0487805 34,30.0487805 C34.6,30.0487805 35.1,30.5365854 35.1,31.1219512 C35,31.7073171 34.6,32.195122 34,32.195122 L34,32.195122 Z M34.1,1.65853659 C34.3,1.65853659 34.5,1.85365854 34.5,2.04878049 C34.5,2.24390244 34.3,2.43902439 34.1,2.43902439 C33.9,2.43902439 33.7,2.24390244 33.7,2.04878049 C33.6,1.85365854 33.8,1.65853659 34.1,1.65853659 L34.1,1.65853659 Z M47.7,1.56097561 C47.7,0.87804878 47.2,0.390243902 46.5,0.390243902 L22.7,0.390243902 C22,0.390243902 21.5,0.87804878 21.5,1.56097561 L21.5,32.195122 C21.5,32.8780488 22,33.3658537 22.7,33.3658537 L46.4,33.3658537 C47.1,33.3658537 47.6,32.8780488 47.6,32.195122 L47.6,1.56097561 L47.7,1.56097561 L47.7,1.56097561 Z" id="Shape" fill="#F2254C" sketch:type="MSShapeGroup"></path>
            </g>
            <g id="logo_s" sketch:type="MSLayerGroup" transform="translate(22.000000, 191.000000)">
                <path d="M54.825,11.8536585 C54.975,11.8536585 55.125,11.8536585 55.2,12 C55.275,12.0731707 55.35,12.2195122 55.35,12.4390244 C55.35,12.5853659 55.275,12.7317073 55.2,12.804878 C55.125,12.9512195 54.975,12.9512195 54.825,12.9512195 L50.925,12.9512195 C50.775,12.9512195 50.625,12.8780488 50.475,12.804878 C50.4,12.6585366 50.325,12.5853659 50.325,12.3658537 C50.325,12.2195122 50.4,12.0731707 50.475,12 C50.625,11.9268293 50.7,11.8536585 50.925,11.8536585 L54.825,11.8536585 L54.825,11.8536585 Z M54.75,9.73170732 C54.9,9.73170732 55.05,9.73170732 55.125,9.87804878 C55.2,9.95121951 55.275,10.097561 55.275,10.3170732 C55.275,10.4634146 55.2,10.6097561 55.125,10.6829268 C55.05,10.8292683 54.9,10.8292683 54.75,10.8292683 L50.85,10.8292683 C50.7,10.8292683 50.55,10.7560976 50.4,10.6829268 C50.325,10.5365854 50.25,10.4634146 50.25,10.2439024 C50.25,10.097561 50.325,9.95121951 50.4,9.87804878 C50.55,9.80487805 50.625,9.73170732 50.85,9.73170732 L54.75,9.73170732 L54.75,9.73170732 Z M46.8,9.80487805 C46.95,9.80487805 47.1,9.80487805 47.175,9.95121951 C47.25,10.0243902 47.325,10.1707317 47.325,10.3902439 C47.325,10.5365854 47.25,10.6829268 47.175,10.7560976 C47.1,10.902439 46.95,10.902439 46.8,10.902439 L42.9,10.902439 C42.75,10.902439 42.6,10.8292683 42.45,10.7560976 C42.375,10.6097561 42.3,10.5365854 42.3,10.3170732 C42.3,10.1707317 42.375,10.0243902 42.45,9.95121951 C42.6,9.87804878 42.675,9.80487805 42.9,9.80487805 L46.8,9.80487805 L46.8,9.80487805 Z M55.425,14.3414634 C55.575,14.3414634 55.725,14.3414634 55.8,14.4878049 C55.875,14.5609756 55.95,14.7073171 55.95,14.9268293 C55.95,15.0731707 55.875,15.2195122 55.8,15.2926829 C55.725,15.4390244 55.575,15.4390244 55.425,15.4390244 L42.75,15.4390244 C42.6,15.4390244 42.45,15.3658537 42.3,15.2926829 C42.225,15.1463415 42.15,15.0731707 42.15,14.8536585 C42.15,14.7073171 42.225,14.5609756 42.3,14.4878049 C42.45,14.4146341 42.525,14.3414634 42.75,14.3414634 L55.425,14.3414634 L55.425,14.3414634 Z M46.8,11.8536585 C46.95,11.8536585 47.1,11.8536585 47.175,12 C47.25,12.0731707 47.325,12.2195122 47.325,12.4390244 C47.325,12.5853659 47.25,12.7317073 47.175,12.804878 C47.1,12.9512195 46.95,12.9512195 46.8,12.9512195 L42.75,12.9512195 C42.6,12.9512195 42.45,12.8780488 42.3,12.804878 C42.225,12.6585366 42.15,12.5853659 42.15,12.3658537 C42.15,12.2195122 42.225,12.0731707 42.3,12 C42.45,11.9268293 42.525,11.8536585 42.75,11.8536585 L46.8,11.8536585 L46.8,11.8536585 Z M41.175,21.8780488 C40.95,21.8780488 40.8,21.804878 40.65,21.7317073 C40.575,21.5853659 40.5,21.4390244 40.425,21.2926829 C40.425,21.0731707 40.5,20.9268293 40.575,20.8536585 C40.725,20.7073171 40.875,20.7073171 41.025,20.6341463 L43.575,20.5609756 C44.4,19.6829268 45.15,18.804878 45.9,17.7804878 L40.875,17.7804878 C40.725,17.7804878 40.575,17.7073171 40.425,17.6341463 C40.35,17.4878049 40.275,17.4146341 40.275,17.195122 C40.275,17.0487805 40.35,16.902439 40.425,16.8292683 C40.575,16.7560976 40.65,16.6829268 40.875,16.6829268 L57,16.6829268 C57.15,16.6829268 57.3,16.6829268 57.375,16.8292683 C57.45,16.902439 57.525,17.0487805 57.525,17.2682927 C57.525,17.4146341 57.45,17.5609756 57.375,17.6341463 C57.3,17.7804878 57.15,17.7804878 57,17.7804878 L47.4,17.7804878 C46.875,18.5121951 46.125,19.4634146 45.15,20.4878049 L54.15,20.2682927 L52.8,19.097561 C52.65,18.9512195 52.575,18.8780488 52.575,18.7317073 C52.575,18.5853659 52.575,18.4390244 52.65,18.3658537 C52.8,18.2195122 52.875,18.1463415 53.025,18.1463415 C53.175,18.1463415 53.325,18.1463415 53.475,18.2926829 C56.025,20.4146341 57.225,21.7317073 57.225,22.097561 C57.225,22.2439024 57.15,22.3902439 57.075,22.4634146 C56.925,22.5365854 56.775,22.6097561 56.7,22.6097561 C56.55,22.6097561 56.4,22.5365854 56.25,22.3902439 L55.275,21.3658537 L41.175,21.8780488 L41.175,21.8780488 Z M42.525,8.70731707 C42.15,8.70731707 41.925,8.7804878 41.7,9 C41.55,9.14634146 41.475,9.43902439 41.475,9.73170732 L41.475,11.0487805 C41.475,11.2682927 41.4,11.4146341 41.325,11.4878049 L40.95,11.6341463 C40.8,11.6341463 40.65,11.5609756 40.575,11.4878049 C40.5,11.3414634 40.425,11.195122 40.425,11.0487805 L40.425,9.36585366 C40.425,8.7804878 40.575,8.34146341 40.95,8.04878049 C41.25,7.75609756 41.7,7.53658537 42.3,7.53658537 L48.375,7.53658537 L48.375,6.29268293 L42.3,6.29268293 C42.15,6.29268293 42,6.2195122 41.85,6.14634146 C41.775,6 41.7,5.92682927 41.7,5.70731707 C41.7,5.56097561 41.775,5.41463415 41.85,5.34146341 C42,5.26829268 42.075,5.19512195 42.3,5.19512195 L56.025,5.19512195 C56.175,5.19512195 56.325,5.19512195 56.4,5.34146341 C56.475,5.41463415 56.55,5.56097561 56.55,5.7804878 C56.55,5.92682927 56.475,6.07317073 56.4,6.14634146 C56.325,6.29268293 56.175,6.29268293 56.025,6.29268293 L49.575,6.29268293 L49.575,7.53658537 L56.25,7.53658537 C56.625,7.53658537 56.925,7.6097561 57.15,7.75609756 C57.375,7.90243902 57.525,8.04878049 57.675,8.26829268 C57.975,8.7804878 57.9,9.73170732 57.375,11.1219512 C57.3,11.3414634 57.225,11.4146341 57.075,11.4878049 C56.925,11.5609756 56.775,11.5609756 56.625,11.4878049 C56.25,11.3414634 56.175,11.1219512 56.325,10.7560976 C56.7,9.87804878 56.775,9.29268293 56.625,9 C56.475,8.7804878 56.175,8.63414634 55.725,8.63414634 L49.575,8.63414634 L49.575,12.804878 C49.575,12.9512195 49.5,13.097561 49.425,13.2439024 C49.35,13.3170732 49.2,13.3902439 49.05,13.3902439 C48.9,13.3902439 48.75,13.3170732 48.675,13.2439024 C48.6,13.097561 48.525,12.9512195 48.525,12.804878 L48.525,8.63414634 L42.525,8.63414634 L42.525,8.70731707 L42.525,8.70731707 Z" id="Shape" fill="#3F76A5" sketch:type="MSShapeGroup"></path>
                <path d="M69.3,9.87804878 L73.875,9.87804878 C74.175,9.87804878 74.325,9.80487805 74.475,9.65853659 C74.625,9.51219512 74.625,9.36585366 74.625,9.14634146 L74.625,8.85365854 L69.3,8.85365854 L69.3,9.87804878 L69.3,9.87804878 Z M69.3,7.75609756 L74.625,7.75609756 L74.625,7.46341463 C74.625,7.31707317 74.55,7.17073171 74.4,6.95121951 C74.25,6.80487805 74.1,6.73170732 73.8,6.73170732 L69.225,6.73170732 L69.225,7.75609756 L69.3,7.75609756 L69.3,7.75609756 Z M63.525,19.7560976 L63.525,20.3414634 C63.525,20.5609756 63.6,20.7804878 63.675,20.8536585 C63.75,21 63.9,21 64.125,21 L73.425,21 C73.65,21 73.8,20.9268293 73.95,20.7804878 C74.1,20.6341463 74.1,20.4878049 74.175,20.2682927 L74.175,19.7560976 L63.525,19.7560976 L63.525,19.7560976 Z M74.175,18.6585366 L74.175,17.9268293 C74.175,17.7804878 74.1,17.6341463 74.025,17.4878049 C73.95,17.3414634 73.725,17.3414634 73.5,17.3414634 L64.125,17.3414634 C63.9,17.3414634 63.75,17.3414634 63.675,17.4878049 C63.6,17.5609756 63.525,17.7073171 63.525,17.9268293 L63.525,18.6585366 L74.175,18.6585366 L74.175,18.6585366 Z M63.75,22.1707317 C63.225,22.1707317 62.925,22.0243902 62.7,21.7317073 C62.475,21.4390244 62.4,21.1463415 62.4,20.7804878 L62.4,17.5609756 C62.4,17.1219512 62.55,16.8292683 62.775,16.6097561 C63,16.3170732 63.375,16.2439024 63.75,16.2439024 L73.875,16.2439024 C74.325,16.2439024 74.625,16.3902439 74.85,16.6097561 C75.075,16.8292683 75.225,17.195122 75.225,17.5609756 L75.225,20.7804878 C75.225,21.1463415 75.075,21.5121951 74.85,21.7317073 C74.625,22.0243902 74.25,22.097561 73.875,22.097561 L63.75,22.097561 L63.75,22.1707317 L63.75,22.1707317 Z M68.1,13.0243902 L61.8,13.0243902 C61.65,13.0243902 61.5,12.9512195 61.425,12.8780488 C61.35,12.804878 61.275,12.6585366 61.275,12.5121951 C61.275,12.3658537 61.35,12.2195122 61.425,12.1463415 C61.5,12.0731707 61.65,12 61.8,12 L68.1,12 L68.1,10.9756098 L62.1,10.9756098 C61.95,10.9756098 61.8,10.902439 61.65,10.8292683 C61.575,10.7560976 61.5,10.6097561 61.5,10.4634146 C61.5,10.3170732 61.575,10.1707317 61.65,10.097561 C61.8,10.0243902 61.95,9.95121951 62.1,9.95121951 L68.1,9.95121951 L68.1,8.92682927 L60.15,8.92682927 C60,8.92682927 59.85,8.85365854 59.7,8.7804878 C59.625,8.63414634 59.55,8.56097561 59.55,8.34146341 C59.55,8.19512195 59.625,8.04878049 59.7,7.97560976 C59.85,7.90243902 59.925,7.82926829 60.15,7.82926829 L68.1,7.82926829 L68.1,6.80487805 L62.175,6.80487805 C61.95,6.80487805 61.8,6.73170732 61.725,6.65853659 C61.65,6.51219512 61.575,6.43902439 61.575,6.29268293 C61.575,6.14634146 61.65,6 61.725,5.92682927 C61.875,5.85365854 62.025,5.7804878 62.175,5.7804878 L68.1,5.7804878 L68.1,5.12195122 C68.1,4.90243902 68.175,4.82926829 68.25,4.68292683 C68.4,4.6097561 68.475,4.53658537 68.7,4.53658537 C68.85,4.53658537 69,4.6097561 69.075,4.68292683 C69.225,4.75609756 69.225,4.90243902 69.225,5.12195122 L69.225,5.7804878 L74.1,5.7804878 C74.625,5.7804878 75,5.92682927 75.3,6.2195122 C75.6,6.51219512 75.75,6.87804878 75.75,7.31707317 L75.75,7.82926829 L77.25,7.82926829 C77.4,7.82926829 77.55,7.82926829 77.625,7.97560976 C77.7,8.04878049 77.775,8.19512195 77.775,8.41463415 C77.775,8.56097561 77.7,8.70731707 77.625,8.7804878 C77.55,8.92682927 77.4,8.92682927 77.25,8.92682927 L75.75,8.92682927 L75.75,9.58536585 L75.75,9.73170732 C75.675,10.0243902 75.6,10.3170732 75.45,10.5365854 C75.225,10.8292683 74.775,11.0487805 74.25,11.0487805 L69.3,11.0487805 L69.3,12.1463415 L75.675,12.1463415 C75.825,12.1463415 75.975,12.1463415 76.05,12.2926829 C76.125,12.3658537 76.2,12.5121951 76.2,12.6585366 C76.2,12.804878 76.2,12.9512195 76.05,13.0243902 C75.975,13.1707317 75.825,13.1707317 75.675,13.1707317 L69.3,13.1707317 L69.3,14.2682927 L77.25,14.2682927 C77.4,14.2682927 77.55,14.2682927 77.625,14.4146341 C77.7,14.4878049 77.775,14.6341463 77.775,14.7804878 C77.775,14.9268293 77.775,15.0731707 77.625,15.1463415 C77.55,15.2926829 77.4,15.2926829 77.25,15.2926829 L60.15,15.2926829 C60,15.2926829 59.85,15.2195122 59.775,15.1463415 C59.7,15.0731707 59.625,14.9268293 59.625,14.7804878 C59.625,14.6341463 59.7,14.4878049 59.775,14.4146341 C59.85,14.3414634 60,14.2682927 60.15,14.2682927 L68.1,14.2682927 L68.1,13.0243902 L68.1,13.0243902 Z" id="Shape" fill="#3F76A5" sketch:type="MSShapeGroup"></path>
                <path d="M42.375,26.2682927 C42.45,26.1219512 42.525,25.902439 42.525,25.6829268 C42.525,25.4634146 42.525,25.3170732 42.45,25.1707317 C42.375,24.9512195 42.15,24.804878 41.85,24.804878 C41.55,24.804878 41.4,24.9512195 41.25,25.1707317 C41.175,25.3170732 41.175,25.4634146 41.175,25.6829268 C41.175,25.902439 41.25,26.1219512 41.325,26.2682927 C41.4,26.4146341 41.625,26.4878049 41.85,26.4878049 C42.15,26.4878049 42.3,26.4146341 42.375,26.2682927 M43.05,24.5121951 C43.275,24.804878 43.35,25.097561 43.35,25.5365854 C43.35,25.9756098 43.275,26.3414634 43.05,26.6341463 C42.825,26.9268293 42.525,27.0731707 42.15,27.0731707 C41.925,27.0731707 41.7,27 41.55,26.9268293 C41.475,26.8536585 41.4,26.7804878 41.25,26.6341463 L41.25,27 L40.5,27 L40.5,23.1219512 L41.25,23.1219512 L41.25,24.5121951 C41.325,24.3658537 41.475,24.2926829 41.55,24.2195122 C41.7,24.1463415 41.85,24.0731707 42.075,24.0731707 C42.525,24.1463415 42.825,24.2926829 43.05,24.5121951" id="Shape" fill="#F2254C" sketch:type="MSShapeGroup"></path>
                <path d="M44.7,24.8780488 C44.625,24.9512195 44.55,25.1707317 44.475,25.3170732 L45.825,25.3170732 C45.825,25.097561 45.75,24.9512195 45.6,24.8780488 C45.45,24.804878 45.3,24.7317073 45.15,24.7317073 C44.925,24.7317073 44.775,24.804878 44.7,24.8780488 M45.825,24.2195122 C46.05,24.2926829 46.2,24.4390244 46.35,24.6585366 C46.5,24.804878 46.575,25.0243902 46.575,25.2439024 L46.575,25.8292683 L44.4,25.8292683 C44.4,26.1219512 44.55,26.3414634 44.7,26.4146341 C44.85,26.4878049 44.925,26.4878049 45.15,26.4878049 C45.3,26.4878049 45.45,26.4146341 45.6,26.3414634 C45.675,26.2682927 45.675,26.195122 45.75,26.1219512 L46.5,26.1219512 C46.5,26.2682927 46.35,26.4878049 46.2,26.6341463 C45.9,26.9268293 45.6,27.0731707 45.075,27.0731707 C44.7,27.0731707 44.325,26.9268293 44.025,26.7073171 C43.725,26.4878049 43.575,26.1219512 43.575,25.5365854 C43.575,25.0243902 43.725,24.6585366 43.95,24.3658537 C44.25,24.0731707 44.55,24 45,24 C45.375,24.1463415 45.6,24.1463415 45.825,24.2195122" id="Shape" fill="#F2254C" sketch:type="MSShapeGroup"></path>
                <path d="M47.55,26.1219512 C47.55,26.2682927 47.625,26.3414634 47.625,26.4146341 C47.7,26.4878049 47.925,26.5609756 48.15,26.5609756 C48.3,26.5609756 48.45,26.5609756 48.525,26.4878049 C48.6,26.4146341 48.675,26.4146341 48.675,26.2682927 C48.675,26.195122 48.675,26.1219512 48.6,26.0487805 C48.525,25.9756098 48.225,25.902439 47.775,25.8292683 C47.475,25.7560976 47.175,25.6829268 47.1,25.5365854 C46.95,25.3902439 46.875,25.2439024 46.875,25.0243902 C46.875,24.7317073 46.95,24.5121951 47.175,24.3658537 C47.4,24.1463415 47.7,24.0731707 48.075,24.0731707 C48.45,24.0731707 48.75,24.1463415 48.975,24.2926829 C49.2,24.4390244 49.35,24.6585366 49.35,25.0243902 L48.6,25.0243902 C48.6,24.9512195 48.525,24.8780488 48.525,24.804878 C48.45,24.7317073 48.3,24.6585366 48.075,24.6585366 C47.925,24.6585366 47.775,24.6585366 47.7,24.7317073 C47.625,24.804878 47.625,24.8780488 47.625,24.8780488 C47.625,24.9512195 47.625,25.0243902 47.775,25.097561 C47.85,25.1707317 48.15,25.1707317 48.6,25.3170732 C48.9,25.3902439 49.125,25.4634146 49.275,25.6097561 C49.425,25.7560976 49.5,25.902439 49.5,26.1219512 C49.5,26.4146341 49.425,26.6341463 49.2,26.7804878 C48.975,26.9268293 48.675,27.0731707 48.225,27.0731707 C47.775,27.0731707 47.4,27 47.175,26.7804878 C46.95,26.5609756 46.875,26.3414634 46.875,26.0487805 L47.55,26.0487805 L47.55,26.1219512 L47.55,26.1219512 Z" id="Shape" fill="#F2254C" sketch:type="MSShapeGroup"></path>
                <path d="M49.725,24.7317073 L49.725,24.2195122 L50.1,24.2195122 L50.1,23.4146341 L50.85,23.4146341 L50.85,24.2195122 L51.3,24.2195122 L51.3,24.7317073 L50.85,24.7317073 L50.85,26.2682927 C50.85,26.4146341 50.85,26.4878049 50.925,26.4878049 C50.925,26.4878049 51.075,26.5609756 51.225,26.5609756 L51.3,26.5609756 L51.375,26.5609756 L51.375,27.1463415 L51,27.1463415 C50.625,27.1463415 50.4,27.0731707 50.25,26.9268293 C50.175,26.8536585 50.1,26.7073171 50.1,26.5609756 L50.1,24.804878 L49.725,24.804878 L49.725,24.7317073 L49.725,24.7317073 Z" id="Shape" fill="#F2254C" sketch:type="MSShapeGroup"></path>
                <path d="M53.775,26.2682927 C53.85,26.1219512 53.925,25.902439 53.925,25.6829268 C53.925,25.4634146 53.925,25.3170732 53.85,25.1707317 C53.775,24.9512195 53.55,24.804878 53.25,24.804878 C52.95,24.804878 52.8,24.9512195 52.65,25.1707317 C52.575,25.3170732 52.575,25.4634146 52.575,25.6829268 C52.575,25.902439 52.65,26.1219512 52.725,26.2682927 C52.8,26.4146341 53.025,26.4878049 53.25,26.4878049 C53.475,26.4878049 53.625,26.4146341 53.775,26.2682927 M54.375,24.5121951 C54.6,24.804878 54.675,25.097561 54.675,25.5365854 C54.675,25.9756098 54.6,26.3414634 54.375,26.6341463 C54.15,26.9268293 53.85,27.0731707 53.475,27.0731707 C53.25,27.0731707 53.025,27 52.875,26.9268293 C52.8,26.8536585 52.725,26.7804878 52.575,26.6341463 L52.575,27 L51.825,27 L51.825,23.1219512 L52.575,23.1219512 L52.575,24.5121951 C52.65,24.3658537 52.8,24.2926829 52.875,24.2195122 C53.025,24.1463415 53.175,24.0731707 53.4,24.0731707 C53.85,24.1463415 54.15,24.2926829 54.375,24.5121951" id="Shape" fill="#F2254C" sketch:type="MSShapeGroup"></path>
                <path d="M57.075,26.2682927 C57.225,26.1219512 57.225,25.902439 57.225,25.6097561 C57.225,25.3170732 57.15,25.097561 57.075,24.9512195 C56.925,24.804878 56.775,24.7317073 56.55,24.7317073 C56.325,24.7317073 56.175,24.804878 56.025,24.9512195 C55.875,25.097561 55.875,25.3170732 55.875,25.6097561 C55.875,25.902439 55.95,26.1219512 56.025,26.2682927 C56.175,26.4146341 56.325,26.4878049 56.55,26.4878049 C56.775,26.4878049 56.925,26.4146341 57.075,26.2682927 M57.675,26.7073171 C57.45,27 57.075,27.1463415 56.55,27.1463415 C56.025,27.1463415 55.65,27 55.425,26.7073171 C55.2,26.4146341 55.05,26.0487805 55.05,25.6097561 C55.05,25.1707317 55.2,24.804878 55.425,24.5121951 C55.65,24.2195122 56.025,24.0731707 56.55,24.0731707 C57.075,24.0731707 57.45,24.2195122 57.675,24.5121951 C57.9,24.804878 58.05,25.1707317 58.05,25.6097561 C58.05,26.0487805 57.975,26.4146341 57.675,26.7073171" id="Shape" fill="#F2254C" sketch:type="MSShapeGroup"></path>
                <path d="M60.45,26.2682927 C60.6,26.1219512 60.6,25.902439 60.6,25.6097561 C60.6,25.3170732 60.525,25.097561 60.45,24.9512195 C60.3,24.804878 60.15,24.7317073 59.925,24.7317073 C59.7,24.7317073 59.55,24.804878 59.4,24.9512195 C59.25,25.097561 59.25,25.3170732 59.25,25.6097561 C59.25,25.902439 59.325,26.1219512 59.4,26.2682927 C59.55,26.4146341 59.7,26.4878049 59.925,26.4878049 C60.15,26.5609756 60.3,26.4146341 60.45,26.2682927 M61.05,26.7073171 C60.825,27 60.45,27.1463415 59.925,27.1463415 C59.4,27.1463415 59.025,27 58.8,26.7073171 C58.575,26.4146341 58.425,26.0487805 58.425,25.6097561 C58.425,25.1707317 58.575,24.804878 58.8,24.5121951 C59.025,24.2195122 59.4,24.0731707 59.925,24.0731707 C60.45,24.0731707 60.825,24.2195122 61.05,24.5121951 C61.275,24.804878 61.425,25.1707317 61.425,25.6097561 C61.425,26.0487805 61.275,26.4146341 61.05,26.7073171" id="Shape" fill="#F2254C" sketch:type="MSShapeGroup"></path>
                <path d="M61.95,23.195122 L62.7,23.195122 L62.7,25.3170732 L63.675,24.2195122 L64.65,24.2195122 L63.6,25.2439024 L64.725,27.0731707 L63.75,27.0731707 L63.075,25.8292683 L62.7,26.1219512 L62.7,27.0731707 L61.95,27.0731707 L61.95,23.195122 L61.95,23.195122 Z" id="Shape" fill="#F2254C" sketch:type="MSShapeGroup"></path>
                <path d="M65.025,26.2682927 L65.85,26.2682927 L65.85,27.0731707 L65.025,27.0731707 L65.025,26.2682927 L65.025,26.2682927 Z" id="Shape" fill="#F2254C" sketch:type="MSShapeGroup"></path>
                <path d="M68.325,25.2439024 C68.325,25.1707317 68.25,25.0243902 68.25,24.9512195 C68.175,24.804878 68.025,24.804878 67.875,24.804878 C67.65,24.804878 67.425,24.9512195 67.35,25.1707317 C67.275,25.3170732 67.275,25.4634146 67.275,25.6829268 C67.275,25.902439 67.275,26.0487805 67.35,26.195122 C67.425,26.4146341 67.65,26.5609756 67.875,26.5609756 C68.025,26.5609756 68.175,26.4878049 68.25,26.4146341 C68.325,26.3414634 68.4,26.195122 68.4,26.0487805 L69.15,26.0487805 C69.15,26.2682927 69.075,26.4878049 68.925,26.7073171 C68.7,27 68.325,27.2195122 67.875,27.2195122 C67.425,27.2195122 67.05,27.0731707 66.825,26.7804878 C66.6,26.4878049 66.525,26.1219512 66.525,25.6829268 C66.525,25.1707317 66.675,24.804878 66.9,24.5121951 C67.125,24.2195122 67.5,24.0731707 67.95,24.0731707 C68.325,24.0731707 68.625,24.1463415 68.85,24.2926829 C69.075,24.4390244 69.225,24.7317073 69.3,25.1707317 L68.325,25.1707317 L68.325,25.2439024 L68.325,25.2439024 Z" id="Shape" fill="#F2254C" sketch:type="MSShapeGroup"></path>
                <path d="M71.475,26.2682927 C71.625,26.1219512 71.625,25.902439 71.625,25.6097561 C71.625,25.3170732 71.55,25.097561 71.475,24.9512195 C71.325,24.804878 71.175,24.7317073 70.95,24.7317073 C70.725,24.7317073 70.575,24.804878 70.425,24.9512195 C70.275,25.097561 70.275,25.3170732 70.275,25.6097561 C70.275,25.902439 70.35,26.1219512 70.425,26.2682927 C70.575,26.4146341 70.725,26.4878049 70.95,26.4878049 C71.175,26.5609756 71.4,26.4146341 71.475,26.2682927 M72.075,26.7073171 C71.85,27 71.475,27.1463415 70.95,27.1463415 C70.425,27.1463415 70.05,27 69.825,26.7073171 C69.6,26.4146341 69.45,26.0487805 69.45,25.6097561 C69.45,25.1707317 69.6,24.804878 69.825,24.5121951 C70.05,24.2195122 70.425,24.0731707 70.95,24.0731707 C71.475,24.0731707 71.85,24.2195122 72.075,24.5121951 C72.3,24.804878 72.45,25.1707317 72.45,25.6097561 C72.45,26.0487805 72.375,26.4146341 72.075,26.7073171" id="Shape" fill="#F2254C" sketch:type="MSShapeGroup"></path>
                <path d="M76.65,24.2195122 C76.8,24.2926829 76.875,24.3658537 77.025,24.5121951 C77.1,24.5853659 77.175,24.7317073 77.175,24.8780488 L77.175,25.3170732 L77.175,27.1463415 L76.425,27.1463415 L76.425,25.3170732 C76.425,25.2439024 76.425,25.097561 76.35,25.0243902 C76.275,24.8780488 76.125,24.804878 75.975,24.804878 C75.75,24.804878 75.6,24.8780488 75.525,25.097561 C75.45,25.1707317 75.45,25.3170732 75.45,25.3902439 L75.45,27.0731707 L74.7,27.0731707 L74.7,25.3902439 C74.7,25.2439024 74.7,25.097561 74.625,25.0243902 C74.55,24.8780488 74.4,24.804878 74.25,24.804878 C74.025,24.804878 73.875,24.8780488 73.8,25.0243902 C73.725,25.097561 73.725,25.2439024 73.725,25.3902439 L73.725,27.1463415 L72.975,27.1463415 L72.975,24.2926829 L73.725,24.2926829 L73.725,24.7317073 C73.8,24.5853659 73.875,24.5121951 74.025,24.4390244 C74.175,24.2926829 74.4,24.2926829 74.625,24.2926829 C74.85,24.2926829 75,24.3658537 75.15,24.4390244 C75.225,24.5121951 75.375,24.6585366 75.375,24.804878 C75.45,24.6585366 75.6,24.5121951 75.75,24.4390244 C75.9,24.3658537 76.05,24.2926829 76.275,24.2926829 C76.425,24.1463415 76.575,24.1463415 76.65,24.2195122" id="Shape" fill="#F2254C" sketch:type="MSShapeGroup"></path>
                <path d="M36,4.90243902 L35.25,4.90243902 L35.25,6.36585366 L35.625,6.36585366 C36.15,6.36585366 36.525,6.80487805 36.525,7.31707317 L36.525,24.6585366 C36.525,25.1707317 36.15,25.6829268 35.625,25.6829268 L20.7,25.6829268 C18.9,25.6829268 17.175,26.3414634 15.825,27.5121951 C14.475,26.3414634 12.75,25.6829268 10.95,25.6829268 L3,25.6829268 C2.475,25.6829268 2.1,25.1707317 2.1,24.6585366 L2.1,7.31707317 C2.1,6.80487805 2.475,6.36585366 3,6.36585366 L3.375,6.36585366 L3.375,4.90243902 L2.625,4.90243902 C1.65,4.90243902 0.675,5.63414634 0.675,6.65853659 L0.675,25.2439024 C0.675,26.195122 1.65,27 2.625,27 L11.1,27 C13.125,27 14.925,28.0243902 15.975,29.5609756 C17.025,28.0243902 18.825,27 20.85,27 L36,27 C36.975,27 37.95,26.195122 37.95,25.2439024 L37.95,6.65853659 C38.025,5.63414634 37.05,4.90243902 36,4.90243902" id="Shape" fill="#3F76A5" sketch:type="MSShapeGroup"></path>
                <path d="M14.1,22.097561 L4.35,22.097561 L4.35,4.3902439 L14.175,4.3902439 L14.175,22.097561 L14.1,22.097561 L14.1,22.097561 Z M8.925,24.2195122 C8.475,24.2195122 8.1,23.8536585 8.1,23.4146341 C8.1,22.9756098 8.475,22.6097561 8.925,22.6097561 C9.375,22.6097561 9.75,22.9756098 9.75,23.4146341 C9.75,23.8536585 9.375,24.2195122 8.925,24.2195122 L8.925,24.2195122 Z M8.1,3.2195122 L10.65,3.2195122 L10.65,3.43902439 L8.1,3.43902439 L8.1,3.2195122 L8.1,3.2195122 L8.1,3.2195122 Z M15.375,3.14634146 C15.375,2.63414634 14.925,2.26829268 14.475,2.26829268 L4.275,2.26829268 C3.75,2.26829268 3.375,2.70731707 3.375,3.14634146 L3.375,24.1463415 C3.375,24.6585366 3.825,25.0243902 4.275,25.0243902 L14.475,25.0243902 C15,25.0243902 15.375,24.5853659 15.375,24.1463415 L15.375,3.14634146 L15.375,3.14634146 L15.375,3.14634146 Z" id="Shape" fill="#F2254C" sketch:type="MSShapeGroup"></path>
                <path d="M34.5,22.3170732 L17.175,22.3170732 L17.175,3.2195122 L34.5,3.2195122 L34.5,22.3170732 L34.5,22.3170732 Z M25.5,24.1463415 C25.05,24.1463415 24.675,23.7804878 24.675,23.3414634 C24.675,22.902439 25.05,22.5365854 25.5,22.5365854 C25.95,22.5365854 26.325,22.902439 26.325,23.3414634 C26.25,23.7804878 25.95,24.1463415 25.5,24.1463415 L25.5,24.1463415 Z M25.575,1.24390244 C25.725,1.24390244 25.875,1.3902439 25.875,1.53658537 C25.875,1.68292683 25.725,1.82926829 25.575,1.82926829 C25.425,1.82926829 25.275,1.68292683 25.275,1.53658537 C25.2,1.3902439 25.35,1.24390244 25.575,1.24390244 L25.575,1.24390244 Z M35.775,1.17073171 C35.775,0.658536585 35.4,0.292682927 34.875,0.292682927 L17.025,0.292682927 C16.5,0.292682927 16.125,0.658536585 16.125,1.17073171 L16.125,24.1463415 C16.125,24.6585366 16.5,25.0243902 17.025,25.0243902 L34.8,25.0243902 C35.325,25.0243902 35.7,24.6585366 35.7,24.1463415 L35.7,1.17073171 L35.775,1.17073171 L35.775,1.17073171 Z" id="Shape" fill="#F2254C" sketch:type="MSShapeGroup"></path>
            </g>
            <g id="phone" sketch:type="MSLayerGroup" transform="translate(306.000000, 0.000000)">
                <g id="base_bg" fill="#FFFFFF" sketch:type="MSShapeGroup" fill-opacity="0">
                    <rect id="Rectangle-2" x="0" y="0" width="48" height="48"></rect>
                </g>
                <g id="Group" transform="translate(16.000000, 9.000000)" fill="#000000" sketch:type="MSShapeGroup">
                    <path d="M14,0.7 L14.8,0.7" id="Shape"></path>
                    <path d="M14,0.7 L2.2,0.7 C1,0.7 0,1.7 0,2.9 L0,28.5 C0,29.7 1,30.7 2.2,30.7 L14,30.7 C15.2,30.7 16.2,29.7 16.2,28.5 L16.2,2.9 C16.2,1.7 15.2,0.7 14,0.7 L14,0.7 Z M8.1,29.2 C7.3,29.2 6.7,28.6 6.7,27.8 C6.7,27 7.3,26.4 8.1,26.4 C8.9,26.4 9.5,27 9.5,27.8 C9.5,28.6 8.9,29.2 8.1,29.2 L8.1,29.2 Z M14.6,24.9 L1.6,24.9 L1.6,5.5 L14.6,5.5 L14.6,24.9 L14.6,24.9 Z" id="Shape"></path>
                </g>
            </g>
            <g id="pad" sketch:type="MSLayerGroup" transform="translate(353.000000, 0.000000)">
                <g id="base_bg" fill="#FFFFFF" sketch:type="MSShapeGroup" fill-opacity="0">
                    <rect id="Rectangle-2" x="0" y="0" width="48" height="48"></rect>
                </g>
                <path d="M33.2,9 L15.2,9 C14,9 13,10 13,11.2 L13,36.7 C13,37.9 14,38.9 15.2,38.9 L33.2,38.9 C34.4,38.9 35.4,37.9 35.4,36.7 L35.4,11.2 C35.4,10 34.5,9 33.2,9 L33.2,9 Z M24.3,38 C23.9,38 23.6,37.7 23.6,37.3 C23.6,36.9 23.9,36.6 24.3,36.6 C24.7,36.6 25,36.9 25,37.3 C25,37.7 24.7,38 24.3,38 L24.3,38 Z M33.1,35.6 L15.4,35.6 L15.4,12.3 L33.1,12.3 L33.1,35.6 L33.1,35.6 Z" id="Shape-2" fill="#000000" sketch:type="MSShapeGroup"></path>
            </g>
            <g id="pc" sketch:type="MSLayerGroup" transform="translate(400.000000, 0.000000)">
                <g id="base_bg" fill="#FFFFFF" sketch:type="MSShapeGroup" fill-opacity="0">
                    <rect id="Rectangle-2" x="0" y="0" width="48" height="48"></rect>
                </g>
                <g id="Clipped" transform="translate(8.000000, 10.000000)">
                    <mask id="mask-2" sketch:name="SVGID_1_" fill="white">
                        <use xlink:href="#path-1"></use>
                    </mask>
                    <g id="SVGID_1_"></g>
                    <rect id="Rectangle-path" fill="#000000" sketch:type="MSShapeGroup" mask="url(#mask-2)" x="-0.2" y="-0.5" width="33.5" height="28.3"></rect>
                </g>
            </g>
        </g>
    </g>
</svg>