<?xml version="1.0" encoding="UTF-8" standalone="no"?>
<svg width="114px" height="50px" viewBox="0 0 114 50" version="1.1" xmlns="http://www.w3.org/2000/svg" xmlns:xlink="http://www.w3.org/1999/xlink" xmlns:sketch="http://www.bohemiancoding.com/sketch/ns">
    <!-- Generator: Sketch 3.2.1 (9971) - http://www.bohemiancoding.com/sketch -->
    <title>logo</title>
    <desc>Created with Sketch.</desc>
    <defs></defs>
    <g id="Page-1" stroke="none" stroke-width="1" fill="none" fill-rule="evenodd" sketch:type="MSPage">
        <g id="logo" sketch:type="MSArtboardGroup">
            <g sketch:type="MSLayerGroup" transform="translate(3.000000, 4.000000)" id="Group">
                <g sketch:type="MSShapeGroup">
                    <path d="M75.5307692,16.5245902 C75.8076923,16.5245902 75.9461538,16.5934426 76.0846154,16.7311475 C76.2230769,16.8688525 76.2923077,17.0754098 76.2923077,17.3508197 C76.2923077,17.557377 76.2230769,17.7639344 76.0846154,17.9016393 C75.9461538,18.0393443 75.7384615,18.1081967 75.5307692,18.1081967 L70.2,18.1081967 C69.9230769,18.1081967 69.7846154,18.0393443 69.5769231,17.9016393 C69.4384615,17.7639344 69.3692308,17.557377 69.3692308,17.2819672 C69.3692308,17.0754098 69.4384615,16.8688525 69.5769231,16.7311475 C69.7153846,16.5934426 69.9230769,16.5245902 70.2,16.5245902 L75.5307692,16.5245902 L75.5307692,16.5245902 Z M75.3923077,13.495082 C75.6692308,13.495082 75.8076923,13.5639344 75.9461538,13.7016393 C76.0846154,13.8393443 76.1538462,14.0459016 76.1538462,14.3213115 C76.1538462,14.5278689 76.0846154,14.7344262 75.9461538,14.8721311 C75.8076923,15.0098361 75.6,15.0786885 75.3923077,15.0786885 L70.0615385,15.0786885 C69.7846154,15.0786885 69.6461538,15.0098361 69.4384615,14.8721311 C69.3,14.7344262 69.2307692,14.5278689 69.2307692,14.252459 C69.2307692,14.0459016 69.3,13.8393443 69.4384615,13.7016393 C69.5769231,13.5639344 69.7846154,13.495082 70.0615385,13.495082 L75.3923077,13.495082 L75.3923077,13.495082 Z M64.3153846,13.6327869 C64.5923077,13.6327869 64.7307692,13.7016393 64.8692308,13.8393443 C65.0076923,13.9770492 65.0769231,14.1836066 65.0769231,14.4590164 C65.0769231,14.6655738 65.0076923,14.8721311 64.8692308,15.0098361 C64.7307692,15.147541 64.5230769,15.2163934 64.3153846,15.2163934 L58.9846154,15.2163934 C58.7076923,15.2163934 58.5692308,15.147541 58.3615385,15.0098361 C58.2230769,14.8721311 58.1538462,14.6655738 58.1538462,14.3901639 C58.1538462,14.1836066 58.2230769,13.9770492 58.3615385,13.8393443 C58.5,13.7016393 58.7076923,13.6327869 58.9846154,13.6327869 L64.3153846,13.6327869 L64.3153846,13.6327869 Z M76.3615385,20.0360656 C76.6384615,20.0360656 76.7769231,20.104918 76.9153846,20.242623 C77.0538462,20.3803279 77.1230769,20.5868852 77.1230769,20.8622951 C77.1230769,21.0688525 77.0538462,21.2754098 76.9153846,21.4131148 C76.7769231,21.5508197 76.5692308,21.6196721 76.3615385,21.6196721 L58.7769231,21.6196721 C58.5,21.6196721 58.3615385,21.5508197 58.1538462,21.4131148 C58.0153846,21.2754098 57.9461538,21.0688525 57.9461538,20.7934426 C57.9461538,20.5868852 58.0153846,20.3803279 58.1538462,20.242623 C58.2923077,20.104918 58.5,20.0360656 58.7769231,20.0360656 L76.3615385,20.0360656 L76.3615385,20.0360656 Z M64.3153846,16.5245902 C64.5923077,16.5245902 64.7307692,16.5934426 64.8692308,16.7311475 C65.0076923,16.8688525 65.0769231,17.0754098 65.0769231,17.3508197 C65.0769231,17.557377 65.0076923,17.7639344 64.8692308,17.9016393 C64.7307692,18.0393443 64.5230769,18.1081967 64.3153846,18.1081967 L58.7076923,18.1081967 C58.4307692,18.1081967 58.2923077,18.0393443 58.0846154,17.9016393 C57.9461538,17.7639344 57.8769231,17.557377 57.8769231,17.2819672 C57.8769231,17.0754098 57.9461538,16.8688525 58.0846154,16.7311475 C58.2230769,16.5934426 58.4307692,16.5245902 58.7076923,16.5245902 L64.3153846,16.5245902 L64.3153846,16.5245902 Z M56.5615385,30.7081967 C56.2153846,30.7081967 56.0076923,30.6393443 55.8692308,30.5016393 C55.7307692,30.295082 55.6615385,30.0885246 55.5923077,29.8819672 C55.5923077,29.6065574 55.6615385,29.4 55.8,29.2622951 C55.9384615,29.1245902 56.2153846,28.9868852 56.4923077,28.9868852 L60.0230769,28.9180328 C61.1307692,27.6786885 62.1692308,26.3704918 63.2076923,24.9934426 L56.2846154,24.9934426 C56.0076923,24.9934426 55.8692308,24.9245902 55.6615385,24.7868852 C55.5230769,24.6491803 55.4538462,24.442623 55.4538462,24.1672131 C55.4538462,23.9606557 55.5230769,23.7540984 55.6615385,23.6163934 C55.8,23.4786885 56.0076923,23.4098361 56.2846154,23.4098361 L78.5769231,23.4098361 C78.8538462,23.4098361 78.9923077,23.4786885 79.1307692,23.6163934 C79.2692308,23.7540984 79.3384615,23.9606557 79.3384615,24.2360656 C79.3384615,24.442623 79.2692308,24.6491803 79.1307692,24.7868852 C78.9923077,24.9245902 78.7846154,24.9934426 78.5769231,24.9934426 L65.1461538,24.9934426 C64.3846154,26.0262295 63.4153846,27.3344262 62.0307692,28.8491803 L74.4923077,28.504918 L72.6923077,26.852459 C72.4846154,26.7147541 72.3461538,26.5081967 72.3461538,26.3016393 C72.2769231,26.095082 72.3461538,25.8885246 72.4846154,25.7508197 C72.6230769,25.5442623 72.8307692,25.4754098 73.0384615,25.4065574 C73.2461538,25.3377049 73.4538462,25.4065574 73.6615385,25.6131148 C77.1923077,28.642623 78.9230769,30.4327869 78.8538462,30.9836066 C78.8538462,31.1901639 78.7846154,31.3278689 78.6461538,31.5344262 C78.4384615,31.6721311 78.3,31.7409836 78.0923077,31.7409836 C77.8846154,31.6721311 77.6769231,31.6032787 77.4692308,31.3967213 L76.0846154,29.9508197 L56.5615385,30.7081967 L56.5615385,30.7081967 Z M58.5,12.1180328 C58.0153846,12.1180328 57.6692308,12.2557377 57.3923077,12.5311475 C57.1846154,12.8065574 57.0461538,13.1508197 57.0461538,13.5639344 L57.0461538,15.4229508 C57.0461538,15.6983607 56.9769231,15.904918 56.8384615,16.042623 L56.2846154,16.2491803 C56.0769231,16.1803279 55.8692308,16.1114754 55.7307692,16.042623 C55.5923077,15.8360656 55.5230769,15.6295082 55.5230769,15.4229508 L55.5230769,13.0819672 C55.5230769,12.3245902 55.7307692,11.704918 56.2153846,11.2229508 C56.7,10.7409836 57.3230769,10.5344262 58.0846154,10.5344262 L66.4615385,10.5344262 L66.4615385,8.81311475 L57.9461538,8.81311475 C57.6692308,8.81311475 57.5307692,8.7442623 57.3230769,8.60655738 C57.1846154,8.46885246 57.1153846,8.26229508 57.1153846,7.98688525 C57.1153846,7.78032787 57.1846154,7.57377049 57.3230769,7.43606557 C57.4615385,7.29836066 57.6692308,7.2295082 57.9461538,7.2295082 L76.9153846,7.2295082 C77.1923077,7.2295082 77.3307692,7.29836066 77.4692308,7.43606557 C77.6076923,7.57377049 77.6769231,7.78032787 77.6769231,8.0557377 C77.6769231,8.26229508 77.6076923,8.46885246 77.4692308,8.60655738 C77.3307692,8.7442623 77.1230769,8.81311475 76.9153846,8.81311475 L67.9846154,8.81311475 L67.9846154,10.5344262 L77.2615385,10.5344262 C77.8153846,10.5344262 78.2307692,10.6032787 78.5769231,10.8098361 C78.8538462,11.0163934 79.0615385,11.2229508 79.2692308,11.5672131 C79.6846154,12.2557377 79.6153846,13.6327869 78.9230769,15.5606557 C78.8538462,15.8360656 78.7153846,15.9737705 78.5076923,16.1114754 C78.3,16.1803279 78.1615385,16.1803279 77.8846154,16.1114754 C77.4,15.904918 77.2615385,15.5606557 77.4,15.0786885 C77.8846154,13.7704918 78.0230769,13.0131148 77.7461538,12.6 C77.4692308,12.2557377 77.0538462,12.0491803 76.5,12.0491803 L67.9846154,12.0491803 L67.9846154,17.9704918 C67.9846154,18.2459016 67.9153846,18.452459 67.7769231,18.5901639 C67.6384615,18.7278689 67.4307692,18.7967213 67.2230769,18.7967213 C67.0153846,18.7967213 66.8076923,18.7278689 66.6692308,18.5901639 C66.5307692,18.3836066 66.4615385,18.1770492 66.4615385,17.9704918 L66.4615385,12.0491803 L58.5,12.0491803 L58.5,12.1180328 L58.5,12.1180328 Z" id="Shape" fill="#3F76A5"></path>
                    <path d="M95.4692308,13.7704918 L101.838462,13.7704918 C102.253846,13.7704918 102.530769,13.6327869 102.669231,13.495082 C102.807692,13.2885246 102.876923,13.0131148 102.876923,12.7377049 L102.876923,12.3245902 L95.4692308,12.3245902 L95.4692308,13.7704918 L95.4692308,13.7704918 Z M95.4692308,10.7409836 L102.876923,10.7409836 L102.876923,10.3278689 C102.876923,10.1213115 102.807692,9.84590164 102.6,9.63934426 C102.392308,9.43278689 102.184615,9.29508197 101.769231,9.29508197 L95.4,9.29508197 L95.4,10.7409836 L95.4692308,10.7409836 L95.4692308,10.7409836 Z M87.5769231,27.6786885 L87.5769231,28.504918 C87.5769231,28.8491803 87.6461538,29.0557377 87.7846154,29.2622951 C87.9230769,29.4 88.1307692,29.4688525 88.4076923,29.4688525 L101.284615,29.4688525 C101.561538,29.4 101.838462,29.3311475 101.976923,29.1934426 C102.115385,28.9868852 102.253846,28.7803279 102.253846,28.4360656 L102.253846,27.6098361 L87.5769231,27.6098361 L87.5769231,27.6786885 L87.5769231,27.6786885 Z M102.253846,26.095082 L102.253846,25.1311475 C102.253846,24.9245902 102.184615,24.7180328 102.046154,24.5114754 C101.907692,24.3737705 101.630769,24.304918 101.284615,24.304918 L88.4076923,24.304918 C88.1307692,24.2360656 87.9230769,24.3737705 87.7846154,24.5114754 C87.6461538,24.6491803 87.5769231,24.8557377 87.5769231,25.1311475 L87.5769231,26.095082 L102.253846,26.095082 L102.253846,26.095082 Z M87.8538462,31.1213115 C87.1615385,31.052459 86.6769231,30.9147541 86.4,30.5016393 C86.1230769,30.0885246 85.9846154,29.6754098 85.9846154,29.1934426 L85.9846154,24.6491803 C85.9846154,24.0983607 86.1923077,23.6163934 86.5384615,23.2721311 C86.8846154,22.9278689 87.3692308,22.7213115 87.9230769,22.7213115 L101.976923,22.7213115 C102.6,22.7213115 103.015385,22.8590164 103.361538,23.2721311 C103.707692,23.6163934 103.846154,24.0983607 103.915385,24.6491803 L103.915385,29.1934426 C103.915385,29.7442623 103.707692,30.157377 103.361538,30.5704918 C103.015385,30.9147541 102.530769,31.1213115 101.976923,31.1213115 L87.8538462,31.1213115 L87.8538462,31.1213115 Z M93.9461538,18.2459016 L85.1538462,18.2459016 C84.9461538,18.2459016 84.7384615,18.1770492 84.6,18.0393443 C84.4615385,17.9016393 84.3923077,17.7639344 84.3923077,17.4885246 C84.3923077,17.2819672 84.4615385,17.0754098 84.6,17.0065574 C84.7384615,16.8688525 84.9461538,16.8 85.1538462,16.8 L93.9461538,16.8 L93.9461538,15.2852459 L85.6384615,15.2852459 C85.3615385,15.2852459 85.1538462,15.2163934 85.0153846,15.0786885 C84.8769231,14.9409836 84.8076923,14.7344262 84.8076923,14.5967213 C84.8076923,14.3901639 84.8769231,14.1836066 85.0153846,14.0459016 C85.1538462,13.9081967 85.3615385,13.8393443 85.6384615,13.8393443 L93.9461538,13.8393443 L93.9461538,12.3934426 L82.9384615,12.3934426 C82.6615385,12.3934426 82.5230769,12.3245902 82.3153846,12.1868852 C82.1769231,12.0491803 82.1076923,11.842623 82.1076923,11.5672131 C82.1076923,11.3606557 82.1769231,11.1540984 82.3153846,11.0163934 C82.4538462,10.8786885 82.6615385,10.8098361 82.9384615,10.8098361 L93.9461538,10.8098361 L93.9461538,9.36393443 L85.7076923,9.36393443 C85.4307692,9.36393443 85.2230769,9.29508197 85.0846154,9.15737705 C84.9461538,9.01967213 84.8769231,8.81311475 84.8769231,8.60655738 C84.8769231,8.4 84.9461538,8.19344262 85.0846154,8.12459016 C85.2923077,7.98688525 85.5,7.91803279 85.7076923,7.91803279 L93.9461538,7.91803279 L93.9461538,7.02295082 C93.9461538,6.74754098 94.0153846,6.54098361 94.1538462,6.40327869 C94.2923077,6.26557377 94.5,6.19672131 94.7769231,6.19672131 C95.0538462,6.19672131 95.1923077,6.26557377 95.3307692,6.40327869 C95.4692308,6.54098361 95.5384615,6.74754098 95.5384615,7.02295082 L95.5384615,7.91803279 L102.323077,7.91803279 C103.015385,7.91803279 103.569231,8.12459016 103.984615,8.53770492 C104.4,8.95081967 104.538462,9.50163934 104.538462,10.1213115 L104.538462,10.8098361 L106.615385,10.8098361 C106.892308,10.8098361 107.030769,10.8786885 107.169231,11.0163934 C107.307692,11.1540984 107.376923,11.3606557 107.376923,11.6360656 C107.376923,11.842623 107.307692,12.0491803 107.169231,12.1868852 C107.030769,12.3245902 106.823077,12.3934426 106.615385,12.3934426 L104.538462,12.3934426 L104.538462,13.357377 L104.538462,13.5639344 C104.469231,14.0459016 104.330769,14.3901639 104.053846,14.6655738 C103.707692,15.147541 103.153846,15.3540984 102.392308,15.3540984 L95.5384615,15.3540984 L95.5384615,16.8688525 L104.4,16.8688525 C104.607692,16.8688525 104.815385,16.9377049 104.953846,17.0754098 C105.092308,17.2131148 105.161538,17.3508197 105.161538,17.6262295 C105.161538,17.8327869 105.092308,17.9704918 104.953846,18.1081967 C104.815385,18.2459016 104.607692,18.3147541 104.4,18.3147541 L95.5384615,18.3147541 L95.5384615,19.8295082 L106.615385,19.8295082 C106.823077,19.8295082 107.030769,19.8983607 107.169231,20.0360656 C107.307692,20.1737705 107.376923,20.3114754 107.376923,20.5868852 C107.376923,20.7934426 107.307692,20.9311475 107.169231,21.0688525 C107.030769,21.2065574 106.823077,21.2754098 106.615385,21.2754098 L82.9384615,21.2754098 C82.7307692,21.2754098 82.5230769,21.2065574 82.3846154,21.0688525 C82.2461538,20.9311475 82.1769231,20.7934426 82.1769231,20.5180328 C82.1769231,20.3114754 82.2461538,20.104918 82.3846154,20.0360656 C82.5230769,19.8983607 82.7307692,19.8295082 82.9384615,19.8295082 L93.9461538,19.8295082 L93.9461538,18.2459016 L93.9461538,18.2459016 L93.9461538,18.2459016 Z" id="Shape" fill="#3F76A5"></path>
                    <path d="M58.2923077,36.904918 C58.4307692,36.6983607 58.5,36.4229508 58.5,36.0098361 C58.5,35.7344262 58.4307692,35.4590164 58.3615385,35.3213115 C58.2230769,34.9770492 57.9461538,34.7704918 57.6,34.7704918 C57.1846154,34.7704918 56.9769231,34.9770492 56.7692308,35.3213115 C56.7,35.5278689 56.6307692,35.7344262 56.6307692,36.0098361 C56.6307692,36.3540984 56.7,36.6295082 56.8384615,36.8360656 C56.9769231,37.042623 57.2538462,37.1803279 57.5307692,37.1803279 C57.9461538,37.2491803 58.1538462,37.1114754 58.2923077,36.904918 M59.1923077,34.4262295 C59.4692308,34.8393443 59.6769231,35.3213115 59.6769231,35.9409836 C59.6769231,36.5606557 59.5384615,37.1114754 59.2615385,37.5245902 C58.9846154,37.9377049 58.5692308,38.1442623 58.0153846,38.1442623 C57.6692308,38.1442623 57.3923077,38.0754098 57.1846154,37.9377049 C57.0461538,37.8688525 56.9076923,37.7311475 56.7692308,37.5245902 L56.7692308,38.0065574 L55.7307692,38.0065574 L55.7307692,32.5672131 L56.7692308,32.5672131 L56.7692308,34.495082 C56.9076923,34.2885246 57.0461538,34.1508197 57.1846154,34.0819672 C57.3923077,33.9442623 57.6,33.8754098 57.9461538,33.8754098 C58.4307692,33.8754098 58.9153846,34.0819672 59.1923077,34.4262295" id="Shape" fill="#F2254C"></path>
                    <path d="M61.4769231,34.9770492 C61.3384615,35.1147541 61.2,35.3213115 61.2,35.5967213 L63,35.5967213 C63,35.3213115 62.8615385,35.1147541 62.7230769,34.9770492 C62.5846154,34.8393443 62.3769231,34.7704918 62.1,34.7704918 C61.8230769,34.7016393 61.6153846,34.7704918 61.4769231,34.9770492 M63,34.0131148 C63.2769231,34.1508197 63.4846154,34.357377 63.6923077,34.6327869 C63.8307692,34.8393443 63.9692308,35.1836066 64.0384615,35.4590164 C64.0384615,35.6655738 64.1076923,35.9409836 64.1076923,36.2852459 L61.1307692,36.2852459 C61.1307692,36.6983607 61.2692308,36.9737705 61.5461538,37.1114754 C61.6846154,37.1803279 61.8923077,37.2491803 62.1,37.2491803 C62.3076923,37.2491803 62.5153846,37.1803279 62.7230769,37.042623 C62.7923077,36.9737705 62.8615385,36.904918 62.9307692,36.7672131 L64.0384615,36.7672131 C64.0384615,36.9737705 63.9,37.2491803 63.6230769,37.5245902 C63.2769231,37.9377049 62.7230769,38.1442623 62.1,38.1442623 C61.5461538,38.1442623 61.0615385,38.0065574 60.6461538,37.6622951 C60.2307692,37.3180328 60.0230769,36.7672131 60.0230769,36.0786885 C60.0230769,35.3901639 60.2307692,34.8393443 60.5769231,34.495082 C60.9230769,34.1508197 61.4076923,33.9442623 62.0307692,33.9442623 C62.4461538,33.8754098 62.7230769,33.9442623 63,34.0131148" id="Shape" fill="#F2254C"></path>
                    <path d="M65.4230769,36.6983607 C65.4230769,36.904918 65.4923077,37.042623 65.5615385,37.1114754 C65.7,37.2491803 65.9076923,37.3180328 66.3230769,37.3180328 C66.5307692,37.3180328 66.6692308,37.3180328 66.8076923,37.2491803 C66.9461538,37.1803279 67.0153846,37.1114754 67.0153846,36.9737705 C67.0153846,36.8360656 66.9461538,36.7672131 66.8769231,36.6983607 C66.8076923,36.6295082 66.3923077,36.5606557 65.7692308,36.3540984 C65.2846154,36.2163934 65.0076923,36.0786885 64.8,35.9409836 C64.5923077,35.8032787 64.5230769,35.5278689 64.5230769,35.1836066 C64.5230769,34.8393443 64.6615385,34.495082 64.9384615,34.2196721 C65.2153846,33.9442623 65.6307692,33.8065574 66.1846154,33.8065574 C66.6692308,33.8065574 67.0846154,33.8754098 67.4307692,34.0819672 C67.7769231,34.2885246 67.9153846,34.6327869 67.9846154,35.1147541 L66.9461538,35.1147541 C66.9461538,34.9770492 66.8769231,34.8393443 66.8076923,34.7704918 C66.6692308,34.6327869 66.4615385,34.5639344 66.1846154,34.5639344 C65.9769231,34.5639344 65.7692308,34.6327869 65.7,34.7016393 C65.6307692,34.7704918 65.5615385,34.8393443 65.5615385,34.9770492 C65.5615385,35.1147541 65.6307692,35.1836066 65.7,35.252459 C65.8384615,35.3213115 66.1846154,35.3901639 66.8076923,35.5278689 C67.2230769,35.5967213 67.5692308,35.8032787 67.7769231,36.0098361 C67.9846154,36.2163934 68.1230769,36.4918033 68.1230769,36.7672131 C68.1230769,37.1803279 67.9846154,37.5245902 67.6384615,37.7311475 C67.3615385,38.0065574 66.8769231,38.1442623 66.2538462,38.1442623 C65.6307692,38.1442623 65.1461538,38.0065574 64.8692308,37.7311475 C64.5923077,37.4557377 64.3846154,37.1114754 64.3846154,36.6983607 L65.4230769,36.6983607 L65.4230769,36.6983607 L65.4230769,36.6983607 Z" id="Shape" fill="#F2254C"></path>
                    <path d="M68.4692308,34.7704918 L68.4692308,34.0131148 L69.0230769,34.0131148 L69.0230769,32.9114754 L70.0615385,32.9114754 L70.0615385,34.0131148 L70.7538462,34.0131148 L70.7538462,34.7704918 L70.0615385,34.7704918 L70.0615385,36.904918 C70.0615385,37.042623 70.0615385,37.1803279 70.1307692,37.1803279 C70.2,37.2491803 70.2692308,37.2491803 70.5461538,37.2491803 L70.6153846,37.2491803 L70.7538462,37.2491803 L70.7538462,38.0065574 L70.2692308,38.0065574 C69.7846154,38.0065574 69.4384615,37.9377049 69.2307692,37.7311475 C69.0923077,37.5934426 69.0230769,37.4557377 69.0230769,37.1803279 L69.0230769,34.7016393 L68.4692308,34.7016393 L68.4692308,34.7704918 L68.4692308,34.7704918 Z" id="Shape" fill="#F2254C"></path>
                    <path d="M74.0076923,36.904918 C74.1461538,36.6983607 74.2153846,36.4229508 74.2153846,36.0098361 C74.2153846,35.7344262 74.1461538,35.4590164 74.0769231,35.3213115 C73.9384615,34.9770492 73.6615385,34.7704918 73.3153846,34.7704918 C72.9,34.7704918 72.6923077,34.9770492 72.4846154,35.3213115 C72.4153846,35.5278689 72.3461538,35.7344262 72.3461538,36.0098361 C72.3461538,36.3540984 72.4153846,36.6295082 72.5538462,36.8360656 C72.6923077,37.042623 72.9692308,37.1803279 73.2461538,37.1803279 C73.6615385,37.2491803 73.8692308,37.1114754 74.0076923,36.904918 M74.9076923,34.4262295 C75.1846154,34.8393443 75.3923077,35.3213115 75.3923077,35.9409836 C75.3923077,36.5606557 75.2538462,37.1114754 74.9769231,37.5245902 C74.7,37.9377049 74.2846154,38.1442623 73.7307692,38.1442623 C73.3846154,38.1442623 73.1076923,38.0754098 72.9,37.9377049 C72.7615385,37.8688525 72.6230769,37.7311475 72.4846154,37.5245902 L72.4846154,38.0065574 L71.4461538,38.0065574 L71.4461538,32.5672131 L72.4846154,32.5672131 L72.4846154,34.495082 C72.6230769,34.2885246 72.7615385,34.1508197 72.9,34.0819672 C73.1076923,33.9442623 73.3153846,33.8754098 73.6615385,33.8754098 C74.1461538,33.8754098 74.5615385,34.0819672 74.9076923,34.4262295" id="Shape" fill="#F2254C"></path>
                    <path d="M78.6461538,36.904918 C78.7846154,36.6983607 78.9230769,36.3540984 78.9230769,35.9409836 C78.9230769,35.5278689 78.8538462,35.252459 78.6461538,34.9770492 C78.5076923,34.7704918 78.2307692,34.6327869 77.9538462,34.6327869 C77.6769231,34.6327869 77.4,34.7704918 77.2615385,34.9770492 C77.1230769,35.1836066 76.9846154,35.5278689 76.9846154,35.9409836 C76.9846154,36.3540984 77.0538462,36.6295082 77.2615385,36.904918 C77.4,37.1114754 77.6769231,37.2491803 77.9538462,37.2491803 C78.2307692,37.2491803 78.4384615,37.1114754 78.6461538,36.904918 M79.4769231,37.5245902 C79.1307692,37.9377049 78.6461538,38.1442623 77.8846154,38.1442623 C77.1923077,38.1442623 76.6384615,37.9377049 76.2923077,37.5245902 C75.9461538,37.1114754 75.8076923,36.6295082 75.8076923,36.0098361 C75.8076923,35.4590164 75.9461538,34.9081967 76.2923077,34.495082 C76.6384615,34.0819672 77.1230769,33.8754098 77.8846154,33.8754098 C78.5769231,33.8754098 79.1307692,34.0819672 79.4769231,34.495082 C79.8230769,34.9081967 79.9615385,35.4590164 79.9615385,36.0098361 C79.9615385,36.5606557 79.8230769,37.1114754 79.4769231,37.5245902" id="Shape" fill="#F2254C"></path>
                    <path d="M83.2846154,36.904918 C83.4230769,36.6983607 83.5615385,36.3540984 83.5615385,35.9409836 C83.5615385,35.5278689 83.4923077,35.252459 83.2846154,34.9770492 C83.1461538,34.7704918 82.8692308,34.6327869 82.5923077,34.6327869 C82.3153846,34.6327869 82.0384615,34.7704918 81.9,34.9770492 C81.7615385,35.1836066 81.6230769,35.5278689 81.6230769,35.9409836 C81.6230769,36.3540984 81.6923077,36.6295082 81.9,36.904918 C82.0384615,37.1114754 82.3153846,37.2491803 82.5923077,37.2491803 C82.8692308,37.2491803 83.1461538,37.1114754 83.2846154,36.904918 M84.1153846,37.5245902 C83.7692308,37.9377049 83.2846154,38.1442623 82.5230769,38.1442623 C81.8307692,38.1442623 81.2769231,37.9377049 80.9307692,37.5245902 C80.5846154,37.1114754 80.4461538,36.6295082 80.4461538,36.0098361 C80.4461538,35.4590164 80.5846154,34.9081967 80.9307692,34.495082 C81.2769231,34.0819672 81.7615385,33.8754098 82.5230769,33.8754098 C83.2153846,33.8754098 83.7692308,34.0819672 84.1153846,34.495082 C84.4615385,34.9081967 84.6,35.4590164 84.6,36.0098361 C84.6692308,36.5606557 84.4615385,37.1114754 84.1153846,37.5245902" id="Shape" fill="#F2254C"></path>
                    <path d="M85.4307692,32.5672131 L86.4692308,32.5672131 L86.4692308,35.5278689 L87.7846154,34.0131148 L89.1,34.0131148 L87.6461538,35.4590164 L89.1692308,38.0065574 L87.8538462,38.0065574 L86.8846154,36.2852459 L86.4692308,36.6983607 L86.4692308,38.0065574 L85.4307692,38.0065574 L85.4307692,32.5672131 L85.4307692,32.5672131 Z" id="Shape" fill="#F2254C"></path>
                    <path d="M89.6538462,36.904918 L90.7615385,36.904918 L90.7615385,38.0065574 L89.6538462,38.0065574 L89.6538462,36.904918 L89.6538462,36.904918 Z" id="Shape" fill="#F2254C"></path>
                    <path d="M94.2230769,35.3901639 C94.2230769,35.252459 94.1538462,35.1147541 94.0846154,34.9770492 C93.9461538,34.8393443 93.8076923,34.7016393 93.5307692,34.7016393 C93.1846154,34.7016393 92.9076923,34.9081967 92.7692308,35.252459 C92.7,35.4590164 92.6307692,35.6655738 92.6307692,36.0098361 C92.6307692,36.2852459 92.7,36.5606557 92.7692308,36.6983607 C92.9076923,37.042623 93.1153846,37.1803279 93.4615385,37.1803279 C93.7384615,37.1803279 93.8769231,37.1114754 94.0153846,36.9737705 C94.1538462,36.8360656 94.1538462,36.6983607 94.2230769,36.4229508 L95.3307692,36.4229508 C95.3307692,36.7672131 95.1923077,37.042623 94.9846154,37.3180328 C94.6384615,37.8 94.1538462,38.0065574 93.5307692,38.0065574 C92.9076923,38.0065574 92.4230769,37.8 92.0769231,37.4557377 C91.8,37.042623 91.5923077,36.5606557 91.5923077,35.9409836 C91.5923077,35.252459 91.7307692,34.7016393 92.0769231,34.2885246 C92.4230769,33.8754098 92.9076923,33.7377049 93.4615385,33.7377049 C93.9461538,33.7377049 94.3615385,33.8754098 94.7076923,34.0819672 C95.0538462,34.2885246 95.1923077,34.7016393 95.2615385,35.252459 L94.2230769,35.252459 L94.2230769,35.3901639 L94.2230769,35.3901639 Z" id="Shape" fill="#F2254C"></path>
                    <path d="M98.5846154,36.904918 C98.7230769,36.6983607 98.8615385,36.3540984 98.8615385,35.9409836 C98.8615385,35.5278689 98.7923077,35.252459 98.5846154,34.9770492 C98.4461538,34.7704918 98.1692308,34.6327869 97.8923077,34.6327869 C97.6153846,34.6327869 97.3384615,34.7704918 97.2,34.9770492 C97.0615385,35.1836066 96.9230769,35.5278689 96.9230769,35.9409836 C96.9230769,36.3540984 96.9923077,36.6295082 97.2,36.904918 C97.3384615,37.1114754 97.6153846,37.2491803 97.8923077,37.2491803 C98.1692308,37.2491803 98.3769231,37.1114754 98.5846154,36.904918 M99.4153846,37.5245902 C99.0692308,37.9377049 98.5846154,38.1442623 97.8230769,38.1442623 C97.1307692,38.1442623 96.5769231,37.9377049 96.2307692,37.5245902 C95.8846154,37.1114754 95.7461538,36.6295082 95.7461538,36.0098361 C95.7461538,35.4590164 95.8846154,34.9081967 96.2307692,34.495082 C96.5769231,34.0819672 97.0615385,33.8754098 97.8230769,33.8754098 C98.5153846,33.8754098 99.0692308,34.0819672 99.4153846,34.495082 C99.7615385,34.9081967 99.9,35.4590164 99.9,36.0098361 C99.9,36.5606557 99.7615385,37.1114754 99.4153846,37.5245902" id="Shape" fill="#F2254C"></path>
                    <path d="M105.784615,33.9442623 C105.992308,34.0131148 106.130769,34.1508197 106.269231,34.2885246 C106.407692,34.4262295 106.476923,34.6327869 106.476923,34.8393443 C106.476923,34.9770492 106.546154,35.1836066 106.546154,35.4590164 L106.546154,38.0065574 L105.438462,38.0065574 L105.438462,35.4590164 C105.438462,35.3213115 105.438462,35.1836066 105.369231,35.1147541 C105.3,34.9081967 105.092308,34.8393443 104.815385,34.8393443 C104.538462,34.8393443 104.330769,34.9770492 104.192308,35.1836066 C104.123077,35.3213115 104.123077,35.4590164 104.123077,35.6655738 L104.123077,38.0754098 L103.084615,38.0754098 L103.084615,35.6655738 C103.084615,35.4590164 103.084615,35.252459 103.015385,35.1147541 C102.946154,34.9081967 102.738462,34.8393443 102.461538,34.8393443 C102.184615,34.8393443 101.976923,34.9081967 101.838462,35.1147541 C101.769231,35.252459 101.769231,35.3901639 101.769231,35.5967213 L101.769231,38.0065574 L100.661538,38.0065574 L100.661538,33.9442623 L101.7,33.9442623 L101.7,34.5639344 C101.838462,34.357377 101.976923,34.2196721 102.046154,34.0819672 C102.253846,33.9442623 102.530769,33.8754098 102.876923,33.8754098 C103.153846,33.8754098 103.430769,33.9442623 103.638462,34.0819672 C103.776923,34.2196721 103.915385,34.357377 103.984615,34.5639344 C104.123077,34.357377 104.330769,34.1508197 104.469231,34.0131148 C104.676923,33.8754098 104.953846,33.8754098 105.230769,33.8754098 C105.438462,33.8754098 105.576923,33.8754098 105.784615,33.9442623" id="Shape" fill="#F2254C"></path>
                    <path d="M49.5,6.74754098 L48.3923077,6.74754098 L48.3923077,8.81311475 L48.8769231,8.81311475 C49.6384615,8.81311475 50.1230769,9.43278689 50.1230769,10.1901639 L50.1230769,34.7016393 C50.1230769,35.4590164 49.6384615,36.147541 48.8769231,36.147541 L28.3153846,36.147541 C25.8230769,36.147541 23.4,37.042623 21.6,38.695082 C19.8,37.042623 17.3769231,36.147541 14.8846154,36.147541 L3.66923077,36.147541 C2.90769231,36.147541 2.42307692,35.3901639 2.42307692,34.7016393 L2.42307692,10.1901639 C2.42307692,9.43278689 2.90769231,8.81311475 3.66923077,8.81311475 L4.15384615,8.81311475 L4.15384615,6.74754098 L3.04615385,6.74754098 C1.66153846,6.74754098 0.276923077,7.78032787 0.276923077,9.22622951 L0.276923077,35.4590164 C0.276923077,36.8360656 1.66153846,37.9377049 3.04615385,37.9377049 L14.7461538,37.9377049 C17.5153846,37.9377049 20.0076923,39.3836066 21.4615385,41.5180328 C22.9153846,39.3836066 25.4076923,37.9377049 28.1769231,37.9377049 L49.3615385,37.9377049 C50.7461538,37.9377049 52.0615385,36.8360656 52.0615385,35.4590164 L52.0615385,9.15737705 C52.2,7.78032787 50.8846154,6.74754098 49.5,6.74754098" id="Shape" fill="#3F76A5"></path>
                    <path d="M19.1769231,30.9836066 L5.60769231,30.9836066 L5.60769231,6.05901639 L19.1769231,6.05901639 L19.1769231,30.9836066 L19.1769231,30.9836066 Z M11.9769231,34.0131148 C11.3538462,34.0131148 10.8692308,33.5311475 10.8692308,32.9114754 C10.8692308,32.2918033 11.3538462,31.8098361 11.9769231,31.8098361 C12.6,31.8098361 13.0846154,32.2918033 13.0846154,32.9114754 C13.0846154,33.5311475 12.6,34.0131148 11.9769231,34.0131148 L11.9769231,34.0131148 Z M10.8,4.33770492 L14.2615385,4.33770492 L14.2615385,4.68196721 L10.8,4.68196721 L10.8,4.33770492 L10.8,4.33770492 Z M20.9076923,4.2 C20.9076923,3.51147541 20.3538462,2.89180328 19.5923077,2.89180328 L5.46923077,2.89180328 C4.77692308,2.89180328 4.15384615,3.44262295 4.15384615,4.2 L4.15384615,33.8065574 C4.15384615,34.495082 4.70769231,35.1147541 5.46923077,35.1147541 L19.5923077,35.1147541 C20.2846154,35.1147541 20.9076923,34.5639344 20.9076923,33.8065574 L20.9076923,4.2 L20.9076923,4.2 L20.9076923,4.2 Z" id="Shape" fill="#F2254C"></path>
                    <path d="M47.3538462,31.3278689 L23.3307692,31.3278689 L23.3307692,4.33770492 L47.3538462,4.33770492 L47.3538462,31.3278689 L47.3538462,31.3278689 Z M34.8923077,33.8754098 C34.2692308,33.8754098 33.7846154,33.3934426 33.7846154,32.7737705 C33.7846154,32.1540984 34.2692308,31.6721311 34.8923077,31.6721311 C35.5153846,31.6721311 36,32.1540984 36,32.7737705 C36,33.3934426 35.5153846,33.8754098 34.8923077,33.8754098 L34.8923077,33.8754098 Z M34.9615385,1.65245902 C35.1692308,1.65245902 35.3769231,1.85901639 35.3769231,2.06557377 C35.3769231,2.27213115 35.1692308,2.47868852 34.9615385,2.47868852 C34.7538462,2.47868852 34.5461538,2.27213115 34.5461538,2.06557377 C34.4769231,1.79016393 34.6846154,1.65245902 34.9615385,1.65245902 L34.9615385,1.65245902 Z M49.0846154,1.44590164 C49.0846154,0.757377049 48.5307692,0.206557377 47.8384615,0.206557377 L23.1923077,0.206557377 C22.5,0.206557377 21.9461538,0.757377049 21.9461538,1.44590164 L21.9461538,33.8754098 C21.9461538,34.5639344 22.5,35.1147541 23.1923077,35.1147541 L47.8384615,35.1147541 C48.5307692,35.1147541 49.0846154,34.5639344 49.0846154,33.8754098 L49.0846154,1.44590164 L49.0846154,1.44590164 L49.0846154,1.44590164 Z" id="Shape" fill="#F2254C"></path>
                </g>
            </g>
        </g>
    </g>
</svg>